999
FreeCAD v1.1 20260414 (Git shallow)
  0
SECTION
  2
HEADER
  9
$ACADVER
  1
AC1014
  9
$ACADMAINTVER
 70
     9
  9
$DWGCODEPAGE
  3
ANSI_1252
  9
$TEXTSTYLE
  7
STANDARD
  9
$DIMSTYLE
  2
STANDARD
  9
$DIMTXSTY
  7
STANDARD
  9
$CMLSTYLE
  2
STANDARD
  9
$LUNITS
 70
2
  9
$INSUNITS
 70
4
  9
$PEXTMAX
 10
50
 20
50
 30
50
  9
$PEXTMIN
 10
0
 20
0
 30
0
  9
$HANDSEED
  5
FFFF
  0
ENDSEC
  0
SECTION
  2
CLASSES
  0
CLASS
  1
ACDBDICTIONARYWDFLT
  2
AcDbDictionaryWithDefault
  3
ObjectDBX Classes
 90
        0
280
     0
281
     0
  0
CLASS
  1
XRECORD
  2
AcDbXrecord
  3
ObjectDBX Classes
 90
        0
280
     0
281
     0
  0
CLASS
  1
LWPOLYLINE
  2
AcDbPolyline
  3
ObjectDBX Classes
 90
        0
280
     0
281
     1
  0
ENDSEC
  0
SECTION
  2
TABLES
  0
TABLE
  2
VPORT
  5
20
330
0
100
AcDbSymbolTable
 70
     1
  0
VPORT
  5
21
330
20
100
AcDbSymbolTableRecord
100
AcDbViewportTableRecord
  2
*ACTIVE
 70
     0
  0
ENDTAB
  0
TABLE
  2
LTYPE
  5
22
330
0
100
AcDbSymbolTable
 70
     1
  0
LTYPE
  5
23
330
21
100
AcDbSymbolTableRecord
100
AcDbLinetypeTableRecord
  2
BYBLOCK
 70
     0
  3

 72
    65
 73
     0
 40
0.0
  0
LTYPE
  5
24
330
21
100
AcDbSymbolTableRecord
100
AcDbLinetypeTableRecord
  2
BYLAYER
 70
     0
  3

 72
    65
 73
     0
 40
0.0
  0
LTYPE
  5
25
330
21
100
AcDbSymbolTableRecord
100
AcDbLinetypeTableRecord
  2
CONTINUOUS
 70
     0
  3
Solid line
 72
    65
 73
     0
 40
0.0
  0
ENDTAB
  0
TABLE
  2
LAYER
  5
C92
330
0
100
AcDbSymbolTable
 70
2
  0
LAYER
  5
C93
330
C92
100
AcDbSymbolTableRecord
100
AcDbLayerTableRecord
  2
0
 70
   0
 62
   7
  6
CONTINUOUS
  0
LAYER
  5
C94
330
C92
100
AcDbSymbolTableRecord
100
AcDbLayerTableRecord
  2
PFD_View
 70
    0
 62
    7
  6
CONTINUOUS
  0
ENDTAB
  0
TABLE
  2
STYLE
  5
70
330
0
100
AcDbSymbolTable
 70
     2
  0
STYLE
  5
71
330
70
100
AcDbSymbolTableRecord
100
AcDbTextStyleTableRecord
  2
STANDARD
 70
     0
 40
0.0
 41
1.0
 50
0.0
 71
     0
 42
2.5
  3
arial.ttf
  4

  0
STYLE
  5
72
330
70
100
AcDbSymbolTableRecord
100
AcDbTextStyleTableRecord
  2
ANNOTATIVE
 70
     0
 40
0.0
 41
1.0
 50
0.0
 71
     0
 42
2.5
  3
arial.ttf
  4

  0
ENDTAB
  0
TABLE
  2
VIEW
  5
73
330
0
100
AcDbSymbolTable
 70
     0
  0
ENDTAB
  0
TABLE
  2
UCS
  5
74
330
0
100
AcDbSymbolTable
 70
     0
  0
ENDTAB
  0
TABLE
  2
APPID
  5
75
330
0
100
AcDbSymbolTable
 70
     2
  0
APPID
  5
76
330
75
100
AcDbSymbolTableRecord
100
AcDbRegAppTableRecord
  2
ACAD
 70
     0
  0
APPID
  5
77
330
75
100
AcDbSymbolTableRecord
100
AcDbRegAppTableRecord
  2
ACADANNOTATIVE
 70
     0
  0
ENDTAB
  0
TABLE
  2
DIMSTYLE
  5
78
330
0
100
AcDbSymbolTable
 70
     2
  0
DIMSTYLE
105
79
330
78
100
AcDbSymbolTableRecord
100
AcDbDimStyleTableRecord
  2
STANDARD
 70
     0
  3

  4

  5

  6

  7

 40
0.0
 41
2.5
 42
0.625
 43
3.75
 44
1.25
 45
0.0
 46
0.0
 47
0.0
 48
0.0
140
2.5
141
2.5
142
0.0
143
0.03937007874016
144
1.0
145
0.0
146
1.0
147
0.625
 71
     0
 72
     0
 73
     0
 74
     0
 75
     0
 76
     0
 77
     1
 78
     8
170
     0
171
     3
172
     1
173
     0
174
     0
175
     0
176
     0
177
     0
178
     0
270
     2
271
     2
272
     2
273
     2
274
     3
340
71
275
     0
280
     0
281
     0
282
     0
283
     0
284
     8
285
     0
286
     0
287
     3
288
     0
  0
ENDTAB
  0
TABLE
  2
BLOCK_RECORD
  5
A01
330
0
100
AcDbSymbolTable
  70
5
  0
BLOCK_RECORD
  5
A02
330
A01
100
AcDbSymbolTableRecord
100
AcDbBlockTableRecord
  2
*MODEL_SPACE
  0
BLOCK_RECORD
  5
A03
330
A01
100
AcDbSymbolTableRecord
100
AcDbBlockTableRecord
  2
*PAPER_SPACE
  0
ENDTAB
  0
ENDSEC
  0
SECTION
  2
BLOCKS
  0
BLOCK
  5
A04
330
A02
100
AcDbEntity
  8
0
100
AcDbBlockBegin
  2
*MODEL_SPACE
 70
   0
 10
0
 20
0
 30
0
  3
*MODEL_SPACE
  1
 
  0
ENDBLK
  5
A05
330
A02
100
AcDbEntity
  8
0
100
AcDbBlockEnd
  0
BLOCK
  5
A06
330
A03
100
AcDbEntity
 67
1
  8
0
100
AcDbBlockBegin
  2
*PAPER_SPACE
 70
   0
 10
0
 20
0
 30
0
  3
*PAPER_SPACE
  1
 
  0
ENDBLK
  5
A07
330
A03
100
AcDbEntity
 67
    1
  8
0
100
AcDbBlockEnd
  0
ENDSEC
  0
SECTION
  2
ENTITIES
  0
LINE
  5
A08
330
A02
100
AcDbEntity
  8
PFD_View
100
AcDbLine
 10
85.500000100
 20
142.561046562
 30
0.000000000
 11
85.500000100
 21
149.561046562
 31
0.000000000
  0
LINE
  5
A09
330
A02
100
AcDbEntity
  8
PFD_View
100
AcDbLine
 10
86.425236292
 20
142.561046562
 30
0.000000000
 11
85.500000100
 21
142.561046562
 31
0.000000000
  0
LINE
  5
A0A
330
A02
100
AcDbEntity
  8
PFD_View
100
AcDbLine
 10
86.425236292
 20
145.389534934
 30
0.000000000
 11
86.425236292
 21
142.561046562
 31
0.000000000
  0
LINE
  5
A0B
330
A02
100
AcDbEntity
  8
PFD_View
100
AcDbLine
 10
88.218477571
 20
145.389534934
 30
0.000000000
 11
86.425236292
 21
145.389534934
 31
0.000000000
  0
SPLINE
  5
A0C
330
A02
100
AcDbEntity
  8
PFD_View
100
AcDbSpline
210
0
220
0
230
1
 70
8
 71
2
 72
6
 73
3
 74
0
 40
0.000000000
 40
0.000000000
 40
0.000000000
 40
1.000000000
 40
1.000000000
 40
1.000000000
 10
90.269258821
 20
146.010492419
 30
0.000000000
 10
89.701717033
 20
145.389534934
 30
0.000000000
 10
88.218477571
 20
145.389534934
 30
0.000000000
  0
SPLINE
  5
A0D
330
A02
100
AcDbEntity
  8
PFD_View
100
AcDbSpline
210
0
220
0
230
1
 70
8
 71
2
 72
6
 73
3
 74
0
 40
0.000000000
 40
0.000000000
 40
0.000000000
 40
1.000000000
 40
1.000000000
 40
1.000000000
 10
90.836800609
 20
147.528070544
 30
0.000000000
 10
90.836800609
 20
146.631449905
 30
0.000000000
 10
90.269258821
 20
146.010492419
 30
0.000000000
  0
SPLINE
  5
A0E
330
A02
100
AcDbEntity
  8
PFD_View
100
AcDbSpline
210
0
220
0
230
1
 70
8
 71
2
 72
6
 73
3
 74
0
 40
0.000000000
 40
0.000000000
 40
0.000000000
 40
1.000000000
 40
1.000000000
 40
1.000000000
 10
90.624409620
 20
148.487009498
 30
0.000000000
 10
90.836800609
 20
148.050781300
 30
0.000000000
 10
90.836800609
 20
147.528070544
 30
0.000000000
  0
SPLINE
  5
A0F
330
A02
100
AcDbEntity
  8
PFD_View
100
AcDbSpline
210
0
220
0
230
1
 70
8
 71
2
 72
6
 73
3
 74
0
 40
0.000000000
 40
0.000000000
 40
0.000000000
 40
1.000000000
 40
1.000000000
 40
1.000000000
 10
90.064180696
 20
149.165198088
 30
0.000000000
 10
90.412336583
 20
148.923237695
 30
0.000000000
 10
90.624409620
 20
148.487009498
 30
0.000000000
  0
SPLINE
  5
A10
330
A02
100
AcDbEntity
  8
PFD_View
100
AcDbSpline
210
0
220
0
230
1
 70
8
 71
2
 72
6
 73
3
 74
0
 40
0.000000000
 40
0.000000000
 40
0.000000000
 40
1.000000000
 40
1.000000000
 40
1.000000000
 10
89.200944867
 20
149.493958989
 30
0.000000000
 10
89.716024809
 20
149.407476431
 30
0.000000000
 10
90.064180696
 20
149.165198088
 30
0.000000000
  0
SPLINE
  5
A11
330
A02
100
AcDbEntity
  8
PFD_View
100
AcDbSpline
210
0
220
0
230
1
 70
8
 71
2
 72
6
 73
3
 74
0
 40
0.000000000
 40
0.000000000
 40
0.000000000
 40
1.000000000
 40
1.000000000
 40
1.000000000
 10
88.137400173
 20
149.561046562
 30
0.000000000
 10
88.833711946
 20
149.561046562
 30
0.000000000
 10
89.200944867
 20
149.493958989
 30
0.000000000
  0
LINE
  5
A12
330
A02
100
AcDbEntity
  8
PFD_View
100
AcDbLine
 10
85.500000100
 20
149.561046562
 30
0.000000000
 11
88.137400173
 21
149.561046562
 31
0.000000000
  0
LINE
  5
A13
330
A02
100
AcDbEntity
  8
PFD_View
100
AcDbLine
 10
86.425236292
 20
146.223837259
 30
0.000000000
 11
88.232785347
 21
146.223837259
 31
0.000000000
  0
LINE
  5
A14
330
A02
100
AcDbEntity
  8
PFD_View
100
AcDbLine
 10
86.425236292
 20
148.726744236
 30
0.000000000
 11
86.425236292
 21
146.223837259
 31
0.000000000
  0
LINE
  5
A15
330
A02
100
AcDbEntity
  8
PFD_View
100
AcDbLine
 10
88.213708312
 20
148.726744236
 30
0.000000000
 11
86.425236292
 21
148.726744236
 31
0.000000000
  0
SPLINE
  5
A16
330
A02
100
AcDbEntity
  8
PFD_View
100
AcDbSpline
210
0
220
0
230
1
 70
8
 71
2
 72
6
 73
3
 74
0
 40
0.000000000
 40
0.000000000
 40
0.000000000
 40
1.000000000
 40
1.000000000
 40
1.000000000
 10
89.076944141
 20
148.664743873
 30
0.000000000
 10
88.843250463
 20
148.726744236
 30
0.000000000
 10
88.213708312
 20
148.726744236
 30
0.000000000
  0
SPLINE
  5
A17
330
A02
100
AcDbEntity
  8
PFD_View
100
AcDbSpline
210
0
220
0
230
1
 70
8
 71
2
 72
6
 73
3
 74
0
 40
0.000000000
 40
0.000000000
 40
0.000000000
 40
1.000000000
 40
1.000000000
 40
1.000000000
 10
89.661019359
 20
148.251408117
 30
0.000000000
 10
89.439407803
 20
148.564271489
 30
0.000000000
 10
89.076944141
 20
148.664743873
 30
0.000000000
  0
SPLINE
  5
A18
330
A02
100
AcDbEntity
  8
PFD_View
100
AcDbSpline
210
0
220
0
230
1
 70
8
 71
2
 72
6
 73
3
 74
0
 40
0.000000000
 40
0.000000000
 40
0.000000000
 40
1.000000000
 40
1.000000000
 40
1.000000000
 10
89.882948865
 20
147.499137041
 30
0.000000000
 10
89.882948865
 20
147.938544745
 30
0.000000000
 10
89.661019359
 20
148.251408117
 30
0.000000000
  0
SPLINE
  5
A19
330
A02
100
AcDbEntity
  8
PFD_View
100
AcDbSpline
210
0
220
0
230
1
 70
8
 71
2
 72
6
 73
3
 74
0
 40
0.000000000
 40
0.000000000
 40
0.000000000
 40
1.000000000
 40
1.000000000
 40
1.000000000
 10
89.506177426
 20
146.558003320
 30
0.000000000
 10
89.882948865
 20
146.892487332
 30
0.000000000
 10
89.882948865
 20
147.499137041
 30
0.000000000
  0
SPLINE
  5
A1A
330
A02
100
AcDbEntity
  8
PFD_View
100
AcDbSpline
210
0
220
0
230
1
 70
8
 71
2
 72
6
 73
3
 74
0
 40
0.000000000
 40
0.000000000
 40
0.000000000
 40
1.000000000
 40
1.000000000
 40
1.000000000
 10
88.232785347
 20
146.223837259
 30
0.000000000
 10
89.129405987
 20
146.223837259
 30
0.000000000
 10
89.506177426
 20
146.558003320
 30
0.000000000
  0
LINE
  5
A1B
330
A02
100
AcDbEntity
  8
PFD_View
100
AcDbLine
 10
91.568086946
 20
144.656976794
 30
0.000000000
 11
91.568086946
 21
145.511627957
 31
0.000000000
  0
LINE
  5
A1C
330
A02
100
AcDbEntity
  8
PFD_View
100
AcDbLine
 10
94.205487019
 20
144.656976794
 30
0.000000000
 11
91.568086946
 21
144.656976794
 31
0.000000000
  0
LINE
  5
A1D
330
A02
100
AcDbEntity
  8
PFD_View
100
AcDbLine
 10
94.205487019
 20
145.511627957
 30
0.000000000
 11
94.205487019
 21
144.656976794
 31
0.000000000
  0
LINE
  5
A1E
330
A02
100
AcDbEntity
  8
PFD_View
100
AcDbLine
 10
91.568086946
 20
145.511627957
 30
0.000000000
 11
94.205487019
 21
145.511627957
 31
0.000000000
  0
LINE
  5
A1F
330
A02
100
AcDbEntity
  8
PFD_View
100
AcDbLine
 10
98.152843487
 20
142.561046562
 30
0.000000000
 11
97.294376917
 21
142.561046562
 31
0.000000000
  0
LINE
  5
A20
330
A02
100
AcDbEntity
  8
PFD_View
100
AcDbLine
 10
98.152843487
 20
149.601744236
 30
0.000000000
 11
98.152843487
 21
142.561046562
 31
0.000000000
  0
LINE
  5
A21
330
A02
100
AcDbEntity
  8
PFD_View
100
AcDbLine
 10
97.599609475
 20
149.601744236
 30
0.000000000
 11
98.152843487
 21
149.601744236
 31
0.000000000
  0
SPLINE
  5
A22
330
A02
100
AcDbEntity
  8
PFD_View
100
AcDbSpline
210
0
220
0
230
1
 70
8
 71
2
 72
6
 73
3
 74
0
 40
0.000000000
 40
0.000000000
 40
0.000000000
 40
1.000000000
 40
1.000000000
 40
1.000000000
 10
96.836528080
 20
148.664107972
 30
0.000000000
 10
97.375454315
 20
149.147392855
 30
0.000000000
 10
97.599609475
 20
149.601744236
 30
0.000000000
  0
SPLINE
  5
A23
330
A02
100
AcDbEntity
  8
PFD_View
100
AcDbSpline
210
0
220
0
230
1
 70
8
 71
2
 72
6
 73
3
 74
0
 40
0.000000000
 40
0.000000000
 40
0.000000000
 40
1.000000000
 40
1.000000000
 40
1.000000000
 10
95.577443777
 20
147.841569817
 30
0.000000000
 10
96.297601844
 20
148.181141038
 30
0.000000000
 10
96.836528080
 20
148.664107972
 30
0.000000000
  0
LINE
  5
A24
330
A02
100
AcDbEntity
  8
PFD_View
100
AcDbLine
 10
95.577443777
 20
147.009175195
 30
0.000000000
 11
95.577443777
 21
147.841569817
 31
0.000000000
  0
SPLINE
  5
A25
330
A02
100
AcDbEntity
  8
PFD_View
100
AcDbSpline
210
0
220
0
230
1
 70
8
 71
2
 72
6
 73
3
 74
0
 40
0.000000000
 40
0.000000000
 40
0.000000000
 40
1.000000000
 40
1.000000000
 40
1.000000000
 10
96.481059330
 20
147.453988059
 30
0.000000000
 10
95.978061510
 20
147.157340166
 30
0.000000000
 10
95.577443777
 20
147.009175195
 30
0.000000000
  0
SPLINE
  5
A26
330
A02
100
AcDbEntity
  8
PFD_View
100
AcDbSpline
210
0
220
0
230
1
 70
8
 71
2
 72
6
 73
3
 74
0
 40
0.000000000
 40
0.000000000
 40
0.000000000
 40
1.000000000
 40
1.000000000
 40
1.000000000
 10
97.294376917
 20
148.047283844
 30
0.000000000
 10
96.984375100
 20
147.750635951
 30
0.000000000
 10
96.481059330
 20
147.453988059
 30
0.000000000
  0
LINE
  5
A27
330
A02
100
AcDbEntity
  8
PFD_View
100
AcDbLine
 10
97.294376917
 20
142.561046562
 30
0.000000000
 11
97.294376917
 21
148.047283844
 31
0.000000000
  0
SPLINE
  5
A28
330
A02
100
AcDbEntity
  8
PFD_View
100
AcDbSpline
210
0
220
0
230
1
 70
8
 71
2
 72
6
 73
3
 74
0
 40
0.000000000
 40
0.000000000
 40
0.000000000
 40
1.000000000
 40
1.000000000
 40
1.000000000
 10
100.352425609
 20
146.017805283
 30
0.000000000
 10
100.352425609
 20
147.261945908
 30
0.000000000
 10
100.607421975
 20
148.020258044
 30
0.000000000
  0
SPLINE
  5
A29
330
A02
100
AcDbEntity
  8
PFD_View
100
AcDbSpline
210
0
220
0
230
1
 70
8
 71
2
 72
6
 73
3
 74
0
 40
0.000000000
 40
0.000000000
 40
0.000000000
 40
1.000000000
 40
1.000000000
 40
1.000000000
 10
101.043968123
 20
143.166106518
 30
0.000000000
 10
100.352425609
 20
144.041742419
 30
0.000000000
 10
100.352425609
 20
146.017805283
 30
0.000000000
  0
SPLINE
  5
A2A
330
A02
100
AcDbEntity
  8
PFD_View
100
AcDbSpline
210
0
220
0
230
1
 70
8
 71
2
 72
6
 73
3
 74
0
 40
0.000000000
 40
0.000000000
 40
0.000000000
 40
1.000000000
 40
1.000000000
 40
1.000000000
 10
102.632131277
 20
142.438953538
 30
0.000000000
 10
101.621048428
 20
142.438953538
 30
0.000000000
 10
101.043968123
 20
143.166106518
 30
0.000000000
  0
SPLINE
  5
A2B
330
A02
100
AcDbEntity
  8
PFD_View
100
AcDbSpline
210
0
220
0
230
1
 70
8
 71
2
 72
6
 73
3
 74
0
 40
0.000000000
 40
0.000000000
 40
0.000000000
 40
1.000000000
 40
1.000000000
 40
1.000000000
 10
103.902979751
 20
142.852607245
 30
0.000000000
 10
103.399981931
 20
142.438953538
 30
0.000000000
 10
102.632131277
 20
142.438953538
 30
0.000000000
  0
SPLINE
  5
A2C
330
A02
100
AcDbEntity
  8
PFD_View
100
AcDbSpline
210
0
220
0
230
1
 70
8
 71
2
 72
6
 73
3
 74
0
 40
0.000000000
 40
0.000000000
 40
0.000000000
 40
1.000000000
 40
1.000000000
 40
1.000000000
 10
104.659066234
 20
144.024891038
 30
0.000000000
 10
104.406295522
 20
143.266578902
 30
0.000000000
 10
103.902979751
 20
142.852607245
 30
0.000000000
  0
SPLINE
  5
A2D
330
A02
100
AcDbEntity
  8
PFD_View
100
AcDbSpline
210
0
220
0
230
1
 70
8
 71
2
 72
6
 73
3
 74
0
 40
0.000000000
 40
0.000000000
 40
0.000000000
 40
1.000000000
 40
1.000000000
 40
1.000000000
 10
104.911836946
 20
146.017805283
 30
0.000000000
 10
104.911836946
 20
144.783521126
 30
0.000000000
 10
104.659066234
 20
144.024891038
 30
0.000000000
  0
SPLINE
  5
A2E
330
A02
100
AcDbEntity
  8
PFD_View
100
AcDbSpline
210
0
220
0
230
1
 70
8
 71
2
 72
6
 73
3
 74
0
 40
0.000000000
 40
0.000000000
 40
0.000000000
 40
1.000000000
 40
1.000000000
 40
1.000000000
 10
104.754451408
 20
147.675917565
 30
0.000000000
 10
104.911836946
 20
147.061001140
 30
0.000000000
 10
104.911836946
 20
146.017805283
 30
0.000000000
  0
SPLINE
  5
A2F
330
A02
100
AcDbEntity
  8
PFD_View
100
AcDbSpline
210
0
220
0
230
1
 70
8
 71
2
 72
6
 73
3
 74
0
 40
0.000000000
 40
0.000000000
 40
0.000000000
 40
1.000000000
 40
1.000000000
 40
1.000000000
 10
104.320448865
 20
148.718795472
 30
0.000000000
 10
104.597065870
 20
148.290833989
 30
0.000000000
 10
104.754451408
 20
147.675917565
 30
0.000000000
  0
SPLINE
  5
A30
330
A02
100
AcDbEntity
  8
PFD_View
100
AcDbSpline
210
0
220
0
230
1
 70
8
 71
2
 72
6
 73
3
 74
0
 40
0.000000000
 40
0.000000000
 40
0.000000000
 40
1.000000000
 40
1.000000000
 40
1.000000000
 10
103.619367833
 20
149.374409570
 30
0.000000000
 10
104.043831859
 20
149.147074905
 30
0.000000000
 10
104.320448865
 20
148.718795472
 30
0.000000000
  0
SPLINE
  5
A31
330
A02
100
AcDbEntity
  8
PFD_View
100
AcDbSpline
210
0
220
0
230
1
 70
8
 71
2
 72
6
 73
3
 74
0
 40
0.000000000
 40
0.000000000
 40
0.000000000
 40
1.000000000
 40
1.000000000
 40
1.000000000
 10
102.632131277
 20
149.601744236
 30
0.000000000
 10
103.194903806
 20
149.601744236
 30
0.000000000
 10
103.619367833
 20
149.374409570
 30
0.000000000
  0
SPLINE
  5
A32
330
A02
100
AcDbEntity
  8
PFD_View
100
AcDbSpline
210
0
220
0
230
1
 70
8
 71
2
 72
6
 73
3
 74
0
 40
0.000000000
 40
0.000000000
 40
0.000000000
 40
1.000000000
 40
1.000000000
 40
1.000000000
 10
101.365734112
 20
149.190316184
 30
0.000000000
 10
101.869049882
 20
149.601744236
 30
0.000000000
 10
102.632131277
 20
149.601744236
 30
0.000000000
  0
SPLINE
  5
A33
330
A02
100
AcDbEntity
  8
PFD_View
100
AcDbSpline
210
0
220
0
230
1
 70
8
 71
2
 72
6
 73
3
 74
0
 40
0.000000000
 40
0.000000000
 40
0.000000000
 40
1.000000000
 40
1.000000000
 40
1.000000000
 10
100.607421975
 20
148.020258044
 30
0.000000000
 10
100.862736292
 20
148.778888131
 30
0.000000000
 10
101.365734112
 20
149.190316184
 30
0.000000000
  0
SPLINE
  5
A34
330
A02
100
AcDbEntity
  8
PFD_View
100
AcDbSpline
210
0
220
0
230
1
 70
8
 71
2
 72
6
 73
3
 74
0
 40
0.000000000
 40
0.000000000
 40
0.000000000
 40
1.000000000
 40
1.000000000
 40
1.000000000
 10
101.234738472
 20
146.020348887
 30
0.000000000
 10
101.234738472
 20
144.294195181
 30
0.000000000
 10
101.637581859
 20
143.722520035
 30
0.000000000
  0
SPLINE
  5
A35
330
A02
100
AcDbEntity
  8
PFD_View
100
AcDbSpline
210
0
220
0
230
1
 70
8
 71
2
 72
6
 73
3
 74
0
 40
0.000000000
 40
0.000000000
 40
0.000000000
 40
1.000000000
 40
1.000000000
 40
1.000000000
 10
101.678279533
 20
148.387490966
 30
0.000000000
 10
101.234738472
 20
147.746502594
 30
0.000000000
 10
101.234738472
 20
146.020348887
 30
0.000000000
  0
SPLINE
  5
A36
330
A02
100
AcDbEntity
  8
PFD_View
100
AcDbSpline
210
0
220
0
230
1
 70
8
 71
2
 72
6
 73
3
 74
0
 40
0.000000000
 40
0.000000000
 40
0.000000000
 40
1.000000000
 40
1.000000000
 40
1.000000000
 10
102.622592760
 20
148.889534934
 30
0.000000000
 10
102.031204678
 20
148.889534934
 30
0.000000000
 10
101.678279533
 20
148.387490966
 30
0.000000000
  0
SPLINE
  5
A37
330
A02
100
AcDbEntity
  8
PFD_View
100
AcDbSpline
210
0
220
0
230
1
 70
8
 71
2
 72
6
 73
3
 74
0
 40
0.000000000
 40
0.000000000
 40
0.000000000
 40
1.000000000
 40
1.000000000
 40
1.000000000
 10
103.626362745
 20
148.320403393
 30
0.000000000
 10
103.223519359
 20
148.889534934
 30
0.000000000
 10
102.622592760
 20
148.889534934
 30
0.000000000
  0
SPLINE
  5
A38
330
A02
100
AcDbEntity
  8
PFD_View
100
AcDbSpline
210
0
220
0
230
1
 70
8
 71
2
 72
6
 73
3
 74
0
 40
0.000000000
 40
0.000000000
 40
0.000000000
 40
1.000000000
 40
1.000000000
 40
1.000000000
 10
104.029524083
 20
146.020348887
 30
0.000000000
 10
104.029524083
 20
147.751271852
 30
0.000000000
 10
103.626362745
 20
148.320403393
 30
0.000000000
  0
SPLINE
  5
A39
330
A02
100
AcDbEntity
  8
PFD_View
100
AcDbSpline
210
0
220
0
230
1
 70
8
 71
2
 72
6
 73
3
 74
0
 40
0.000000000
 40
0.000000000
 40
0.000000000
 40
1.000000000
 40
1.000000000
 40
1.000000000
 10
103.626362745
 20
143.725063640
 30
0.000000000
 10
104.029524083
 20
144.298964440
 30
0.000000000
 10
104.029524083
 20
146.020348887
 30
0.000000000
  0
SPLINE
  5
A3A
330
A02
100
AcDbEntity
  8
PFD_View
100
AcDbSpline
210
0
220
0
230
1
 70
8
 71
2
 72
6
 73
3
 74
0
 40
0.000000000
 40
0.000000000
 40
0.000000000
 40
1.000000000
 40
1.000000000
 40
1.000000000
 10
102.632131277
 20
143.151162841
 30
0.000000000
 10
103.223519359
 20
143.151162841
 30
0.000000000
 10
103.626362745
 20
143.725063640
 30
0.000000000
  0
SPLINE
  5
A3B
330
A02
100
AcDbEntity
  8
PFD_View
100
AcDbSpline
210
0
220
0
230
1
 70
8
 71
2
 72
6
 73
3
 74
0
 40
0.000000000
 40
0.000000000
 40
0.000000000
 40
1.000000000
 40
1.000000000
 40
1.000000000
 10
101.637581859
 20
143.722520035
 30
0.000000000
 10
102.040743196
 20
143.151162841
 30
0.000000000
 10
102.632131277
 20
143.151162841
 30
0.000000000
  0
SPLINE
  5
A3C
330
A02
100
AcDbEntity
  8
PFD_View
100
AcDbSpline
210
0
220
0
230
1
 70
8
 71
2
 72
6
 73
3
 74
0
 40
0.000000000
 40
0.000000000
 40
0.000000000
 40
1.000000000
 40
1.000000000
 40
1.000000000
 10
105.785565144
 20
146.017805283
 30
0.000000000
 10
105.785565144
 20
147.261945908
 30
0.000000000
 10
106.040561510
 20
148.020258044
 30
0.000000000
  0
SPLINE
  5
A3D
330
A02
100
AcDbEntity
  8
PFD_View
100
AcDbSpline
210
0
220
0
230
1
 70
8
 71
2
 72
6
 73
3
 74
0
 40
0.000000000
 40
0.000000000
 40
0.000000000
 40
1.000000000
 40
1.000000000
 40
1.000000000
 10
106.477107658
 20
143.166106518
 30
0.000000000
 10
105.785565144
 20
144.041742419
 30
0.000000000
 10
105.785565144
 20
146.017805283
 30
0.000000000
  0
SPLINE
  5
A3E
330
A02
100
AcDbEntity
  8
PFD_View
100
AcDbSpline
210
0
220
0
230
1
 70
8
 71
2
 72
6
 73
3
 74
0
 40
0.000000000
 40
0.000000000
 40
0.000000000
 40
1.000000000
 40
1.000000000
 40
1.000000000
 10
108.065270812
 20
142.438953538
 30
0.000000000
 10
107.054187963
 20
142.438953538
 30
0.000000000
 10
106.477107658
 20
143.166106518
 30
0.000000000
  0
SPLINE
  5
A3F
330
A02
100
AcDbEntity
  8
PFD_View
100
AcDbSpline
210
0
220
0
230
1
 70
8
 71
2
 72
6
 73
3
 74
0
 40
0.000000000
 40
0.000000000
 40
0.000000000
 40
1.000000000
 40
1.000000000
 40
1.000000000
 10
109.336119286
 20
142.852607245
 30
0.000000000
 10
108.833121466
 20
142.438953538
 30
0.000000000
 10
108.065270812
 20
142.438953538
 30
0.000000000
  0
SPLINE
  5
A40
330
A02
100
AcDbEntity
  8
PFD_View
100
AcDbSpline
210
0
220
0
230
1
 70
8
 71
2
 72
6
 73
3
 74
0
 40
0.000000000
 40
0.000000000
 40
0.000000000
 40
1.000000000
 40
1.000000000
 40
1.000000000
 10
110.092205769
 20
144.024891038
 30
0.000000000
 10
109.839435056
 20
143.266578902
 30
0.000000000
 10
109.336119286
 20
142.852607245
 30
0.000000000
  0
SPLINE
  5
A41
330
A02
100
AcDbEntity
  8
PFD_View
100
AcDbSpline
210
0
220
0
230
1
 70
8
 71
2
 72
6
 73
3
 74
0
 40
0.000000000
 40
0.000000000
 40
0.000000000
 40
1.000000000
 40
1.000000000
 40
1.000000000
 10
110.344976481
 20
146.017805283
 30
0.000000000
 10
110.344976481
 20
144.783521126
 30
0.000000000
 10
110.092205769
 20
144.024891038
 30
0.000000000
  0
SPLINE
  5
A42
330
A02
100
AcDbEntity
  8
PFD_View
100
AcDbSpline
210
0
220
0
230
1
 70
8
 71
2
 72
6
 73
3
 74
0
 40
0.000000000
 40
0.000000000
 40
0.000000000
 40
1.000000000
 40
1.000000000
 40
1.000000000
 10
110.187590943
 20
147.675917565
 30
0.000000000
 10
110.344976481
 20
147.061001140
 30
0.000000000
 10
110.344976481
 20
146.017805283
 30
0.000000000
  0
SPLINE
  5
A43
330
A02
100
AcDbEntity
  8
PFD_View
100
AcDbSpline
210
0
220
0
230
1
 70
8
 71
2
 72
6
 73
3
 74
0
 40
0.000000000
 40
0.000000000
 40
0.000000000
 40
1.000000000
 40
1.000000000
 40
1.000000000
 10
109.753588399
 20
148.718795472
 30
0.000000000
 10
110.030205405
 20
148.290833989
 30
0.000000000
 10
110.187590943
 20
147.675917565
 30
0.000000000
  0
SPLINE
  5
A44
330
A02
100
AcDbEntity
  8
PFD_View
100
AcDbSpline
210
0
220
0
230
1
 70
8
 71
2
 72
6
 73
3
 74
0
 40
0.000000000
 40
0.000000000
 40
0.000000000
 40
1.000000000
 40
1.000000000
 40
1.000000000
 10
109.052507367
 20
149.374409570
 30
0.000000000
 10
109.476971394
 20
149.147074905
 30
0.000000000
 10
109.753588399
 20
148.718795472
 30
0.000000000
  0
SPLINE
  5
A45
330
A02
100
AcDbEntity
  8
PFD_View
100
AcDbSpline
210
0
220
0
230
1
 70
8
 71
2
 72
6
 73
3
 74
0
 40
0.000000000
 40
0.000000000
 40
0.000000000
 40
1.000000000
 40
1.000000000
 40
1.000000000
 10
108.065270812
 20
149.601744236
 30
0.000000000
 10
108.628043341
 20
149.601744236
 30
0.000000000
 10
109.052507367
 20
149.374409570
 30
0.000000000
  0
SPLINE
  5
A46
330
A02
100
AcDbEntity
  8
PFD_View
100
AcDbSpline
210
0
220
0
230
1
 70
8
 71
2
 72
6
 73
3
 74
0
 40
0.000000000
 40
0.000000000
 40
0.000000000
 40
1.000000000
 40
1.000000000
 40
1.000000000
 10
106.798873647
 20
149.190316184
 30
0.000000000
 10
107.302189417
 20
149.601744236
 30
0.000000000
 10
108.065270812
 20
149.601744236
 30
0.000000000
  0
SPLINE
  5
A47
330
A02
100
AcDbEntity
  8
PFD_View
100
AcDbSpline
210
0
220
0
230
1
 70
8
 71
2
 72
6
 73
3
 74
0
 40
0.000000000
 40
0.000000000
 40
0.000000000
 40
1.000000000
 40
1.000000000
 40
1.000000000
 10
106.040561510
 20
148.020258044
 30
0.000000000
 10
106.295875827
 20
148.778888131
 30
0.000000000
 10
106.798873647
 20
149.190316184
 30
0.000000000
  0
SPLINE
  5
A48
330
A02
100
AcDbEntity
  8
PFD_View
100
AcDbSpline
210
0
220
0
230
1
 70
8
 71
2
 72
6
 73
3
 74
0
 40
0.000000000
 40
0.000000000
 40
0.000000000
 40
1.000000000
 40
1.000000000
 40
1.000000000
 10
106.667878007
 20
146.020348887
 30
0.000000000
 10
106.667878007
 20
144.294195181
 30
0.000000000
 10
107.070721394
 20
143.722520035
 30
0.000000000
  0
SPLINE
  5
A49
330
A02
100
AcDbEntity
  8
PFD_View
100
AcDbSpline
210
0
220
0
230
1
 70
8
 71
2
 72
6
 73
3
 74
0
 40
0.000000000
 40
0.000000000
 40
0.000000000
 40
1.000000000
 40
1.000000000
 40
1.000000000
 10
107.111419068
 20
148.387490966
 30
0.000000000
 10
106.667878007
 20
147.746502594
 30
0.000000000
 10
106.667878007
 20
146.020348887
 30
0.000000000
  0
SPLINE
  5
A4A
330
A02
100
AcDbEntity
  8
PFD_View
100
AcDbSpline
210
0
220
0
230
1
 70
8
 71
2
 72
6
 73
3
 74
0
 40
0.000000000
 40
0.000000000
 40
0.000000000
 40
1.000000000
 40
1.000000000
 40
1.000000000
 10
108.055732295
 20
148.889534934
 30
0.000000000
 10
107.464344213
 20
148.889534934
 30
0.000000000
 10
107.111419068
 20
148.387490966
 30
0.000000000
  0
SPLINE
  5
A4B
330
A02
100
AcDbEntity
  8
PFD_View
100
AcDbSpline
210
0
220
0
230
1
 70
8
 71
2
 72
6
 73
3
 74
0
 40
0.000000000
 40
0.000000000
 40
0.000000000
 40
1.000000000
 40
1.000000000
 40
1.000000000
 10
109.059502280
 20
148.320403393
 30
0.000000000
 10
108.656658894
 20
148.889534934
 30
0.000000000
 10
108.055732295
 20
148.889534934
 30
0.000000000
  0
SPLINE
  5
A4C
330
A02
100
AcDbEntity
  8
PFD_View
100
AcDbSpline
210
0
220
0
230
1
 70
8
 71
2
 72
6
 73
3
 74
0
 40
0.000000000
 40
0.000000000
 40
0.000000000
 40
1.000000000
 40
1.000000000
 40
1.000000000
 10
109.462663617
 20
146.020348887
 30
0.000000000
 10
109.462663617
 20
147.751271852
 30
0.000000000
 10
109.059502280
 20
148.320403393
 30
0.000000000
  0
SPLINE
  5
A4D
330
A02
100
AcDbEntity
  8
PFD_View
100
AcDbSpline
210
0
220
0
230
1
 70
8
 71
2
 72
6
 73
3
 74
0
 40
0.000000000
 40
0.000000000
 40
0.000000000
 40
1.000000000
 40
1.000000000
 40
1.000000000
 10
109.059502280
 20
143.725063640
 30
0.000000000
 10
109.462663617
 20
144.298964440
 30
0.000000000
 10
109.462663617
 20
146.020348887
 30
0.000000000
  0
SPLINE
  5
A4E
330
A02
100
AcDbEntity
  8
PFD_View
100
AcDbSpline
210
0
220
0
230
1
 70
8
 71
2
 72
6
 73
3
 74
0
 40
0.000000000
 40
0.000000000
 40
0.000000000
 40
1.000000000
 40
1.000000000
 40
1.000000000
 10
108.065270812
 20
143.151162841
 30
0.000000000
 10
108.656658894
 20
143.151162841
 30
0.000000000
 10
109.059502280
 20
143.725063640
 30
0.000000000
  0
SPLINE
  5
A4F
330
A02
100
AcDbEntity
  8
PFD_View
100
AcDbSpline
210
0
220
0
230
1
 70
8
 71
2
 72
6
 73
3
 74
0
 40
0.000000000
 40
0.000000000
 40
0.000000000
 40
1.000000000
 40
1.000000000
 40
1.000000000
 10
107.070721394
 20
143.722520035
 30
0.000000000
 10
107.473882731
 20
143.151162841
 30
0.000000000
 10
108.065270812
 20
143.151162841
 30
0.000000000
  0
LINE
  5
A50
330
A02
100
AcDbEntity
  8
PFD_View
100
AcDbLine
 10
114.452262091
 20
142.561046562
 30
0.000000000
 11
113.593795522
 21
142.561046562
 31
0.000000000
  0
LINE
  5
A51
330
A02
100
AcDbEntity
  8
PFD_View
100
AcDbLine
 10
114.452262091
 20
149.601744236
 30
0.000000000
 11
114.452262091
 21
142.561046562
 31
0.000000000
  0
LINE
  5
A52
330
A02
100
AcDbEntity
  8
PFD_View
100
AcDbLine
 10
113.899028080
 20
149.601744236
 30
0.000000000
 11
114.452262091
 21
149.601744236
 31
0.000000000
  0
SPLINE
  5
A53
330
A02
100
AcDbEntity
  8
PFD_View
100
AcDbSpline
210
0
220
0
230
1
 70
8
 71
2
 72
6
 73
3
 74
0
 40
0.000000000
 40
0.000000000
 40
0.000000000
 40
1.000000000
 40
1.000000000
 40
1.000000000
 10
113.135946684
 20
148.664107972
 30
0.000000000
 10
113.674872920
 20
149.147392855
 30
0.000000000
 10
113.899028080
 20
149.601744236
 30
0.000000000
  0
SPLINE
  5
A54
330
A02
100
AcDbEntity
  8
PFD_View
100
AcDbSpline
210
0
220
0
230
1
 70
8
 71
2
 72
6
 73
3
 74
0
 40
0.000000000
 40
0.000000000
 40
0.000000000
 40
1.000000000
 40
1.000000000
 40
1.000000000
 10
111.876862382
 20
147.841569817
 30
0.000000000
 10
112.597020449
 20
148.181141038
 30
0.000000000
 10
113.135946684
 20
148.664107972
 30
0.000000000
  0
LINE
  5
A55
330
A02
100
AcDbEntity
  8
PFD_View
100
AcDbLine
 10
111.876862382
 20
147.009175195
 30
0.000000000
 11
111.876862382
 21
147.841569817
 31
0.000000000
  0
SPLINE
  5
A56
330
A02
100
AcDbEntity
  8
PFD_View
100
AcDbSpline
210
0
220
0
230
1
 70
8
 71
2
 72
6
 73
3
 74
0
 40
0.000000000
 40
0.000000000
 40
0.000000000
 40
1.000000000
 40
1.000000000
 40
1.000000000
 10
112.780477934
 20
147.453988059
 30
0.000000000
 10
112.277480115
 20
147.157340166
 30
0.000000000
 10
111.876862382
 20
147.009175195
 30
0.000000000
  0
SPLINE
  5
A57
330
A02
100
AcDbEntity
  8
PFD_View
100
AcDbSpline
210
0
220
0
230
1
 70
8
 71
2
 72
6
 73
3
 74
0
 40
0.000000000
 40
0.000000000
 40
0.000000000
 40
1.000000000
 40
1.000000000
 40
1.000000000
 10
113.593795522
 20
148.047283844
 30
0.000000000
 10
113.283793705
 20
147.750635951
 30
0.000000000
 10
112.780477934
 20
147.453988059
 30
0.000000000
  0
LINE
  5
A58
330
A02
100
AcDbEntity
  8
PFD_View
100
AcDbLine
 10
113.593795522
 20
142.561046562
 30
0.000000000
 11
113.593795522
 21
148.047283844
 31
0.000000000
  0
LINE
  5
A59
330
A02
100
AcDbEntity
  8
PFD_View
100
AcDbLine
 10
287.803551962
 20
142.561046562
 30
0.000000000
 11
287.803551962
 21
148.726744236
 31
0.000000000
  0
LINE
  5
A5A
330
A02
100
AcDbEntity
  8
PFD_View
100
AcDbLine
 10
288.728788154
 20
142.561046562
 30
0.000000000
 11
287.803551962
 21
142.561046562
 31
0.000000000
  0
LINE
  5
A5B
330
A02
100
AcDbEntity
  8
PFD_View
100
AcDbLine
 10
288.728788154
 20
148.726744236
 30
0.000000000
 11
288.728788154
 21
142.561046562
 31
0.000000000
  0
LINE
  5
A5C
330
A02
100
AcDbEntity
  8
PFD_View
100
AcDbLine
 10
291.041878634
 20
148.726744236
 30
0.000000000
 11
288.728788154
 21
148.726744236
 31
0.000000000
  0
LINE
  5
A5D
330
A02
100
AcDbEntity
  8
PFD_View
100
AcDbLine
 10
291.041878634
 20
149.561046562
 30
0.000000000
 11
291.041878634
 21
148.726744236
 31
0.000000000
  0
LINE
  5
A5E
330
A02
100
AcDbEntity
  8
PFD_View
100
AcDbLine
 10
285.500000000
 20
149.561046562
 30
0.000000000
 11
291.041878634
 21
149.561046562
 31
0.000000000
  0
LINE
  5
A5F
330
A02
100
AcDbEntity
  8
PFD_View
100
AcDbLine
 10
285.500000000
 20
148.726744236
 30
0.000000000
 11
285.500000000
 21
149.561046562
 31
0.000000000
  0
LINE
  5
A60
330
A02
100
AcDbEntity
  8
PFD_View
100
AcDbLine
 10
287.803551962
 20
148.726744236
 30
0.000000000
 11
285.500000000
 21
148.726744236
 31
0.000000000
  0
LINE
  5
A61
330
A02
100
AcDbEntity
  8
PFD_View
100
AcDbLine
 10
291.014216933
 20
144.656976794
 30
0.000000000
 11
291.014216933
 21
145.511627957
 31
0.000000000
  0
LINE
  5
A62
330
A02
100
AcDbEntity
  8
PFD_View
100
AcDbLine
 10
293.651617006
 20
144.656976794
 30
0.000000000
 11
291.014216933
 21
144.656976794
 31
0.000000000
  0
LINE
  5
A63
330
A02
100
AcDbEntity
  8
PFD_View
100
AcDbLine
 10
293.651617006
 20
145.511627957
 30
0.000000000
 11
293.651617006
 21
144.656976794
 31
0.000000000
  0
LINE
  5
A64
330
A02
100
AcDbEntity
  8
PFD_View
100
AcDbLine
 10
291.014216933
 20
145.511627957
 30
0.000000000
 11
293.651617006
 21
145.511627957
 31
0.000000000
  0
LINE
  5
A65
330
A02
100
AcDbEntity
  8
PFD_View
100
AcDbLine
 10
297.598973474
 20
142.561046562
 30
0.000000000
 11
296.740506904
 21
142.561046562
 31
0.000000000
  0
LINE
  5
A66
330
A02
100
AcDbEntity
  8
PFD_View
100
AcDbLine
 10
297.598973474
 20
149.601744236
 30
0.000000000
 11
297.598973474
 21
142.561046562
 31
0.000000000
  0
LINE
  5
A67
330
A02
100
AcDbEntity
  8
PFD_View
100
AcDbLine
 10
297.045739462
 20
149.601744236
 30
0.000000000
 11
297.598973474
 21
149.601744236
 31
0.000000000
  0
SPLINE
  5
A68
330
A02
100
AcDbEntity
  8
PFD_View
100
AcDbSpline
210
0
220
0
230
1
 70
8
 71
2
 72
6
 73
3
 74
0
 40
0.000000000
 40
0.000000000
 40
0.000000000
 40
1.000000000
 40
1.000000000
 40
1.000000000
 10
296.282658067
 20
148.664107972
 30
0.000000000
 10
296.821584302
 20
149.147392855
 30
0.000000000
 10
297.045739462
 20
149.601744236
 30
0.000000000
  0
SPLINE
  5
A69
330
A02
100
AcDbEntity
  8
PFD_View
100
AcDbSpline
210
0
220
0
230
1
 70
8
 71
2
 72
6
 73
3
 74
0
 40
0.000000000
 40
0.000000000
 40
0.000000000
 40
1.000000000
 40
1.000000000
 40
1.000000000
 10
295.023573765
 20
147.841569817
 30
0.000000000
 10
295.743731831
 20
148.181141038
 30
0.000000000
 10
296.282658067
 20
148.664107972
 30
0.000000000
  0
LINE
  5
A6A
330
A02
100
AcDbEntity
  8
PFD_View
100
AcDbLine
 10
295.023573765
 20
147.009175195
 30
0.000000000
 11
295.023573765
 21
147.841569817
 31
0.000000000
  0
SPLINE
  5
A6B
330
A02
100
AcDbEntity
  8
PFD_View
100
AcDbSpline
210
0
220
0
230
1
 70
8
 71
2
 72
6
 73
3
 74
0
 40
0.000000000
 40
0.000000000
 40
0.000000000
 40
1.000000000
 40
1.000000000
 40
1.000000000
 10
295.927189317
 20
147.453988059
 30
0.000000000
 10
295.424191497
 20
147.157340166
 30
0.000000000
 10
295.023573765
 20
147.009175195
 30
0.000000000
  0
SPLINE
  5
A6C
330
A02
100
AcDbEntity
  8
PFD_View
100
AcDbSpline
210
0
220
0
230
1
 70
8
 71
2
 72
6
 73
3
 74
0
 40
0.000000000
 40
0.000000000
 40
0.000000000
 40
1.000000000
 40
1.000000000
 40
1.000000000
 10
296.740506904
 20
148.047283844
 30
0.000000000
 10
296.430505087
 20
147.750635951
 30
0.000000000
 10
295.927189317
 20
147.453988059
 30
0.000000000
  0
LINE
  5
A6D
330
A02
100
AcDbEntity
  8
PFD_View
100
AcDbLine
 10
296.740506904
 20
142.561046562
 30
0.000000000
 11
296.740506904
 21
148.047283844
 31
0.000000000
  0
SPLINE
  5
A6E
330
A02
100
AcDbEntity
  8
PFD_View
100
AcDbSpline
210
0
220
0
230
1
 70
8
 71
2
 72
6
 73
3
 74
0
 40
0.000000000
 40
0.000000000
 40
0.000000000
 40
1.000000000
 40
1.000000000
 40
1.000000000
 10
299.798555596
 20
146.017805283
 30
0.000000000
 10
299.798555596
 20
147.261945908
 30
0.000000000
 10
300.053551962
 20
148.020258044
 30
0.000000000
  0
SPLINE
  5
A6F
330
A02
100
AcDbEntity
  8
PFD_View
100
AcDbSpline
210
0
220
0
230
1
 70
8
 71
2
 72
6
 73
3
 74
0
 40
0.000000000
 40
0.000000000
 40
0.000000000
 40
1.000000000
 40
1.000000000
 40
1.000000000
 10
300.490098110
 20
143.166106518
 30
0.000000000
 10
299.798555596
 20
144.041742419
 30
0.000000000
 10
299.798555596
 20
146.017805283
 30
0.000000000
  0
SPLINE
  5
A70
330
A02
100
AcDbEntity
  8
PFD_View
100
AcDbSpline
210
0
220
0
230
1
 70
8
 71
2
 72
6
 73
3
 74
0
 40
0.000000000
 40
0.000000000
 40
0.000000000
 40
1.000000000
 40
1.000000000
 40
1.000000000
 10
302.078261265
 20
142.438953538
 30
0.000000000
 10
301.067178416
 20
142.438953538
 30
0.000000000
 10
300.490098110
 20
143.166106518
 30
0.000000000
  0
SPLINE
  5
A71
330
A02
100
AcDbEntity
  8
PFD_View
100
AcDbSpline
210
0
220
0
230
1
 70
8
 71
2
 72
6
 73
3
 74
0
 40
0.000000000
 40
0.000000000
 40
0.000000000
 40
1.000000000
 40
1.000000000
 40
1.000000000
 10
303.349109738
 20
142.852607245
 30
0.000000000
 10
302.846111919
 20
142.438953538
 30
0.000000000
 10
302.078261265
 20
142.438953538
 30
0.000000000
  0
SPLINE
  5
A72
330
A02
100
AcDbEntity
  8
PFD_View
100
AcDbSpline
210
0
220
0
230
1
 70
8
 71
2
 72
6
 73
3
 74
0
 40
0.000000000
 40
0.000000000
 40
0.000000000
 40
1.000000000
 40
1.000000000
 40
1.000000000
 10
304.105196221
 20
144.024891038
 30
0.000000000
 10
303.852425509
 20
143.266578902
 30
0.000000000
 10
303.349109738
 20
142.852607245
 30
0.000000000
  0
SPLINE
  5
A73
330
A02
100
AcDbEntity
  8
PFD_View
100
AcDbSpline
210
0
220
0
230
1
 70
8
 71
2
 72
6
 73
3
 74
0
 40
0.000000000
 40
0.000000000
 40
0.000000000
 40
1.000000000
 40
1.000000000
 40
1.000000000
 10
304.357966933
 20
146.017805283
 30
0.000000000
 10
304.357966933
 20
144.783521126
 30
0.000000000
 10
304.105196221
 20
144.024891038
 30
0.000000000
  0
SPLINE
  5
A74
330
A02
100
AcDbEntity
  8
PFD_View
100
AcDbSpline
210
0
220
0
230
1
 70
8
 71
2
 72
6
 73
3
 74
0
 40
0.000000000
 40
0.000000000
 40
0.000000000
 40
1.000000000
 40
1.000000000
 40
1.000000000
 10
304.200581395
 20
147.675917565
 30
0.000000000
 10
304.357966933
 20
147.061001140
 30
0.000000000
 10
304.357966933
 20
146.017805283
 30
0.000000000
  0
SPLINE
  5
A75
330
A02
100
AcDbEntity
  8
PFD_View
100
AcDbSpline
210
0
220
0
230
1
 70
8
 71
2
 72
6
 73
3
 74
0
 40
0.000000000
 40
0.000000000
 40
0.000000000
 40
1.000000000
 40
1.000000000
 40
1.000000000
 10
303.766578852
 20
148.718795472
 30
0.000000000
 10
304.043195858
 20
148.290833989
 30
0.000000000
 10
304.200581395
 20
147.675917565
 30
0.000000000
  0
SPLINE
  5
A76
330
A02
100
AcDbEntity
  8
PFD_View
100
AcDbSpline
210
0
220
0
230
1
 70
8
 71
2
 72
6
 73
3
 74
0
 40
0.000000000
 40
0.000000000
 40
0.000000000
 40
1.000000000
 40
1.000000000
 40
1.000000000
 10
303.065497820
 20
149.374409570
 30
0.000000000
 10
303.489961846
 20
149.147074905
 30
0.000000000
 10
303.766578852
 20
148.718795472
 30
0.000000000
  0
SPLINE
  5
A77
330
A02
100
AcDbEntity
  8
PFD_View
100
AcDbSpline
210
0
220
0
230
1
 70
8
 71
2
 72
6
 73
3
 74
0
 40
0.000000000
 40
0.000000000
 40
0.000000000
 40
1.000000000
 40
1.000000000
 40
1.000000000
 10
302.078261265
 20
149.601744236
 30
0.000000000
 10
302.641033794
 20
149.601744236
 30
0.000000000
 10
303.065497820
 20
149.374409570
 30
0.000000000
  0
SPLINE
  5
A78
330
A02
100
AcDbEntity
  8
PFD_View
100
AcDbSpline
210
0
220
0
230
1
 70
8
 71
2
 72
6
 73
3
 74
0
 40
0.000000000
 40
0.000000000
 40
0.000000000
 40
1.000000000
 40
1.000000000
 40
1.000000000
 10
300.811864099
 20
149.190316184
 30
0.000000000
 10
301.315179869
 20
149.601744236
 30
0.000000000
 10
302.078261265
 20
149.601744236
 30
0.000000000
  0
SPLINE
  5
A79
330
A02
100
AcDbEntity
  8
PFD_View
100
AcDbSpline
210
0
220
0
230
1
 70
8
 71
2
 72
6
 73
3
 74
0
 40
0.000000000
 40
0.000000000
 40
0.000000000
 40
1.000000000
 40
1.000000000
 40
1.000000000
 10
300.053551962
 20
148.020258044
 30
0.000000000
 10
300.308866279
 20
148.778888131
 30
0.000000000
 10
300.811864099
 20
149.190316184
 30
0.000000000
  0
SPLINE
  5
A7A
330
A02
100
AcDbEntity
  8
PFD_View
100
AcDbSpline
210
0
220
0
230
1
 70
8
 71
2
 72
6
 73
3
 74
0
 40
0.000000000
 40
0.000000000
 40
0.000000000
 40
1.000000000
 40
1.000000000
 40
1.000000000
 10
300.680868459
 20
146.020348887
 30
0.000000000
 10
300.680868459
 20
144.294195181
 30
0.000000000
 10
301.083711846
 20
143.722520035
 30
0.000000000
  0
SPLINE
  5
A7B
330
A02
100
AcDbEntity
  8
PFD_View
100
AcDbSpline
210
0
220
0
230
1
 70
8
 71
2
 72
6
 73
3
 74
0
 40
0.000000000
 40
0.000000000
 40
0.000000000
 40
1.000000000
 40
1.000000000
 40
1.000000000
 10
301.124409520
 20
148.387490966
 30
0.000000000
 10
300.680868459
 20
147.746502594
 30
0.000000000
 10
300.680868459
 20
146.020348887
 30
0.000000000
  0
SPLINE
  5
A7C
330
A02
100
AcDbEntity
  8
PFD_View
100
AcDbSpline
210
0
220
0
230
1
 70
8
 71
2
 72
6
 73
3
 74
0
 40
0.000000000
 40
0.000000000
 40
0.000000000
 40
1.000000000
 40
1.000000000
 40
1.000000000
 10
302.068722747
 20
148.889534934
 30
0.000000000
 10
301.477334666
 20
148.889534934
 30
0.000000000
 10
301.124409520
 20
148.387490966
 30
0.000000000
  0
SPLINE
  5
A7D
330
A02
100
AcDbEntity
  8
PFD_View
100
AcDbSpline
210
0
220
0
230
1
 70
8
 71
2
 72
6
 73
3
 74
0
 40
0.000000000
 40
0.000000000
 40
0.000000000
 40
1.000000000
 40
1.000000000
 40
1.000000000
 10
303.072492733
 20
148.320403393
 30
0.000000000
 10
302.669649346
 20
148.889534934
 30
0.000000000
 10
302.068722747
 20
148.889534934
 30
0.000000000
  0
SPLINE
  5
A7E
330
A02
100
AcDbEntity
  8
PFD_View
100
AcDbSpline
210
0
220
0
230
1
 70
8
 71
2
 72
6
 73
3
 74
0
 40
0.000000000
 40
0.000000000
 40
0.000000000
 40
1.000000000
 40
1.000000000
 40
1.000000000
 10
303.475654070
 20
146.020348887
 30
0.000000000
 10
303.475654070
 20
147.751271852
 30
0.000000000
 10
303.072492733
 20
148.320403393
 30
0.000000000
  0
SPLINE
  5
A7F
330
A02
100
AcDbEntity
  8
PFD_View
100
AcDbSpline
210
0
220
0
230
1
 70
8
 71
2
 72
6
 73
3
 74
0
 40
0.000000000
 40
0.000000000
 40
0.000000000
 40
1.000000000
 40
1.000000000
 40
1.000000000
 10
303.072492733
 20
143.725063640
 30
0.000000000
 10
303.475654070
 20
144.298964440
 30
0.000000000
 10
303.475654070
 20
146.020348887
 30
0.000000000
  0
SPLINE
  5
A80
330
A02
100
AcDbEntity
  8
PFD_View
100
AcDbSpline
210
0
220
0
230
1
 70
8
 71
2
 72
6
 73
3
 74
0
 40
0.000000000
 40
0.000000000
 40
0.000000000
 40
1.000000000
 40
1.000000000
 40
1.000000000
 10
302.078261265
 20
143.151162841
 30
0.000000000
 10
302.669649346
 20
143.151162841
 30
0.000000000
 10
303.072492733
 20
143.725063640
 30
0.000000000
  0
SPLINE
  5
A81
330
A02
100
AcDbEntity
  8
PFD_View
100
AcDbSpline
210
0
220
0
230
1
 70
8
 71
2
 72
6
 73
3
 74
0
 40
0.000000000
 40
0.000000000
 40
0.000000000
 40
1.000000000
 40
1.000000000
 40
1.000000000
 10
301.083711846
 20
143.722520035
 30
0.000000000
 10
301.486873183
 20
143.151162841
 30
0.000000000
 10
302.078261265
 20
143.151162841
 30
0.000000000
  0
SPLINE
  5
A82
330
A02
100
AcDbEntity
  8
PFD_View
100
AcDbSpline
210
0
220
0
230
1
 70
8
 71
2
 72
6
 73
3
 74
0
 40
0.000000000
 40
0.000000000
 40
0.000000000
 40
1.000000000
 40
1.000000000
 40
1.000000000
 10
305.231695131
 20
146.017805283
 30
0.000000000
 10
305.231695131
 20
147.261945908
 30
0.000000000
 10
305.486691497
 20
148.020258044
 30
0.000000000
  0
SPLINE
  5
A83
330
A02
100
AcDbEntity
  8
PFD_View
100
AcDbSpline
210
0
220
0
230
1
 70
8
 71
2
 72
6
 73
3
 74
0
 40
0.000000000
 40
0.000000000
 40
0.000000000
 40
1.000000000
 40
1.000000000
 40
1.000000000
 10
305.923237645
 20
143.166106518
 30
0.000000000
 10
305.231695131
 20
144.041742419
 30
0.000000000
 10
305.231695131
 20
146.017805283
 30
0.000000000
  0
SPLINE
  5
A84
330
A02
100
AcDbEntity
  8
PFD_View
100
AcDbSpline
210
0
220
0
230
1
 70
8
 71
2
 72
6
 73
3
 74
0
 40
0.000000000
 40
0.000000000
 40
0.000000000
 40
1.000000000
 40
1.000000000
 40
1.000000000
 10
307.511400799
 20
142.438953538
 30
0.000000000
 10
306.500317951
 20
142.438953538
 30
0.000000000
 10
305.923237645
 20
143.166106518
 30
0.000000000
  0
SPLINE
  5
A85
330
A02
100
AcDbEntity
  8
PFD_View
100
AcDbSpline
210
0
220
0
230
1
 70
8
 71
2
 72
6
 73
3
 74
0
 40
0.000000000
 40
0.000000000
 40
0.000000000
 40
1.000000000
 40
1.000000000
 40
1.000000000
 10
308.782249273
 20
142.852607245
 30
0.000000000
 10
308.279251453
 20
142.438953538
 30
0.000000000
 10
307.511400799
 20
142.438953538
 30
0.000000000
  0
SPLINE
  5
A86
330
A02
100
AcDbEntity
  8
PFD_View
100
AcDbSpline
210
0
220
0
230
1
 70
8
 71
2
 72
6
 73
3
 74
0
 40
0.000000000
 40
0.000000000
 40
0.000000000
 40
1.000000000
 40
1.000000000
 40
1.000000000
 10
309.538335756
 20
144.024891038
 30
0.000000000
 10
309.285565044
 20
143.266578902
 30
0.000000000
 10
308.782249273
 20
142.852607245
 30
0.000000000
  0
SPLINE
  5
A87
330
A02
100
AcDbEntity
  8
PFD_View
100
AcDbSpline
210
0
220
0
230
1
 70
8
 71
2
 72
6
 73
3
 74
0
 40
0.000000000
 40
0.000000000
 40
0.000000000
 40
1.000000000
 40
1.000000000
 40
1.000000000
 10
309.791106468
 20
146.017805283
 30
0.000000000
 10
309.791106468
 20
144.783521126
 30
0.000000000
 10
309.538335756
 20
144.024891038
 30
0.000000000
  0
SPLINE
  5
A88
330
A02
100
AcDbEntity
  8
PFD_View
100
AcDbSpline
210
0
220
0
230
1
 70
8
 71
2
 72
6
 73
3
 74
0
 40
0.000000000
 40
0.000000000
 40
0.000000000
 40
1.000000000
 40
1.000000000
 40
1.000000000
 10
309.633720930
 20
147.675917565
 30
0.000000000
 10
309.791106468
 20
147.061001140
 30
0.000000000
 10
309.791106468
 20
146.017805283
 30
0.000000000
  0
SPLINE
  5
A89
330
A02
100
AcDbEntity
  8
PFD_View
100
AcDbSpline
210
0
220
0
230
1
 70
8
 71
2
 72
6
 73
3
 74
0
 40
0.000000000
 40
0.000000000
 40
0.000000000
 40
1.000000000
 40
1.000000000
 40
1.000000000
 10
309.199718387
 20
148.718795472
 30
0.000000000
 10
309.476335392
 20
148.290833989
 30
0.000000000
 10
309.633720930
 20
147.675917565
 30
0.000000000
  0
SPLINE
  5
A8A
330
A02
100
AcDbEntity
  8
PFD_View
100
AcDbSpline
210
0
220
0
230
1
 70
8
 71
2
 72
6
 73
3
 74
0
 40
0.000000000
 40
0.000000000
 40
0.000000000
 40
1.000000000
 40
1.000000000
 40
1.000000000
 10
308.498637355
 20
149.374409570
 30
0.000000000
 10
308.923101381
 20
149.147074905
 30
0.000000000
 10
309.199718387
 20
148.718795472
 30
0.000000000
  0
SPLINE
  5
A8B
330
A02
100
AcDbEntity
  8
PFD_View
100
AcDbSpline
210
0
220
0
230
1
 70
8
 71
2
 72
6
 73
3
 74
0
 40
0.000000000
 40
0.000000000
 40
0.000000000
 40
1.000000000
 40
1.000000000
 40
1.000000000
 10
307.511400799
 20
149.601744236
 30
0.000000000
 10
308.074173328
 20
149.601744236
 30
0.000000000
 10
308.498637355
 20
149.374409570
 30
0.000000000
  0
SPLINE
  5
A8C
330
A02
100
AcDbEntity
  8
PFD_View
100
AcDbSpline
210
0
220
0
230
1
 70
8
 71
2
 72
6
 73
3
 74
0
 40
0.000000000
 40
0.000000000
 40
0.000000000
 40
1.000000000
 40
1.000000000
 40
1.000000000
 10
306.245003634
 20
149.190316184
 30
0.000000000
 10
306.748319404
 20
149.601744236
 30
0.000000000
 10
307.511400799
 20
149.601744236
 30
0.000000000
  0
SPLINE
  5
A8D
330
A02
100
AcDbEntity
  8
PFD_View
100
AcDbSpline
210
0
220
0
230
1
 70
8
 71
2
 72
6
 73
3
 74
0
 40
0.000000000
 40
0.000000000
 40
0.000000000
 40
1.000000000
 40
1.000000000
 40
1.000000000
 10
305.486691497
 20
148.020258044
 30
0.000000000
 10
305.742005814
 20
148.778888131
 30
0.000000000
 10
306.245003634
 20
149.190316184
 30
0.000000000
  0
SPLINE
  5
A8E
330
A02
100
AcDbEntity
  8
PFD_View
100
AcDbSpline
210
0
220
0
230
1
 70
8
 71
2
 72
6
 73
3
 74
0
 40
0.000000000
 40
0.000000000
 40
0.000000000
 40
1.000000000
 40
1.000000000
 40
1.000000000
 10
306.114007994
 20
146.020348887
 30
0.000000000
 10
306.114007994
 20
144.294195181
 30
0.000000000
 10
306.516851381
 20
143.722520035
 30
0.000000000
  0
SPLINE
  5
A8F
330
A02
100
AcDbEntity
  8
PFD_View
100
AcDbSpline
210
0
220
0
230
1
 70
8
 71
2
 72
6
 73
3
 74
0
 40
0.000000000
 40
0.000000000
 40
0.000000000
 40
1.000000000
 40
1.000000000
 40
1.000000000
 10
306.557549055
 20
148.387490966
 30
0.000000000
 10
306.114007994
 20
147.746502594
 30
0.000000000
 10
306.114007994
 20
146.020348887
 30
0.000000000
  0
SPLINE
  5
A90
330
A02
100
AcDbEntity
  8
PFD_View
100
AcDbSpline
210
0
220
0
230
1
 70
8
 71
2
 72
6
 73
3
 74
0
 40
0.000000000
 40
0.000000000
 40
0.000000000
 40
1.000000000
 40
1.000000000
 40
1.000000000
 10
307.501862282
 20
148.889534934
 30
0.000000000
 10
306.910474201
 20
148.889534934
 30
0.000000000
 10
306.557549055
 20
148.387490966
 30
0.000000000
  0
SPLINE
  5
A91
330
A02
100
AcDbEntity
  8
PFD_View
100
AcDbSpline
210
0
220
0
230
1
 70
8
 71
2
 72
6
 73
3
 74
0
 40
0.000000000
 40
0.000000000
 40
0.000000000
 40
1.000000000
 40
1.000000000
 40
1.000000000
 10
308.505632267
 20
148.320403393
 30
0.000000000
 10
308.102788881
 20
148.889534934
 30
0.000000000
 10
307.501862282
 20
148.889534934
 30
0.000000000
  0
SPLINE
  5
A92
330
A02
100
AcDbEntity
  8
PFD_View
100
AcDbSpline
210
0
220
0
230
1
 70
8
 71
2
 72
6
 73
3
 74
0
 40
0.000000000
 40
0.000000000
 40
0.000000000
 40
1.000000000
 40
1.000000000
 40
1.000000000
 10
308.908793605
 20
146.020348887
 30
0.000000000
 10
308.908793605
 20
147.751271852
 30
0.000000000
 10
308.505632267
 20
148.320403393
 30
0.000000000
  0
SPLINE
  5
A93
330
A02
100
AcDbEntity
  8
PFD_View
100
AcDbSpline
210
0
220
0
230
1
 70
8
 71
2
 72
6
 73
3
 74
0
 40
0.000000000
 40
0.000000000
 40
0.000000000
 40
1.000000000
 40
1.000000000
 40
1.000000000
 10
308.505632267
 20
143.725063640
 30
0.000000000
 10
308.908793605
 20
144.298964440
 30
0.000000000
 10
308.908793605
 20
146.020348887
 30
0.000000000
  0
SPLINE
  5
A94
330
A02
100
AcDbEntity
  8
PFD_View
100
AcDbSpline
210
0
220
0
230
1
 70
8
 71
2
 72
6
 73
3
 74
0
 40
0.000000000
 40
0.000000000
 40
0.000000000
 40
1.000000000
 40
1.000000000
 40
1.000000000
 10
307.511400799
 20
143.151162841
 30
0.000000000
 10
308.102788881
 20
143.151162841
 30
0.000000000
 10
308.505632267
 20
143.725063640
 30
0.000000000
  0
SPLINE
  5
A95
330
A02
100
AcDbEntity
  8
PFD_View
100
AcDbSpline
210
0
220
0
230
1
 70
8
 71
2
 72
6
 73
3
 74
0
 40
0.000000000
 40
0.000000000
 40
0.000000000
 40
1.000000000
 40
1.000000000
 40
1.000000000
 10
306.516851381
 20
143.722520035
 30
0.000000000
 10
306.920012718
 20
143.151162841
 30
0.000000000
 10
307.511400799
 20
143.151162841
 30
0.000000000
  0
LINE
  5
A96
330
A02
100
AcDbEntity
  8
PFD_View
100
AcDbLine
 10
313.898392078
 20
142.561046562
 30
0.000000000
 11
313.039925509
 21
142.561046562
 31
0.000000000
  0
LINE
  5
A97
330
A02
100
AcDbEntity
  8
PFD_View
100
AcDbLine
 10
313.898392078
 20
149.601744236
 30
0.000000000
 11
313.898392078
 21
142.561046562
 31
0.000000000
  0
LINE
  5
A98
330
A02
100
AcDbEntity
  8
PFD_View
100
AcDbLine
 10
313.345158067
 20
149.601744236
 30
0.000000000
 11
313.898392078
 21
149.601744236
 31
0.000000000
  0
SPLINE
  5
A99
330
A02
100
AcDbEntity
  8
PFD_View
100
AcDbSpline
210
0
220
0
230
1
 70
8
 71
2
 72
6
 73
3
 74
0
 40
0.000000000
 40
0.000000000
 40
0.000000000
 40
1.000000000
 40
1.000000000
 40
1.000000000
 10
312.582076672
 20
148.664107972
 30
0.000000000
 10
313.121002907
 20
149.147392855
 30
0.000000000
 10
313.345158067
 20
149.601744236
 30
0.000000000
  0
SPLINE
  5
A9A
330
A02
100
AcDbEntity
  8
PFD_View
100
AcDbSpline
210
0
220
0
230
1
 70
8
 71
2
 72
6
 73
3
 74
0
 40
0.000000000
 40
0.000000000
 40
0.000000000
 40
1.000000000
 40
1.000000000
 40
1.000000000
 10
311.322992369
 20
147.841569817
 30
0.000000000
 10
312.043150436
 20
148.181141038
 30
0.000000000
 10
312.582076672
 20
148.664107972
 30
0.000000000
  0
LINE
  5
A9B
330
A02
100
AcDbEntity
  8
PFD_View
100
AcDbLine
 10
311.322992369
 20
147.009175195
 30
0.000000000
 11
311.322992369
 21
147.841569817
 31
0.000000000
  0
SPLINE
  5
A9C
330
A02
100
AcDbEntity
  8
PFD_View
100
AcDbSpline
210
0
220
0
230
1
 70
8
 71
2
 72
6
 73
3
 74
0
 40
0.000000000
 40
0.000000000
 40
0.000000000
 40
1.000000000
 40
1.000000000
 40
1.000000000
 10
312.226607922
 20
147.453988059
 30
0.000000000
 10
311.723610102
 20
147.157340166
 30
0.000000000
 10
311.322992369
 20
147.009175195
 30
0.000000000
  0
SPLINE
  5
A9D
330
A02
100
AcDbEntity
  8
PFD_View
100
AcDbSpline
210
0
220
0
230
1
 70
8
 71
2
 72
6
 73
3
 74
0
 40
0.000000000
 40
0.000000000
 40
0.000000000
 40
1.000000000
 40
1.000000000
 40
1.000000000
 10
313.039925509
 20
148.047283844
 30
0.000000000
 10
312.729923692
 20
147.750635951
 30
0.000000000
 10
312.226607922
 20
147.453988059
 30
0.000000000
  0
LINE
  5
A9E
330
A02
100
AcDbEntity
  8
PFD_View
100
AcDbLine
 10
313.039925509
 20
142.561046562
 30
0.000000000
 11
313.039925509
 21
148.047283844
 31
0.000000000
  0
LINE
  5
A9F
330
A02
100
AcDbEntity
  8
PFD_View
100
AcDbLine
 10
188.208939053
 20
92.561046562
 30
0.000000000
 11
185.500000100
 21
99.561046562
 31
0.000000000
  0
LINE
  5
AA0
330
A02
100
AcDbEntity
  8
PFD_View
100
AcDbLine
 10
189.158021539
 20
92.561046562
 30
0.000000000
 11
188.208939053
 21
92.561046562
 31
0.000000000
  0
LINE
  5
AA1
330
A02
100
AcDbEntity
  8
PFD_View
100
AcDbLine
 10
191.895576045
 20
99.561046562
 30
0.000000000
 11
189.158021539
 21
92.561046562
 31
0.000000000
  0
LINE
  5
AA2
330
A02
100
AcDbEntity
  8
PFD_View
100
AcDbLine
 10
190.951262818
 20
99.561046562
 30
0.000000000
 11
191.895576045
 21
99.561046562
 31
0.000000000
  0
LINE
  5
AA3
330
A02
100
AcDbEntity
  8
PFD_View
100
AcDbLine
 10
189.062636365
 20
94.471293655
 30
0.000000000
 11
190.951262818
 21
99.561046562
 31
0.000000000
  0
SPLINE
  5
AA4
330
A02
100
AcDbEntity
  8
PFD_View
100
AcDbSpline
210
0
220
0
230
1
 70
8
 71
2
 72
6
 73
3
 74
0
 40
0.000000000
 40
0.000000000
 40
0.000000000
 40
1.000000000
 40
1.000000000
 40
1.000000000
 10
188.685864926
 20
93.324127957
 30
0.000000000
 10
188.848019722
 20
93.897710806
 30
0.000000000
 10
189.062636365
 20
94.471293655
 30
0.000000000
  0
SPLINE
  5
AA5
330
A02
100
AcDbEntity
  8
PFD_View
100
AcDbSpline
210
0
220
0
230
1
 70
8
 71
2
 72
6
 73
3
 74
0
 40
0.000000000
 40
0.000000000
 40
0.000000000
 40
1.000000000
 40
1.000000000
 40
1.000000000
 10
188.318632004
 20
94.471293655
 30
0.000000000
 10
188.538017905
 20
93.859556736
 30
0.000000000
 10
188.685864926
 20
93.324127957
 30
0.000000000
  0
LINE
  5
AA6
330
A02
100
AcDbEntity
  8
PFD_View
100
AcDbLine
 10
186.501544431
 20
99.561046562
 30
0.000000000
 11
188.318632004
 21
94.471293655
 31
0.000000000
  0
LINE
  5
AA7
330
A02
100
AcDbEntity
  8
PFD_View
100
AcDbLine
 10
185.500000100
 20
99.561046562
 30
0.000000000
 11
186.501544431
 21
99.561046562
 31
0.000000000
  0
LINE
  5
AA8
330
A02
100
AcDbEntity
  8
PFD_View
100
AcDbLine
 10
191.749636728
 20
94.656976794
 30
0.000000000
 11
191.749636728
 21
95.511627957
 31
0.000000000
  0
LINE
  5
AA9
330
A02
100
AcDbEntity
  8
PFD_View
100
AcDbLine
 10
194.387036801
 20
94.656976794
 30
0.000000000
 11
191.749636728
 21
94.656976794
 31
0.000000000
  0
LINE
  5
AAA
330
A02
100
AcDbEntity
  8
PFD_View
100
AcDbLine
 10
194.387036801
 20
95.511627957
 30
0.000000000
 11
194.387036801
 21
94.656976794
 31
0.000000000
  0
LINE
  5
AAB
330
A02
100
AcDbEntity
  8
PFD_View
100
AcDbLine
 10
191.749636728
 20
95.511627957
 30
0.000000000
 11
194.387036801
 21
95.511627957
 31
0.000000000
  0
LINE
  5
AAC
330
A02
100
AcDbEntity
  8
PFD_View
100
AcDbLine
 10
198.334393269
 20
92.561046562
 30
0.000000000
 11
197.475926699
 21
92.561046562
 31
0.000000000
  0
LINE
  5
AAD
330
A02
100
AcDbEntity
  8
PFD_View
100
AcDbLine
 10
198.334393269
 20
99.601744236
 30
0.000000000
 11
198.334393269
 21
92.561046562
 31
0.000000000
  0
LINE
  5
AAE
330
A02
100
AcDbEntity
  8
PFD_View
100
AcDbLine
 10
197.781159257
 20
99.601744236
 30
0.000000000
 11
198.334393269
 21
99.601744236
 31
0.000000000
  0
SPLINE
  5
AAF
330
A02
100
AcDbEntity
  8
PFD_View
100
AcDbSpline
210
0
220
0
230
1
 70
8
 71
2
 72
6
 73
3
 74
0
 40
0.000000000
 40
0.000000000
 40
0.000000000
 40
1.000000000
 40
1.000000000
 40
1.000000000
 10
197.018077862
 20
98.664107972
 30
0.000000000
 10
197.557004097
 20
99.147392855
 30
0.000000000
 10
197.781159257
 20
99.601744236
 30
0.000000000
  0
SPLINE
  5
AB0
330
A02
100
AcDbEntity
  8
PFD_View
100
AcDbSpline
210
0
220
0
230
1
 70
8
 71
2
 72
6
 73
3
 74
0
 40
0.000000000
 40
0.000000000
 40
0.000000000
 40
1.000000000
 40
1.000000000
 40
1.000000000
 10
195.758993559
 20
97.841569817
 30
0.000000000
 10
196.479151626
 20
98.181141038
 30
0.000000000
 10
197.018077862
 20
98.664107972
 30
0.000000000
  0
LINE
  5
AB1
330
A02
100
AcDbEntity
  8
PFD_View
100
AcDbLine
 10
195.758993559
 20
97.009175195
 30
0.000000000
 11
195.758993559
 21
97.841569817
 31
0.000000000
  0
SPLINE
  5
AB2
330
A02
100
AcDbEntity
  8
PFD_View
100
AcDbSpline
210
0
220
0
230
1
 70
8
 71
2
 72
6
 73
3
 74
0
 40
0.000000000
 40
0.000000000
 40
0.000000000
 40
1.000000000
 40
1.000000000
 40
1.000000000
 10
196.662609112
 20
97.453988059
 30
0.000000000
 10
196.159611292
 20
97.157340166
 30
0.000000000
 10
195.758993559
 20
97.009175195
 30
0.000000000
  0
SPLINE
  5
AB3
330
A02
100
AcDbEntity
  8
PFD_View
100
AcDbSpline
210
0
220
0
230
1
 70
8
 71
2
 72
6
 73
3
 74
0
 40
0.000000000
 40
0.000000000
 40
0.000000000
 40
1.000000000
 40
1.000000000
 40
1.000000000
 10
197.475926699
 20
98.047283844
 30
0.000000000
 10
197.165924882
 20
97.750635951
 30
0.000000000
 10
196.662609112
 20
97.453988059
 30
0.000000000
  0
LINE
  5
AB4
330
A02
100
AcDbEntity
  8
PFD_View
100
AcDbLine
 10
197.475926699
 20
92.561046562
 30
0.000000000
 11
197.475926699
 21
98.047283844
 31
0.000000000
  0
SPLINE
  5
AB5
330
A02
100
AcDbEntity
  8
PFD_View
100
AcDbSpline
210
0
220
0
230
1
 70
8
 71
2
 72
6
 73
3
 74
0
 40
0.000000000
 40
0.000000000
 40
0.000000000
 40
1.000000000
 40
1.000000000
 40
1.000000000
 10
200.533975391
 20
96.017805283
 30
0.000000000
 10
200.533975391
 20
97.261945908
 30
0.000000000
 10
200.788971757
 20
98.020258044
 30
0.000000000
  0
SPLINE
  5
AB6
330
A02
100
AcDbEntity
  8
PFD_View
100
AcDbSpline
210
0
220
0
230
1
 70
8
 71
2
 72
6
 73
3
 74
0
 40
0.000000000
 40
0.000000000
 40
0.000000000
 40
1.000000000
 40
1.000000000
 40
1.000000000
 10
201.225517905
 20
93.166106518
 30
0.000000000
 10
200.533975391
 20
94.041742419
 30
0.000000000
 10
200.533975391
 20
96.017805283
 30
0.000000000
  0
SPLINE
  5
AB7
330
A02
100
AcDbEntity
  8
PFD_View
100
AcDbSpline
210
0
220
0
230
1
 70
8
 71
2
 72
6
 73
3
 74
0
 40
0.000000000
 40
0.000000000
 40
0.000000000
 40
1.000000000
 40
1.000000000
 40
1.000000000
 10
202.813681059
 20
92.438953538
 30
0.000000000
 10
201.802598210
 20
92.438953538
 30
0.000000000
 10
201.225517905
 20
93.166106518
 30
0.000000000
  0
SPLINE
  5
AB8
330
A02
100
AcDbEntity
  8
PFD_View
100
AcDbSpline
210
0
220
0
230
1
 70
8
 71
2
 72
6
 73
3
 74
0
 40
0.000000000
 40
0.000000000
 40
0.000000000
 40
1.000000000
 40
1.000000000
 40
1.000000000
 10
204.084529533
 20
92.852607245
 30
0.000000000
 10
203.581531713
 20
92.438953538
 30
0.000000000
 10
202.813681059
 20
92.438953538
 30
0.000000000
  0
SPLINE
  5
AB9
330
A02
100
AcDbEntity
  8
PFD_View
100
AcDbSpline
210
0
220
0
230
1
 70
8
 71
2
 72
6
 73
3
 74
0
 40
0.000000000
 40
0.000000000
 40
0.000000000
 40
1.000000000
 40
1.000000000
 40
1.000000000
 10
204.840616016
 20
94.024891038
 30
0.000000000
 10
204.587845303
 20
93.266578902
 30
0.000000000
 10
204.084529533
 20
92.852607245
 30
0.000000000
  0
SPLINE
  5
ABA
330
A02
100
AcDbEntity
  8
PFD_View
100
AcDbSpline
210
0
220
0
230
1
 70
8
 71
2
 72
6
 73
3
 74
0
 40
0.000000000
 40
0.000000000
 40
0.000000000
 40
1.000000000
 40
1.000000000
 40
1.000000000
 10
205.093386728
 20
96.017805283
 30
0.000000000
 10
205.093386728
 20
94.783521126
 30
0.000000000
 10
204.840616016
 20
94.024891038
 30
0.000000000
  0
SPLINE
  5
ABB
330
A02
100
AcDbEntity
  8
PFD_View
100
AcDbSpline
210
0
220
0
230
1
 70
8
 71
2
 72
6
 73
3
 74
0
 40
0.000000000
 40
0.000000000
 40
0.000000000
 40
1.000000000
 40
1.000000000
 40
1.000000000
 10
204.936001190
 20
97.675917565
 30
0.000000000
 10
205.093386728
 20
97.061001140
 30
0.000000000
 10
205.093386728
 20
96.017805283
 30
0.000000000
  0
SPLINE
  5
ABC
330
A02
100
AcDbEntity
  8
PFD_View
100
AcDbSpline
210
0
220
0
230
1
 70
8
 71
2
 72
6
 73
3
 74
0
 40
0.000000000
 40
0.000000000
 40
0.000000000
 40
1.000000000
 40
1.000000000
 40
1.000000000
 10
204.501998647
 20
98.718795472
 30
0.000000000
 10
204.778615652
 20
98.290833989
 30
0.000000000
 10
204.936001190
 20
97.675917565
 30
0.000000000
  0
SPLINE
  5
ABD
330
A02
100
AcDbEntity
  8
PFD_View
100
AcDbSpline
210
0
220
0
230
1
 70
8
 71
2
 72
6
 73
3
 74
0
 40
0.000000000
 40
0.000000000
 40
0.000000000
 40
1.000000000
 40
1.000000000
 40
1.000000000
 10
203.800917615
 20
99.374409570
 30
0.000000000
 10
204.225381641
 20
99.147074905
 30
0.000000000
 10
204.501998647
 20
98.718795472
 30
0.000000000
  0
SPLINE
  5
ABE
330
A02
100
AcDbEntity
  8
PFD_View
100
AcDbSpline
210
0
220
0
230
1
 70
8
 71
2
 72
6
 73
3
 74
0
 40
0.000000000
 40
0.000000000
 40
0.000000000
 40
1.000000000
 40
1.000000000
 40
1.000000000
 10
202.813681059
 20
99.601744236
 30
0.000000000
 10
203.376453588
 20
99.601744236
 30
0.000000000
 10
203.800917615
 20
99.374409570
 30
0.000000000
  0
SPLINE
  5
ABF
330
A02
100
AcDbEntity
  8
PFD_View
100
AcDbSpline
210
0
220
0
230
1
 70
8
 71
2
 72
6
 73
3
 74
0
 40
0.000000000
 40
0.000000000
 40
0.000000000
 40
1.000000000
 40
1.000000000
 40
1.000000000
 10
201.547283894
 20
99.190316184
 30
0.000000000
 10
202.050599664
 20
99.601744236
 30
0.000000000
 10
202.813681059
 20
99.601744236
 30
0.000000000
  0
SPLINE
  5
AC0
330
A02
100
AcDbEntity
  8
PFD_View
100
AcDbSpline
210
0
220
0
230
1
 70
8
 71
2
 72
6
 73
3
 74
0
 40
0.000000000
 40
0.000000000
 40
0.000000000
 40
1.000000000
 40
1.000000000
 40
1.000000000
 10
200.788971757
 20
98.020258044
 30
0.000000000
 10
201.044286074
 20
98.778888131
 30
0.000000000
 10
201.547283894
 20
99.190316184
 30
0.000000000
  0
SPLINE
  5
AC1
330
A02
100
AcDbEntity
  8
PFD_View
100
AcDbSpline
210
0
220
0
230
1
 70
8
 71
2
 72
6
 73
3
 74
0
 40
0.000000000
 40
0.000000000
 40
0.000000000
 40
1.000000000
 40
1.000000000
 40
1.000000000
 10
201.416288254
 20
96.020348887
 30
0.000000000
 10
201.416288254
 20
94.294195181
 30
0.000000000
 10
201.819131641
 20
93.722520035
 30
0.000000000
  0
SPLINE
  5
AC2
330
A02
100
AcDbEntity
  8
PFD_View
100
AcDbSpline
210
0
220
0
230
1
 70
8
 71
2
 72
6
 73
3
 74
0
 40
0.000000000
 40
0.000000000
 40
0.000000000
 40
1.000000000
 40
1.000000000
 40
1.000000000
 10
201.859829315
 20
98.387490966
 30
0.000000000
 10
201.416288254
 20
97.746502594
 30
0.000000000
 10
201.416288254
 20
96.020348887
 30
0.000000000
  0
SPLINE
  5
AC3
330
A02
100
AcDbEntity
  8
PFD_View
100
AcDbSpline
210
0
220
0
230
1
 70
8
 71
2
 72
6
 73
3
 74
0
 40
0.000000000
 40
0.000000000
 40
0.000000000
 40
1.000000000
 40
1.000000000
 40
1.000000000
 10
202.804142542
 20
98.889534934
 30
0.000000000
 10
202.212754460
 20
98.889534934
 30
0.000000000
 10
201.859829315
 20
98.387490966
 30
0.000000000
  0
SPLINE
  5
AC4
330
A02
100
AcDbEntity
  8
PFD_View
100
AcDbSpline
210
0
220
0
230
1
 70
8
 71
2
 72
6
 73
3
 74
0
 40
0.000000000
 40
0.000000000
 40
0.000000000
 40
1.000000000
 40
1.000000000
 40
1.000000000
 10
203.807912527
 20
98.320403393
 30
0.000000000
 10
203.405069141
 20
98.889534934
 30
0.000000000
 10
202.804142542
 20
98.889534934
 30
0.000000000
  0
SPLINE
  5
AC5
330
A02
100
AcDbEntity
  8
PFD_View
100
AcDbSpline
210
0
220
0
230
1
 70
8
 71
2
 72
6
 73
3
 74
0
 40
0.000000000
 40
0.000000000
 40
0.000000000
 40
1.000000000
 40
1.000000000
 40
1.000000000
 10
204.211073865
 20
96.020348887
 30
0.000000000
 10
204.211073865
 20
97.751271852
 30
0.000000000
 10
203.807912527
 20
98.320403393
 30
0.000000000
  0
SPLINE
  5
AC6
330
A02
100
AcDbEntity
  8
PFD_View
100
AcDbSpline
210
0
220
0
230
1
 70
8
 71
2
 72
6
 73
3
 74
0
 40
0.000000000
 40
0.000000000
 40
0.000000000
 40
1.000000000
 40
1.000000000
 40
1.000000000
 10
203.807912527
 20
93.725063640
 30
0.000000000
 10
204.211073865
 20
94.298964440
 30
0.000000000
 10
204.211073865
 20
96.020348887
 30
0.000000000
  0
SPLINE
  5
AC7
330
A02
100
AcDbEntity
  8
PFD_View
100
AcDbSpline
210
0
220
0
230
1
 70
8
 71
2
 72
6
 73
3
 74
0
 40
0.000000000
 40
0.000000000
 40
0.000000000
 40
1.000000000
 40
1.000000000
 40
1.000000000
 10
202.813681059
 20
93.151162841
 30
0.000000000
 10
203.405069141
 20
93.151162841
 30
0.000000000
 10
203.807912527
 20
93.725063640
 30
0.000000000
  0
SPLINE
  5
AC8
330
A02
100
AcDbEntity
  8
PFD_View
100
AcDbSpline
210
0
220
0
230
1
 70
8
 71
2
 72
6
 73
3
 74
0
 40
0.000000000
 40
0.000000000
 40
0.000000000
 40
1.000000000
 40
1.000000000
 40
1.000000000
 10
201.819131641
 20
93.722520035
 30
0.000000000
 10
202.222292978
 20
93.151162841
 30
0.000000000
 10
202.813681059
 20
93.151162841
 30
0.000000000
  0
SPLINE
  5
AC9
330
A02
100
AcDbEntity
  8
PFD_View
100
AcDbSpline
210
0
220
0
230
1
 70
8
 71
2
 72
6
 73
3
 74
0
 40
0.000000000
 40
0.000000000
 40
0.000000000
 40
1.000000000
 40
1.000000000
 40
1.000000000
 10
205.967114926
 20
96.017805283
 30
0.000000000
 10
205.967114926
 20
97.261945908
 30
0.000000000
 10
206.222111292
 20
98.020258044
 30
0.000000000
  0
SPLINE
  5
ACA
330
A02
100
AcDbEntity
  8
PFD_View
100
AcDbSpline
210
0
220
0
230
1
 70
8
 71
2
 72
6
 73
3
 74
0
 40
0.000000000
 40
0.000000000
 40
0.000000000
 40
1.000000000
 40
1.000000000
 40
1.000000000
 10
206.658657440
 20
93.166106518
 30
0.000000000
 10
205.967114926
 20
94.041742419
 30
0.000000000
 10
205.967114926
 20
96.017805283
 30
0.000000000
  0
SPLINE
  5
ACB
330
A02
100
AcDbEntity
  8
PFD_View
100
AcDbSpline
210
0
220
0
230
1
 70
8
 71
2
 72
6
 73
3
 74
0
 40
0.000000000
 40
0.000000000
 40
0.000000000
 40
1.000000000
 40
1.000000000
 40
1.000000000
 10
208.246820594
 20
92.438953538
 30
0.000000000
 10
207.235737745
 20
92.438953538
 30
0.000000000
 10
206.658657440
 20
93.166106518
 30
0.000000000
  0
SPLINE
  5
ACC
330
A02
100
AcDbEntity
  8
PFD_View
100
AcDbSpline
210
0
220
0
230
1
 70
8
 71
2
 72
6
 73
3
 74
0
 40
0.000000000
 40
0.000000000
 40
0.000000000
 40
1.000000000
 40
1.000000000
 40
1.000000000
 10
209.517669068
 20
92.852607245
 30
0.000000000
 10
209.014671248
 20
92.438953538
 30
0.000000000
 10
208.246820594
 20
92.438953538
 30
0.000000000
  0
SPLINE
  5
ACD
330
A02
100
AcDbEntity
  8
PFD_View
100
AcDbSpline
210
0
220
0
230
1
 70
8
 71
2
 72
6
 73
3
 74
0
 40
0.000000000
 40
0.000000000
 40
0.000000000
 40
1.000000000
 40
1.000000000
 40
1.000000000
 10
210.273755551
 20
94.024891038
 30
0.000000000
 10
210.020984838
 20
93.266578902
 30
0.000000000
 10
209.517669068
 20
92.852607245
 30
0.000000000
  0
SPLINE
  5
ACE
330
A02
100
AcDbEntity
  8
PFD_View
100
AcDbSpline
210
0
220
0
230
1
 70
8
 71
2
 72
6
 73
3
 74
0
 40
0.000000000
 40
0.000000000
 40
0.000000000
 40
1.000000000
 40
1.000000000
 40
1.000000000
 10
210.526526263
 20
96.017805283
 30
0.000000000
 10
210.526526263
 20
94.783521126
 30
0.000000000
 10
210.273755551
 20
94.024891038
 30
0.000000000
  0
SPLINE
  5
ACF
330
A02
100
AcDbEntity
  8
PFD_View
100
AcDbSpline
210
0
220
0
230
1
 70
8
 71
2
 72
6
 73
3
 74
0
 40
0.000000000
 40
0.000000000
 40
0.000000000
 40
1.000000000
 40
1.000000000
 40
1.000000000
 10
210.369140725
 20
97.675917565
 30
0.000000000
 10
210.526526263
 20
97.061001140
 30
0.000000000
 10
210.526526263
 20
96.017805283
 30
0.000000000
  0
SPLINE
  5
AD0
330
A02
100
AcDbEntity
  8
PFD_View
100
AcDbSpline
210
0
220
0
230
1
 70
8
 71
2
 72
6
 73
3
 74
0
 40
0.000000000
 40
0.000000000
 40
0.000000000
 40
1.000000000
 40
1.000000000
 40
1.000000000
 10
209.935138181
 20
98.718795472
 30
0.000000000
 10
210.211755187
 20
98.290833989
 30
0.000000000
 10
210.369140725
 20
97.675917565
 30
0.000000000
  0
SPLINE
  5
AD1
330
A02
100
AcDbEntity
  8
PFD_View
100
AcDbSpline
210
0
220
0
230
1
 70
8
 71
2
 72
6
 73
3
 74
0
 40
0.000000000
 40
0.000000000
 40
0.000000000
 40
1.000000000
 40
1.000000000
 40
1.000000000
 10
209.234057149
 20
99.374409570
 30
0.000000000
 10
209.658521176
 20
99.147074905
 30
0.000000000
 10
209.935138181
 20
98.718795472
 30
0.000000000
  0
SPLINE
  5
AD2
330
A02
100
AcDbEntity
  8
PFD_View
100
AcDbSpline
210
0
220
0
230
1
 70
8
 71
2
 72
6
 73
3
 74
0
 40
0.000000000
 40
0.000000000
 40
0.000000000
 40
1.000000000
 40
1.000000000
 40
1.000000000
 10
208.246820594
 20
99.601744236
 30
0.000000000
 10
208.809593123
 20
99.601744236
 30
0.000000000
 10
209.234057149
 20
99.374409570
 30
0.000000000
  0
SPLINE
  5
AD3
330
A02
100
AcDbEntity
  8
PFD_View
100
AcDbSpline
210
0
220
0
230
1
 70
8
 71
2
 72
6
 73
3
 74
0
 40
0.000000000
 40
0.000000000
 40
0.000000000
 40
1.000000000
 40
1.000000000
 40
1.000000000
 10
206.980423428
 20
99.190316184
 30
0.000000000
 10
207.483739199
 20
99.601744236
 30
0.000000000
 10
208.246820594
 20
99.601744236
 30
0.000000000
  0
SPLINE
  5
AD4
330
A02
100
AcDbEntity
  8
PFD_View
100
AcDbSpline
210
0
220
0
230
1
 70
8
 71
2
 72
6
 73
3
 74
0
 40
0.000000000
 40
0.000000000
 40
0.000000000
 40
1.000000000
 40
1.000000000
 40
1.000000000
 10
206.222111292
 20
98.020258044
 30
0.000000000
 10
206.477425609
 20
98.778888131
 30
0.000000000
 10
206.980423428
 20
99.190316184
 30
0.000000000
  0
SPLINE
  5
AD5
330
A02
100
AcDbEntity
  8
PFD_View
100
AcDbSpline
210
0
220
0
230
1
 70
8
 71
2
 72
6
 73
3
 74
0
 40
0.000000000
 40
0.000000000
 40
0.000000000
 40
1.000000000
 40
1.000000000
 40
1.000000000
 10
206.849427789
 20
96.020348887
 30
0.000000000
 10
206.849427789
 20
94.294195181
 30
0.000000000
 10
207.252271176
 20
93.722520035
 30
0.000000000
  0
SPLINE
  5
AD6
330
A02
100
AcDbEntity
  8
PFD_View
100
AcDbSpline
210
0
220
0
230
1
 70
8
 71
2
 72
6
 73
3
 74
0
 40
0.000000000
 40
0.000000000
 40
0.000000000
 40
1.000000000
 40
1.000000000
 40
1.000000000
 10
207.292968850
 20
98.387490966
 30
0.000000000
 10
206.849427789
 20
97.746502594
 30
0.000000000
 10
206.849427789
 20
96.020348887
 30
0.000000000
  0
SPLINE
  5
AD7
330
A02
100
AcDbEntity
  8
PFD_View
100
AcDbSpline
210
0
220
0
230
1
 70
8
 71
2
 72
6
 73
3
 74
0
 40
0.000000000
 40
0.000000000
 40
0.000000000
 40
1.000000000
 40
1.000000000
 40
1.000000000
 10
208.237282077
 20
98.889534934
 30
0.000000000
 10
207.645893995
 20
98.889534934
 30
0.000000000
 10
207.292968850
 20
98.387490966
 30
0.000000000
  0
SPLINE
  5
AD8
330
A02
100
AcDbEntity
  8
PFD_View
100
AcDbSpline
210
0
220
0
230
1
 70
8
 71
2
 72
6
 73
3
 74
0
 40
0.000000000
 40
0.000000000
 40
0.000000000
 40
1.000000000
 40
1.000000000
 40
1.000000000
 10
209.241052062
 20
98.320403393
 30
0.000000000
 10
208.838208676
 20
98.889534934
 30
0.000000000
 10
208.237282077
 20
98.889534934
 30
0.000000000
  0
SPLINE
  5
AD9
330
A02
100
AcDbEntity
  8
PFD_View
100
AcDbSpline
210
0
220
0
230
1
 70
8
 71
2
 72
6
 73
3
 74
0
 40
0.000000000
 40
0.000000000
 40
0.000000000
 40
1.000000000
 40
1.000000000
 40
1.000000000
 10
209.644213399
 20
96.020348887
 30
0.000000000
 10
209.644213399
 20
97.751271852
 30
0.000000000
 10
209.241052062
 20
98.320403393
 30
0.000000000
  0
SPLINE
  5
ADA
330
A02
100
AcDbEntity
  8
PFD_View
100
AcDbSpline
210
0
220
0
230
1
 70
8
 71
2
 72
6
 73
3
 74
0
 40
0.000000000
 40
0.000000000
 40
0.000000000
 40
1.000000000
 40
1.000000000
 40
1.000000000
 10
209.241052062
 20
93.725063640
 30
0.000000000
 10
209.644213399
 20
94.298964440
 30
0.000000000
 10
209.644213399
 20
96.020348887
 30
0.000000000
  0
SPLINE
  5
ADB
330
A02
100
AcDbEntity
  8
PFD_View
100
AcDbSpline
210
0
220
0
230
1
 70
8
 71
2
 72
6
 73
3
 74
0
 40
0.000000000
 40
0.000000000
 40
0.000000000
 40
1.000000000
 40
1.000000000
 40
1.000000000
 10
208.246820594
 20
93.151162841
 30
0.000000000
 10
208.838208676
 20
93.151162841
 30
0.000000000
 10
209.241052062
 20
93.725063640
 30
0.000000000
  0
SPLINE
  5
ADC
330
A02
100
AcDbEntity
  8
PFD_View
100
AcDbSpline
210
0
220
0
230
1
 70
8
 71
2
 72
6
 73
3
 74
0
 40
0.000000000
 40
0.000000000
 40
0.000000000
 40
1.000000000
 40
1.000000000
 40
1.000000000
 10
207.252271176
 20
93.722520035
 30
0.000000000
 10
207.655432513
 20
93.151162841
 30
0.000000000
 10
208.246820594
 20
93.151162841
 30
0.000000000
  0
LINE
  5
ADD
330
A02
100
AcDbEntity
  8
PFD_View
100
AcDbLine
 10
214.633811873
 20
92.561046562
 30
0.000000000
 11
213.775345303
 21
92.561046562
 31
0.000000000
  0
LINE
  5
ADE
330
A02
100
AcDbEntity
  8
PFD_View
100
AcDbLine
 10
214.633811873
 20
99.601744236
 30
0.000000000
 11
214.633811873
 21
92.561046562
 31
0.000000000
  0
LINE
  5
ADF
330
A02
100
AcDbEntity
  8
PFD_View
100
AcDbLine
 10
214.080577862
 20
99.601744236
 30
0.000000000
 11
214.633811873
 21
99.601744236
 31
0.000000000
  0
SPLINE
  5
AE0
330
A02
100
AcDbEntity
  8
PFD_View
100
AcDbSpline
210
0
220
0
230
1
 70
8
 71
2
 72
6
 73
3
 74
0
 40
0.000000000
 40
0.000000000
 40
0.000000000
 40
1.000000000
 40
1.000000000
 40
1.000000000
 10
213.317496466
 20
98.664107972
 30
0.000000000
 10
213.856422702
 20
99.147392855
 30
0.000000000
 10
214.080577862
 20
99.601744236
 30
0.000000000
  0
SPLINE
  5
AE1
330
A02
100
AcDbEntity
  8
PFD_View
100
AcDbSpline
210
0
220
0
230
1
 70
8
 71
2
 72
6
 73
3
 74
0
 40
0.000000000
 40
0.000000000
 40
0.000000000
 40
1.000000000
 40
1.000000000
 40
1.000000000
 10
212.058412164
 20
97.841569817
 30
0.000000000
 10
212.778570231
 20
98.181141038
 30
0.000000000
 10
213.317496466
 20
98.664107972
 30
0.000000000
  0
LINE
  5
AE2
330
A02
100
AcDbEntity
  8
PFD_View
100
AcDbLine
 10
212.058412164
 20
97.009175195
 30
0.000000000
 11
212.058412164
 21
97.841569817
 31
0.000000000
  0
SPLINE
  5
AE3
330
A02
100
AcDbEntity
  8
PFD_View
100
AcDbSpline
210
0
220
0
230
1
 70
8
 71
2
 72
6
 73
3
 74
0
 40
0.000000000
 40
0.000000000
 40
0.000000000
 40
1.000000000
 40
1.000000000
 40
1.000000000
 10
212.962027716
 20
97.453988059
 30
0.000000000
 10
212.459029897
 20
97.157340166
 30
0.000000000
 10
212.058412164
 20
97.009175195
 30
0.000000000
  0
SPLINE
  5
AE4
330
A02
100
AcDbEntity
  8
PFD_View
100
AcDbSpline
210
0
220
0
230
1
 70
8
 71
2
 72
6
 73
3
 74
0
 40
0.000000000
 40
0.000000000
 40
0.000000000
 40
1.000000000
 40
1.000000000
 40
1.000000000
 10
213.775345303
 20
98.047283844
 30
0.000000000
 10
213.465343487
 20
97.750635951
 30
0.000000000
 10
212.962027716
 20
97.453988059
 30
0.000000000
  0
LINE
  5
AE5
330
A02
100
AcDbEntity
  8
PFD_View
100
AcDbLine
 10
213.775345303
 20
92.561046562
 30
0.000000000
 11
213.775345303
 21
98.047283844
 31
0.000000000
  0
LINE
  5
AE6
330
A02
100
AcDbEntity
  8
PFD_View
100
AcDbLine
 10
189.500000100
 20
183.319767492
 30
0.000000000
 11
190.185751372
 21
183.383720980
 31
0.000000000
  0
SPLINE
  5
AE7
330
A02
100
AcDbEntity
  8
PFD_View
100
AcDbSpline
210
0
220
0
230
1
 70
8
 71
2
 72
6
 73
3
 74
0
 40
0.000000000
 40
0.000000000
 40
0.000000000
 40
1.000000000
 40
1.000000000
 40
1.000000000
 10
189.801530805
 20
182.334484062
 30
0.000000000
 10
189.514989199
 20
182.770167201
 30
0.000000000
 10
189.500000100
 20
183.319767492
 30
0.000000000
  0
SPLINE
  5
AE8
330
A02
100
AcDbEntity
  8
PFD_View
100
AcDbSpline
210
0
220
0
230
1
 70
8
 71
2
 72
6
 73
3
 74
0
 40
0.000000000
 40
0.000000000
 40
0.000000000
 40
1.000000000
 40
1.000000000
 40
1.000000000
 10
190.592205769
 20
181.681958626
 30
0.000000000
 10
190.088322229
 20
181.898800922
 30
0.000000000
 10
189.801530805
 20
182.334484062
 30
0.000000000
  0
SPLINE
  5
AE9
330
A02
100
AcDbEntity
  8
PFD_View
100
AcDbSpline
210
0
220
0
230
1
 70
8
 71
2
 72
6
 73
3
 74
0
 40
0.000000000
 40
0.000000000
 40
0.000000000
 40
1.000000000
 40
1.000000000
 40
1.000000000
 10
191.842046793
 20
181.465116329
 30
0.000000000
 10
191.096339126
 20
181.465116329
 30
0.000000000
 10
190.592205769
 20
181.681958626
 30
0.000000000
  0
SPLINE
  5
AEA
330
A02
100
AcDbEntity
  8
PFD_View
100
AcDbSpline
210
0
220
0
230
1
 70
8
 71
2
 72
6
 73
3
 74
0
 40
0.000000000
 40
0.000000000
 40
0.000000000
 40
1.000000000
 40
1.000000000
 40
1.000000000
 10
192.900526990
 20
181.680459716
 30
0.000000000
 10
192.430368923
 20
181.465116329
 30
0.000000000
 10
191.842046793
 20
181.465116329
 30
0.000000000
  0
SPLINE
  5
AEB
330
A02
100
AcDbEntity
  8
PFD_View
100
AcDbSpline
210
0
220
0
230
1
 70
8
 71
2
 72
6
 73
3
 74
0
 40
0.000000000
 40
0.000000000
 40
0.000000000
 40
1.000000000
 40
1.000000000
 40
1.000000000
 10
193.622002280
 20
182.283770944
 30
0.000000000
 10
193.370934875
 20
181.896052921
 30
0.000000000
 10
192.900526990
 20
181.680459716
 30
0.000000000
  0
SPLINE
  5
AEC
330
A02
100
AcDbEntity
  8
PFD_View
100
AcDbSpline
210
0
220
0
230
1
 70
8
 71
2
 72
6
 73
3
 74
0
 40
0.000000000
 40
0.000000000
 40
0.000000000
 40
1.000000000
 40
1.000000000
 40
1.000000000
 10
193.873069686
 20
183.109920108
 30
0.000000000
 10
193.873069686
 20
182.671488967
 30
0.000000000
 10
193.622002280
 20
182.283770944
 30
0.000000000
  0
SPLINE
  5
AED
330
A02
100
AcDbEntity
  8
PFD_View
100
AcDbSpline
210
0
220
0
230
1
 70
8
 71
2
 72
6
 73
3
 74
0
 40
0.000000000
 40
0.000000000
 40
0.000000000
 40
1.000000000
 40
1.000000000
 40
1.000000000
 10
193.644485928
 20
183.891101976
 30
0.000000000
 10
193.873069686
 20
183.552098524
 30
0.000000000
 10
193.873069686
 20
183.109920108
 30
0.000000000
  0
SPLINE
  5
AEE
330
A02
100
AcDbEntity
  8
PFD_View
100
AcDbSpline
210
0
220
0
230
1
 70
8
 71
2
 72
6
 73
3
 74
0
 40
0.000000000
 40
0.000000000
 40
0.000000000
 40
1.000000000
 40
1.000000000
 40
1.000000000
 10
192.936251008
 20
184.451194636
 30
0.000000000
 10
193.415902171
 20
184.230105428
 30
0.000000000
 10
193.644485928
 20
183.891101976
 30
0.000000000
  0
SPLINE
  5
AEF
330
A02
100
AcDbEntity
  8
PFD_View
100
AcDbSpline
210
0
220
0
230
1
 70
8
 71
2
 72
6
 73
3
 74
0
 40
0.000000000
 40
0.000000000
 40
0.000000000
 40
1.000000000
 40
1.000000000
 40
1.000000000
 10
191.720135456
 20
184.801190094
 30
0.000000000
 10
192.606490834
 20
184.601085624
 30
0.000000000
 10
192.936251008
 20
184.451194636
 30
0.000000000
  0
SPLINE
  5
AF0
330
A02
100
AcDbEntity
  8
PFD_View
100
AcDbSpline
210
0
220
0
230
1
 70
8
 71
2
 72
6
 73
3
 74
0
 40
0.000000000
 40
0.000000000
 40
0.000000000
 40
1.000000000
 40
1.000000000
 40
1.000000000
 10
190.624182513
 20
185.191905937
 30
0.000000000
 10
190.834029897
 20
185.001294563
 30
0.000000000
 10
191.720135456
 20
184.801190094
 30
0.000000000
  0
SPLINE
  5
AF1
330
A02
100
AcDbEntity
  8
PFD_View
100
AcDbSpline
210
0
220
0
230
1
 70
8
 71
2
 72
6
 73
3
 74
0
 40
0.000000000
 40
0.000000000
 40
0.000000000
 40
1.000000000
 40
1.000000000
 40
1.000000000
 10
190.410587854
 20
185.678302194
 30
0.000000000
 10
190.410587854
 20
185.382767128
 30
0.000000000
 10
190.624182513
 20
185.191905937
 30
0.000000000
  0
SPLINE
  5
AF2
330
A02
100
AcDbEntity
  8
PFD_View
100
AcDbSpline
210
0
220
0
230
1
 70
8
 71
2
 72
6
 73
3
 74
0
 40
0.000000000
 40
0.000000000
 40
0.000000000
 40
1.000000000
 40
1.000000000
 40
1.000000000
 10
190.712118559
 20
186.260129047
 30
0.000000000
 10
190.410587854
 20
186.018804556
 30
0.000000000
 10
190.410587854
 20
185.678302194
 30
0.000000000
  0
SPLINE
  5
AF3
330
A02
100
AcDbEntity
  8
PFD_View
100
AcDbSpline
210
0
220
0
230
1
 70
8
 71
2
 72
6
 73
3
 74
0
 40
0.000000000
 40
0.000000000
 40
0.000000000
 40
1.000000000
 40
1.000000000
 40
1.000000000
 10
191.673419431
 20
186.501453538
 30
0.000000000
 10
191.013899083
 20
186.501453538
 30
0.000000000
 10
190.712118559
 20
186.260129047
 30
0.000000000
  0
SPLINE
  5
AF4
330
A02
100
AcDbEntity
  8
PFD_View
100
AcDbSpline
210
0
220
0
230
1
 70
8
 71
2
 72
6
 73
3
 74
0
 40
0.000000000
 40
0.000000000
 40
0.000000000
 40
1.000000000
 40
1.000000000
 40
1.000000000
 10
192.630723210
 20
186.238894490
 30
0.000000000
 10
192.306708857
 20
186.501453538
 30
0.000000000
 10
191.673419431
 20
186.501453538
 30
0.000000000
  0
SPLINE
  5
AF5
330
A02
100
AcDbEntity
  8
PFD_View
100
AcDbSpline
210
0
220
0
230
1
 70
8
 71
2
 72
6
 73
3
 74
0
 40
0.000000000
 40
0.000000000
 40
0.000000000
 40
1.000000000
 40
1.000000000
 40
1.000000000
 10
193.011196503
 20
185.462209352
 30
0.000000000
 10
192.954987382
 20
185.976335442
 30
0.000000000
 10
192.630723210
 20
186.238894490
 30
0.000000000
  0
LINE
  5
AF6
330
A02
100
AcDbEntity
  8
PFD_View
100
AcDbLine
 10
193.708189599
 20
185.510174469
 30
0.000000000
 11
193.011196503
 21
185.462209352
 31
0.000000000
  0
SPLINE
  5
AF7
330
A02
100
AcDbEntity
  8
PFD_View
100
AcDbSpline
210
0
220
0
230
1
 70
8
 71
2
 72
6
 73
3
 74
0
 40
0.000000000
 40
0.000000000
 40
0.000000000
 40
1.000000000
 40
1.000000000
 40
1.000000000
 10
193.438385819
 20
186.378542928
 30
0.000000000
 10
193.689453225
 20
185.995071816
 30
0.000000000
 10
193.708189599
 20
185.510174469
 30
0.000000000
  0
SPLINE
  5
AF8
330
A02
100
AcDbEntity
  8
PFD_View
100
AcDbSpline
210
0
220
0
230
1
 70
8
 71
2
 72
6
 73
3
 74
0
 40
0.000000000
 40
0.000000000
 40
0.000000000
 40
1.000000000
 40
1.000000000
 40
1.000000000
 10
192.720657803
 20
186.959620326
 30
0.000000000
 10
193.187318414
 20
186.762263858
 30
0.000000000
 10
193.438385819
 20
186.378542928
 30
0.000000000
  0
SPLINE
  5
AF9
330
A02
100
AcDbEntity
  8
PFD_View
100
AcDbSpline
210
0
220
0
230
1
 70
8
 71
2
 72
6
 73
3
 74
0
 40
0.000000000
 40
0.000000000
 40
0.000000000
 40
1.000000000
 40
1.000000000
 40
1.000000000
 10
191.643441234
 20
187.156976794
 30
0.000000000
 10
192.254247011
 20
187.156976794
 30
0.000000000
 10
192.720657803
 20
186.959620326
 30
0.000000000
  0
SPLINE
  5
AFA
330
A02
100
AcDbEntity
  8
PFD_View
100
AcDbSpline
210
0
220
0
230
1
 70
8
 71
2
 72
6
 73
3
 74
0
 40
0.000000000
 40
0.000000000
 40
0.000000000
 40
1.000000000
 40
1.000000000
 40
1.000000000
 10
190.635424337
 20
186.968863604
 30
0.000000000
 10
191.088844577
 20
187.156976794
 30
0.000000000
 10
191.643441234
 20
187.156976794
 30
0.000000000
  0
SPLINE
  5
AFB
330
A02
100
AcDbEntity
  8
PFD_View
100
AcDbSpline
210
0
220
0
230
1
 70
8
 71
2
 72
6
 73
3
 74
0
 40
0.000000000
 40
0.000000000
 40
0.000000000
 40
1.000000000
 40
1.000000000
 40
1.000000000
 10
189.945925790
 20
186.417764403
 30
0.000000000
 10
190.182004097
 20
186.780750413
 30
0.000000000
 10
190.635424337
 20
186.968863604
 30
0.000000000
  0
SPLINE
  5
AFC
330
A02
100
AcDbEntity
  8
PFD_View
100
AcDbSpline
210
0
220
0
230
1
 70
8
 71
2
 72
6
 73
3
 74
0
 40
0.000000000
 40
0.000000000
 40
0.000000000
 40
1.000000000
 40
1.000000000
 40
1.000000000
 10
189.709847484
 20
185.637331990
 30
0.000000000
 10
189.709847484
 20
186.054778393
 30
0.000000000
 10
189.945925790
 20
186.417764403
 30
0.000000000
  0
SPLINE
  5
AFD
330
A02
100
AcDbEntity
  8
PFD_View
100
AcDbSpline
210
0
220
0
230
1
 70
8
 71
2
 72
6
 73
3
 74
0
 40
0.000000000
 40
0.000000000
 40
0.000000000
 40
1.000000000
 40
1.000000000
 40
1.000000000
 10
189.902707222
 20
184.950831264
 30
0.000000000
 10
189.709847484
 20
185.257358335
 30
0.000000000
 10
189.709847484
 20
185.637331990
 30
0.000000000
  0
SPLINE
  5
AFE
330
A02
100
AcDbEntity
  8
PFD_View
100
AcDbSpline
210
0
220
0
230
1
 70
8
 71
2
 72
6
 73
3
 74
0
 40
0.000000000
 40
0.000000000
 40
0.000000000
 40
1.000000000
 40
1.000000000
 40
1.000000000
 10
190.489280623
 20
184.437204810
 30
0.000000000
 10
190.095816779
 20
184.644304192
 30
0.000000000
 10
189.902707222
 20
184.950831264
 30
0.000000000
  0
SPLINE
  5
AFF
330
A02
100
AcDbEntity
  8
PFD_View
100
AcDbSpline
210
0
220
0
230
1
 70
8
 71
2
 72
6
 73
3
 74
0
 40
0.000000000
 40
0.000000000
 40
0.000000000
 40
1.000000000
 40
1.000000000
 40
1.000000000
 10
191.549759366
 20
184.093954447
 30
0.000000000
 10
190.792809875
 20
184.275572361
 30
0.000000000
 10
190.489280623
 20
184.437204810
 30
0.000000000
  0
SPLINE
  5
B00
330
A02
100
AcDbEntity
  8
PFD_View
100
AcDbSpline
210
0
220
0
230
1
 70
8
 71
2
 72
6
 73
3
 74
0
 40
0.000000000
 40
0.000000000
 40
0.000000000
 40
1.000000000
 40
1.000000000
 40
1.000000000
 10
192.527798065
 20
183.826648851
 30
0.000000000
 10
192.306708857
 20
183.912586351
 30
0.000000000
 10
191.549759366
 20
184.093954447
 30
0.000000000
  0
SPLINE
  5
B01
330
A02
100
AcDbEntity
  8
PFD_View
100
AcDbSpline
210
0
220
0
230
1
 70
8
 71
2
 72
6
 73
3
 74
0
 40
0.000000000
 40
0.000000000
 40
0.000000000
 40
1.000000000
 40
1.000000000
 40
1.000000000
 10
193.022438327
 20
183.502884316
 30
0.000000000
 10
192.872547338
 20
183.695744054
 30
0.000000000
 10
192.527798065
 20
183.826648851
 30
0.000000000
  0
SPLINE
  5
B02
330
A02
100
AcDbEntity
  8
PFD_View
100
AcDbSpline
210
0
220
0
230
1
 70
8
 71
2
 72
6
 73
3
 74
0
 40
0.000000000
 40
0.000000000
 40
0.000000000
 40
1.000000000
 40
1.000000000
 40
1.000000000
 10
193.172329315
 20
183.051712441
 30
0.000000000
 10
193.172329315
 20
183.310024578
 30
0.000000000
 10
193.022438327
 20
183.502884316
 30
0.000000000
  0
SPLINE
  5
B03
330
A02
100
AcDbEntity
  8
PFD_View
100
AcDbSpline
210
0
220
0
230
1
 70
8
 71
2
 72
6
 73
3
 74
0
 40
0.000000000
 40
0.000000000
 40
0.000000000
 40
1.000000000
 40
1.000000000
 40
1.000000000
 10
193.016692506
 20
182.582054011
 30
0.000000000
 10
193.172329315
 20
182.797147579
 30
0.000000000
 10
193.172329315
 20
183.051712441
 30
0.000000000
  0
SPLINE
  5
B04
330
A02
100
AcDbEntity
  8
PFD_View
100
AcDbSpline
210
0
220
0
230
1
 70
8
 71
2
 72
6
 73
3
 74
0
 40
0.000000000
 40
0.000000000
 40
0.000000000
 40
1.000000000
 40
1.000000000
 40
1.000000000
 10
192.542787164
 20
182.243800014
 30
0.000000000
 10
192.861305514
 20
182.367210261
 30
0.000000000
 10
193.016692506
 20
182.582054011
 30
0.000000000
  0
SPLINE
  5
B05
330
A02
100
AcDbEntity
  8
PFD_View
100
AcDbSpline
210
0
220
0
230
1
 70
8
 71
2
 72
6
 73
3
 74
0
 40
0.000000000
 40
0.000000000
 40
0.000000000
 40
1.000000000
 40
1.000000000
 40
1.000000000
 10
191.808321321
 20
182.120639585
 30
0.000000000
 10
192.224268814
 20
182.120639585
 30
0.000000000
 10
192.542787164
 20
182.243800014
 30
0.000000000
  0
SPLINE
  5
B06
330
A02
100
AcDbEntity
  8
PFD_View
100
AcDbSpline
210
0
220
0
230
1
 70
8
 71
2
 72
6
 73
3
 74
0
 40
0.000000000
 40
0.000000000
 40
0.000000000
 40
1.000000000
 40
1.000000000
 40
1.000000000
 10
190.965184511
 20
182.283021489
 30
0.000000000
 10
191.339911982
 20
182.120639585
 30
0.000000000
 10
191.808321321
 20
182.120639585
 30
0.000000000
  0
SPLINE
  5
B07
330
A02
100
AcDbEntity
  8
PFD_View
100
AcDbSpline
210
0
220
0
230
1
 70
8
 71
2
 72
6
 73
3
 74
0
 40
0.000000000
 40
0.000000000
 40
0.000000000
 40
1.000000000
 40
1.000000000
 40
1.000000000
 10
190.412336583
 20
182.709211533
 30
0.000000000
 10
190.590457040
 20
182.445653211
 30
0.000000000
 10
190.965184511
 20
182.283021489
 30
0.000000000
  0
SPLINE
  5
B08
330
A02
100
AcDbEntity
  8
PFD_View
100
AcDbSpline
210
0
220
0
230
1
 70
8
 71
2
 72
6
 73
3
 74
0
 40
0.000000000
 40
0.000000000
 40
0.000000000
 40
1.000000000
 40
1.000000000
 40
1.000000000
 10
190.185751372
 20
183.383720980
 30
0.000000000
 10
190.234465943
 20
182.972769854
 30
0.000000000
 10
190.412336583
 20
182.709211533
 30
0.000000000
  0
LINE
  5
B09
330
A02
100
AcDbEntity
  8
PFD_View
100
AcDbLine
 10
194.515102753
 20
183.207848887
 30
0.000000000
 11
194.515102753
 21
183.879360515
 31
0.000000000
  0
LINE
  5
B0A
330
A02
100
AcDbEntity
  8
PFD_View
100
AcDbLine
 10
196.587345667
 20
183.207848887
 30
0.000000000
 11
194.515102753
 21
183.207848887
 31
0.000000000
  0
LINE
  5
B0B
330
A02
100
AcDbEntity
  8
PFD_View
100
AcDbLine
 10
196.587345667
 20
183.879360515
 30
0.000000000
 11
196.587345667
 21
183.207848887
 31
0.000000000
  0
LINE
  5
B0C
330
A02
100
AcDbEntity
  8
PFD_View
100
AcDbLine
 10
194.515102753
 20
183.879360515
 30
0.000000000
 11
196.587345667
 21
183.879360515
 31
0.000000000
  0
LINE
  5
B0D
330
A02
100
AcDbEntity
  8
PFD_View
100
AcDbLine
 10
199.688840035
 20
181.561046562
 30
0.000000000
 11
199.014330587
 21
181.561046562
 31
0.000000000
  0
LINE
  5
B0E
330
A02
100
AcDbEntity
  8
PFD_View
100
AcDbLine
 10
199.688840035
 20
187.093023306
 30
0.000000000
 11
199.688840035
 21
181.561046562
 31
0.000000000
  0
LINE
  5
B0F
330
A02
100
AcDbEntity
  8
PFD_View
100
AcDbLine
 10
199.254156168
 20
187.093023306
 30
0.000000000
 11
199.688840035
 21
187.093023306
 31
0.000000000
  0
SPLINE
  5
B10
330
A02
100
AcDbEntity
  8
PFD_View
100
AcDbSpline
210
0
220
0
230
1
 70
8
 71
2
 72
6
 73
3
 74
0
 40
0.000000000
 40
0.000000000
 40
0.000000000
 40
1.000000000
 40
1.000000000
 40
1.000000000
 10
198.654592215
 20
186.356309098
 30
0.000000000
 10
199.078034257
 20
186.736032935
 30
0.000000000
 10
199.254156168
 20
187.093023306
 30
0.000000000
  0
SPLINE
  5
B11
330
A02
100
AcDbEntity
  8
PFD_View
100
AcDbSpline
210
0
220
0
230
1
 70
8
 71
2
 72
6
 73
3
 74
0
 40
0.000000000
 40
0.000000000
 40
0.000000000
 40
1.000000000
 40
1.000000000
 40
1.000000000
 10
197.665311692
 20
185.710029120
 30
0.000000000
 10
198.231150173
 20
185.976835079
 30
0.000000000
 10
198.654592215
 20
186.356309098
 30
0.000000000
  0
LINE
  5
B12
330
A02
100
AcDbEntity
  8
PFD_View
100
AcDbLine
 10
197.665311692
 20
185.056004774
 30
0.000000000
 11
197.665311692
 21
185.710029120
 31
0.000000000
  0
SPLINE
  5
B13
330
A02
100
AcDbEntity
  8
PFD_View
100
AcDbSpline
210
0
220
0
230
1
 70
8
 71
2
 72
6
 73
3
 74
0
 40
0.000000000
 40
0.000000000
 40
0.000000000
 40
1.000000000
 40
1.000000000
 40
1.000000000
 10
198.375295340
 20
185.405500595
 30
0.000000000
 10
197.980082767
 20
185.172420108
 30
0.000000000
 10
197.665311692
 20
185.056004774
 30
0.000000000
  0
SPLINE
  5
B14
330
A02
100
AcDbEntity
  8
PFD_View
100
AcDbSpline
210
0
220
0
230
1
 70
8
 71
2
 72
6
 73
3
 74
0
 40
0.000000000
 40
0.000000000
 40
0.000000000
 40
1.000000000
 40
1.000000000
 40
1.000000000
 10
199.014330587
 20
185.871661569
 30
0.000000000
 10
198.770757731
 20
185.638581082
 30
0.000000000
 10
198.375295340
 20
185.405500595
 30
0.000000000
  0
LINE
  5
B15
330
A02
100
AcDbEntity
  8
PFD_View
100
AcDbLine
 10
199.014330587
 20
181.561046562
 30
0.000000000
 11
199.014330587
 21
185.871661569
 31
0.000000000
  0
SPLINE
  5
B16
330
A02
100
AcDbEntity
  8
PFD_View
100
AcDbSpline
210
0
220
0
230
1
 70
8
 71
2
 72
6
 73
3
 74
0
 40
0.000000000
 40
0.000000000
 40
0.000000000
 40
1.000000000
 40
1.000000000
 40
1.000000000
 10
201.417083131
 20
184.277071271
 30
0.000000000
 10
201.417083131
 20
185.254610333
 30
0.000000000
 10
201.617437418
 20
185.850427012
 30
0.000000000
  0
SPLINE
  5
B17
330
A02
100
AcDbEntity
  8
PFD_View
100
AcDbSpline
210
0
220
0
230
1
 70
8
 71
2
 72
6
 73
3
 74
0
 40
0.000000000
 40
0.000000000
 40
0.000000000
 40
1.000000000
 40
1.000000000
 40
1.000000000
 10
201.960437963
 20
182.036450813
 30
0.000000000
 10
201.417083131
 20
182.724450450
 30
0.000000000
 10
201.417083131
 20
184.277071271
 30
0.000000000
  0
SPLINE
  5
B18
330
A02
100
AcDbEntity
  8
PFD_View
100
AcDbSpline
210
0
220
0
230
1
 70
8
 71
2
 72
6
 73
3
 74
0
 40
0.000000000
 40
0.000000000
 40
0.000000000
 40
1.000000000
 40
1.000000000
 40
1.000000000
 10
203.208280442
 20
181.465116329
 30
0.000000000
 10
202.413858203
 20
181.465116329
 30
0.000000000
 10
201.960437963
 20
182.036450813
 30
0.000000000
  0
SPLINE
  5
B19
330
A02
100
AcDbEntity
  8
PFD_View
100
AcDbSpline
210
0
220
0
230
1
 70
8
 71
2
 72
6
 73
3
 74
0
 40
0.000000000
 40
0.000000000
 40
0.000000000
 40
1.000000000
 40
1.000000000
 40
1.000000000
 10
204.206804242
 20
181.790129956
 30
0.000000000
 10
203.811591670
 20
181.465116329
 30
0.000000000
 10
203.208280442
 20
181.465116329
 30
0.000000000
  0
SPLINE
  5
B1A
330
A02
100
AcDbEntity
  8
PFD_View
100
AcDbSpline
210
0
220
0
230
1
 70
8
 71
2
 72
6
 73
3
 74
0
 40
0.000000000
 40
0.000000000
 40
0.000000000
 40
1.000000000
 40
1.000000000
 40
1.000000000
 10
204.800872193
 20
182.711210079
 30
0.000000000
 10
204.602266633
 20
182.115393400
 30
0.000000000
 10
204.206804242
 20
181.790129956
 30
0.000000000
  0
SPLINE
  5
B1B
330
A02
100
AcDbEntity
  8
PFD_View
100
AcDbSpline
210
0
220
0
230
1
 70
8
 71
2
 72
6
 73
3
 74
0
 40
0.000000000
 40
0.000000000
 40
0.000000000
 40
1.000000000
 40
1.000000000
 40
1.000000000
 10
204.999477753
 20
184.277071271
 30
0.000000000
 10
204.999477753
 20
183.307276576
 30
0.000000000
 10
204.800872193
 20
182.711210079
 30
0.000000000
  0
SPLINE
  5
B1C
330
A02
100
AcDbEntity
  8
PFD_View
100
AcDbSpline
210
0
220
0
230
1
 70
8
 71
2
 72
6
 73
3
 74
0
 40
0.000000000
 40
0.000000000
 40
0.000000000
 40
1.000000000
 40
1.000000000
 40
1.000000000
 10
204.875817687
 20
185.579873778
 30
0.000000000
 10
204.999477753
 20
185.096725159
 30
0.000000000
 10
204.999477753
 20
184.277071271
 30
0.000000000
  0
SPLINE
  5
B1D
330
A02
100
AcDbEntity
  8
PFD_View
100
AcDbSpline
210
0
220
0
230
1
 70
8
 71
2
 72
6
 73
3
 74
0
 40
0.000000000
 40
0.000000000
 40
0.000000000
 40
1.000000000
 40
1.000000000
 40
1.000000000
 10
204.534815689
 20
186.399277848
 30
0.000000000
 10
204.752157622
 20
186.063022397
 30
0.000000000
 10
204.875817687
 20
185.579873778
 30
0.000000000
  0
SPLINE
  5
B1E
330
A02
100
AcDbEntity
  8
PFD_View
100
AcDbSpline
210
0
220
0
230
1
 70
8
 71
2
 72
6
 73
3
 74
0
 40
0.000000000
 40
0.000000000
 40
0.000000000
 40
1.000000000
 40
1.000000000
 40
1.000000000
 10
203.983966306
 20
186.914403211
 30
0.000000000
 10
204.317473756
 20
186.735783117
 30
0.000000000
 10
204.534815689
 20
186.399277848
 30
0.000000000
  0
SPLINE
  5
B1F
330
A02
100
AcDbEntity
  8
PFD_View
100
AcDbSpline
210
0
220
0
230
1
 70
8
 71
2
 72
6
 73
3
 74
0
 40
0.000000000
 40
0.000000000
 40
0.000000000
 40
1.000000000
 40
1.000000000
 40
1.000000000
 10
203.208280442
 20
187.093023306
 30
0.000000000
 10
203.650458857
 20
187.093023306
 30
0.000000000
 10
203.983966306
 20
186.914403211
 30
0.000000000
  0
SPLINE
  5
B20
330
A02
100
AcDbEntity
  8
PFD_View
100
AcDbSpline
210
0
220
0
230
1
 70
8
 71
2
 72
6
 73
3
 74
0
 40
0.000000000
 40
0.000000000
 40
0.000000000
 40
1.000000000
 40
1.000000000
 40
1.000000000
 10
202.213254097
 20
186.769758408
 30
0.000000000
 10
202.608716488
 20
187.093023306
 30
0.000000000
 10
203.208280442
 20
187.093023306
 30
0.000000000
  0
SPLINE
  5
B21
330
A02
100
AcDbEntity
  8
PFD_View
100
AcDbSpline
210
0
220
0
230
1
 70
8
 71
2
 72
6
 73
3
 74
0
 40
0.000000000
 40
0.000000000
 40
0.000000000
 40
1.000000000
 40
1.000000000
 40
1.000000000
 10
201.617437418
 20
185.850427012
 30
0.000000000
 10
201.818041524
 20
186.446493509
 30
0.000000000
 10
202.213254097
 20
186.769758408
 30
0.000000000
  0
SPLINE
  5
B22
330
A02
100
AcDbEntity
  8
PFD_View
100
AcDbSpline
210
0
220
0
230
1
 70
8
 71
2
 72
6
 73
3
 74
0
 40
0.000000000
 40
0.000000000
 40
0.000000000
 40
1.000000000
 40
1.000000000
 40
1.000000000
 10
202.110328952
 20
184.279069817
 30
0.000000000
 10
202.110328952
 20
182.922806191
 30
0.000000000
 10
202.426848756
 20
182.473632863
 30
0.000000000
  0
SPLINE
  5
B23
330
A02
100
AcDbEntity
  8
PFD_View
100
AcDbSpline
210
0
220
0
230
1
 70
8
 71
2
 72
6
 73
3
 74
0
 40
0.000000000
 40
0.000000000
 40
0.000000000
 40
1.000000000
 40
1.000000000
 40
1.000000000
 10
202.458825500
 20
186.138967165
 30
0.000000000
 10
202.110328952
 20
185.635333444
 30
0.000000000
 10
202.110328952
 20
184.279069817
 30
0.000000000
  0
SPLINE
  5
B24
330
A02
100
AcDbEntity
  8
PFD_View
100
AcDbSpline
210
0
220
0
230
1
 70
8
 71
2
 72
6
 73
3
 74
0
 40
0.000000000
 40
0.000000000
 40
0.000000000
 40
1.000000000
 40
1.000000000
 40
1.000000000
 10
203.200785892
 20
186.533430283
 30
0.000000000
 10
202.736123828
 20
186.533430283
 30
0.000000000
 10
202.458825500
 20
186.138967165
 30
0.000000000
  0
SPLINE
  5
B25
330
A02
100
AcDbEntity
  8
PFD_View
100
AcDbSpline
210
0
220
0
230
1
 70
8
 71
2
 72
6
 73
3
 74
0
 40
0.000000000
 40
0.000000000
 40
0.000000000
 40
1.000000000
 40
1.000000000
 40
1.000000000
 10
203.989462309
 20
186.086255501
 30
0.000000000
 10
203.672942506
 20
186.533430283
 30
0.000000000
 10
203.200785892
 20
186.533430283
 30
0.000000000
  0
SPLINE
  5
B26
330
A02
100
AcDbEntity
  8
PFD_View
100
AcDbSpline
210
0
220
0
230
1
 70
8
 71
2
 72
6
 73
3
 74
0
 40
0.000000000
 40
0.000000000
 40
0.000000000
 40
1.000000000
 40
1.000000000
 40
1.000000000
 10
204.306231931
 20
184.279069817
 30
0.000000000
 10
204.306231931
 20
185.639080719
 30
0.000000000
 10
203.989462309
 20
186.086255501
 30
0.000000000
  0
SPLINE
  5
B27
330
A02
100
AcDbEntity
  8
PFD_View
100
AcDbSpline
210
0
220
0
230
1
 70
8
 71
2
 72
6
 73
3
 74
0
 40
0.000000000
 40
0.000000000
 40
0.000000000
 40
1.000000000
 40
1.000000000
 40
1.000000000
 10
203.989462309
 20
182.475631409
 30
0.000000000
 10
204.306231931
 20
182.926553466
 30
0.000000000
 10
204.306231931
 20
184.279069817
 30
0.000000000
  0
SPLINE
  5
B28
330
A02
100
AcDbEntity
  8
PFD_View
100
AcDbSpline
210
0
220
0
230
1
 70
8
 71
2
 72
6
 73
3
 74
0
 40
0.000000000
 40
0.000000000
 40
0.000000000
 40
1.000000000
 40
1.000000000
 40
1.000000000
 10
203.208280442
 20
182.024709352
 30
0.000000000
 10
203.672942506
 20
182.024709352
 30
0.000000000
 10
203.989462309
 20
182.475631409
 30
0.000000000
  0
SPLINE
  5
B29
330
A02
100
AcDbEntity
  8
PFD_View
100
AcDbSpline
210
0
220
0
230
1
 70
8
 71
2
 72
6
 73
3
 74
0
 40
0.000000000
 40
0.000000000
 40
0.000000000
 40
1.000000000
 40
1.000000000
 40
1.000000000
 10
202.426848756
 20
182.473632863
 30
0.000000000
 10
202.743618378
 20
182.024709352
 30
0.000000000
 10
203.208280442
 20
182.024709352
 30
0.000000000
  0
LINE
  5
B2A
330
A02
100
AcDbEntity
  8
PFD_View
100
AcDbLine
 10
208.226630732
 20
181.561046562
 30
0.000000000
 11
207.552121285
 21
181.561046562
 31
0.000000000
  0
LINE
  5
B2B
330
A02
100
AcDbEntity
  8
PFD_View
100
AcDbLine
 10
208.226630732
 20
187.093023306
 30
0.000000000
 11
208.226630732
 21
181.561046562
 31
0.000000000
  0
LINE
  5
B2C
330
A02
100
AcDbEntity
  8
PFD_View
100
AcDbLine
 10
207.791946866
 20
187.093023306
 30
0.000000000
 11
208.226630732
 21
187.093023306
 31
0.000000000
  0
SPLINE
  5
B2D
330
A02
100
AcDbEntity
  8
PFD_View
100
AcDbSpline
210
0
220
0
230
1
 70
8
 71
2
 72
6
 73
3
 74
0
 40
0.000000000
 40
0.000000000
 40
0.000000000
 40
1.000000000
 40
1.000000000
 40
1.000000000
 10
207.192382912
 20
186.356309098
 30
0.000000000
 10
207.615824955
 20
186.736032935
 30
0.000000000
 10
207.791946866
 20
187.093023306
 30
0.000000000
  0
SPLINE
  5
B2E
330
A02
100
AcDbEntity
  8
PFD_View
100
AcDbSpline
210
0
220
0
230
1
 70
8
 71
2
 72
6
 73
3
 74
0
 40
0.000000000
 40
0.000000000
 40
0.000000000
 40
1.000000000
 40
1.000000000
 40
1.000000000
 10
206.203102389
 20
185.710029120
 30
0.000000000
 10
206.768940870
 20
185.976835079
 30
0.000000000
 10
207.192382913
 20
186.356309098
 30
0.000000000
  0
LINE
  5
B2F
330
A02
100
AcDbEntity
  8
PFD_View
100
AcDbLine
 10
206.203102389
 20
185.056004774
 30
0.000000000
 11
206.203102389
 21
185.710029120
 31
0.000000000
  0
SPLINE
  5
B30
330
A02
100
AcDbEntity
  8
PFD_View
100
AcDbSpline
210
0
220
0
230
1
 70
8
 71
2
 72
6
 73
3
 74
0
 40
0.000000000
 40
0.000000000
 40
0.000000000
 40
1.000000000
 40
1.000000000
 40
1.000000000
 10
206.913086037
 20
185.405500595
 30
0.000000000
 10
206.517873465
 20
185.172420108
 30
0.000000000
 10
206.203102389
 20
185.056004774
 30
0.000000000
  0
SPLINE
  5
B31
330
A02
100
AcDbEntity
  8
PFD_View
100
AcDbSpline
210
0
220
0
230
1
 70
8
 71
2
 72
6
 73
3
 74
0
 40
0.000000000
 40
0.000000000
 40
0.000000000
 40
1.000000000
 40
1.000000000
 40
1.000000000
 10
207.552121285
 20
185.871661569
 30
0.000000000
 10
207.308548428
 20
185.638581082
 30
0.000000000
 10
206.913086037
 20
185.405500595
 30
0.000000000
  0
LINE
  5
B32
330
A02
100
AcDbEntity
  8
PFD_View
100
AcDbLine
 10
207.552121285
 20
181.561046562
 30
0.000000000
 11
207.552121285
 21
185.871661569
 31
0.000000000
  0
LINE
  5
B33
330
A02
100
AcDbEntity
  8
PFD_View
100
AcDbLine
 10
189.155614199
 20
169.561046562
 30
0.000000000
 11
188.603742833
 21
169.561046562
 31
0.000000000
  0
LINE
  5
B34
330
A02
100
AcDbEntity
  8
PFD_View
100
AcDbLine
 10
189.155614199
 20
174.087209352
 30
0.000000000
 11
189.155614199
 21
169.561046562
 31
0.000000000
  0
LINE
  5
B35
330
A02
100
AcDbEntity
  8
PFD_View
100
AcDbLine
 10
188.799963763
 20
174.087209352
 30
0.000000000
 11
189.155614199
 21
174.087209352
 31
0.000000000
  0
SPLINE
  5
B36
330
A02
100
AcDbEntity
  8
PFD_View
100
AcDbSpline
210
0
220
0
230
1
 70
8
 71
2
 72
6
 73
3
 74
0
 40
0.000000000
 40
0.000000000
 40
0.000000000
 40
1.000000000
 40
1.000000000
 40
1.000000000
 10
188.309411437
 20
173.484443182
 30
0.000000000
 10
188.655864017
 20
173.795126322
 30
0.000000000
 10
188.799963763
 20
174.087209352
 30
0.000000000
  0
SPLINE
  5
B37
330
A02
100
AcDbEntity
  8
PFD_View
100
AcDbSpline
210
0
220
0
230
1
 70
8
 71
2
 72
6
 73
3
 74
0
 40
0.000000000
 40
0.000000000
 40
0.000000000
 40
1.000000000
 40
1.000000000
 40
1.000000000
 10
187.500000100
 20
172.955668655
 30
0.000000000
 10
187.962958857
 20
173.173964440
 30
0.000000000
 10
188.309411437
 20
173.484443182
 30
0.000000000
  0
LINE
  5
B38
330
A02
100
AcDbEntity
  8
PFD_View
100
AcDbLine
 10
187.500000100
 20
172.420557826
 30
0.000000000
 11
187.500000100
 21
172.955668655
 31
0.000000000
  0
SPLINE
  5
B39
330
A02
100
AcDbEntity
  8
PFD_View
100
AcDbSpline
210
0
220
0
230
1
 70
8
 71
2
 72
6
 73
3
 74
0
 40
0.000000000
 40
0.000000000
 40
0.000000000
 40
1.000000000
 40
1.000000000
 40
1.000000000
 10
188.080895812
 20
172.706508953
 30
0.000000000
 10
187.757540071
 20
172.515806736
 30
0.000000000
 10
187.500000100
 20
172.420557826
 30
0.000000000
  0
SPLINE
  5
B3A
330
A02
100
AcDbEntity
  8
PFD_View
100
AcDbSpline
210
0
220
0
230
1
 70
8
 71
2
 72
6
 73
3
 74
0
 40
0.000000000
 40
0.000000000
 40
0.000000000
 40
1.000000000
 40
1.000000000
 40
1.000000000
 10
188.603742833
 20
173.087913386
 30
0.000000000
 10
188.404455950
 20
172.897211169
 30
0.000000000
 10
188.080895812
 20
172.706508953
 30
0.000000000
  0
LINE
  5
B3B
330
A02
100
AcDbEntity
  8
PFD_View
100
AcDbLine
 10
188.603742833
 20
169.561046562
 30
0.000000000
 11
188.603742833
 21
173.087913386
 31
0.000000000
  0
SPLINE
  5
B3C
330
A02
100
AcDbEntity
  8
PFD_View
100
AcDbSpline
210
0
220
0
230
1
 70
8
 71
2
 72
6
 73
3
 74
0
 40
0.000000000
 40
0.000000000
 40
0.000000000
 40
1.000000000
 40
1.000000000
 40
1.000000000
 10
190.569631277
 20
171.783248597
 30
0.000000000
 10
190.569631277
 20
172.583053284
 30
0.000000000
 10
190.733557513
 20
173.070539658
 30
0.000000000
  0
SPLINE
  5
B3D
330
A02
100
AcDbEntity
  8
PFD_View
100
AcDbSpline
210
0
220
0
230
1
 70
8
 71
2
 72
6
 73
3
 74
0
 40
0.000000000
 40
0.000000000
 40
0.000000000
 40
1.000000000
 40
1.000000000
 40
1.000000000
 10
191.014194322
 20
169.950013676
 30
0.000000000
 10
190.569631277
 20
170.512922470
 30
0.000000000
 10
190.569631277
 20
171.783248597
 30
0.000000000
  0
SPLINE
  5
B3E
330
A02
100
AcDbEntity
  8
PFD_View
100
AcDbSpline
210
0
220
0
230
1
 70
8
 71
2
 72
6
 73
3
 74
0
 40
0.000000000
 40
0.000000000
 40
0.000000000
 40
1.000000000
 40
1.000000000
 40
1.000000000
 10
192.035156350
 20
169.482558190
 30
0.000000000
 10
191.385174519
 20
169.482558190
 30
0.000000000
 10
191.014194322
 20
169.950013676
 30
0.000000000
  0
SPLINE
  5
B3F
330
A02
100
AcDbEntity
  8
PFD_View
100
AcDbSpline
210
0
220
0
230
1
 70
8
 71
2
 72
6
 73
3
 74
0
 40
0.000000000
 40
0.000000000
 40
0.000000000
 40
1.000000000
 40
1.000000000
 40
1.000000000
 10
192.852130369
 20
169.748478429
 30
0.000000000
 10
192.528774628
 20
169.482558190
 30
0.000000000
 10
192.035156350
 20
169.482558190
 30
0.000000000
  0
SPLINE
  5
B40
330
A02
100
AcDbEntity
  8
PFD_View
100
AcDbSpline
210
0
220
0
230
1
 70
8
 71
2
 72
6
 73
3
 74
0
 40
0.000000000
 40
0.000000000
 40
0.000000000
 40
1.000000000
 40
1.000000000
 40
1.000000000
 10
193.338185965
 20
170.502089440
 30
0.000000000
 10
193.175690507
 20
170.014603066
 30
0.000000000
 10
192.852130369
 20
169.748478429
 30
0.000000000
  0
SPLINE
  5
B41
330
A02
100
AcDbEntity
  8
PFD_View
100
AcDbSpline
210
0
220
0
230
1
 70
8
 71
2
 72
6
 73
3
 74
0
 40
0.000000000
 40
0.000000000
 40
0.000000000
 40
1.000000000
 40
1.000000000
 40
1.000000000
 10
193.500681423
 20
171.783248597
 30
0.000000000
 10
193.500681423
 20
170.989780210
 30
0.000000000
 10
193.338185965
 20
170.502089440
 30
0.000000000
  0
SPLINE
  5
B42
330
A02
100
AcDbEntity
  8
PFD_View
100
AcDbSpline
210
0
220
0
230
1
 70
8
 71
2
 72
6
 73
3
 74
0
 40
0.000000000
 40
0.000000000
 40
0.000000000
 40
1.000000000
 40
1.000000000
 40
1.000000000
 10
193.399505006
 20
172.849177921
 30
0.000000000
 10
193.500681423
 20
172.453874505
 30
0.000000000
 10
193.500681423
 20
171.783248597
 30
0.000000000
  0
SPLINE
  5
B43
330
A02
100
AcDbEntity
  8
PFD_View
100
AcDbSpline
210
0
220
0
230
1
 70
8
 71
2
 72
6
 73
3
 74
0
 40
0.000000000
 40
0.000000000
 40
0.000000000
 40
1.000000000
 40
1.000000000
 40
1.000000000
 10
193.120503370
 20
173.519599432
 30
0.000000000
 10
193.298328588
 20
173.244481336
 30
0.000000000
 10
193.399505006
 20
172.849177921
 30
0.000000000
  0
SPLINE
  5
B44
330
A02
100
AcDbEntity
  8
PFD_View
100
AcDbSpline
210
0
220
0
230
1
 70
8
 71
2
 72
6
 73
3
 74
0
 40
0.000000000
 40
0.000000000
 40
0.000000000
 40
1.000000000
 40
1.000000000
 40
1.000000000
 10
192.669808421
 20
173.941065639
 30
0.000000000
 10
192.942678152
 20
173.794921925
 30
0.000000000
 10
193.120503370
 20
173.519599432
 30
0.000000000
  0
SPLINE
  5
B45
330
A02
100
AcDbEntity
  8
PFD_View
100
AcDbSpline
210
0
220
0
230
1
 70
8
 71
2
 72
6
 73
3
 74
0
 40
0.000000000
 40
0.000000000
 40
0.000000000
 40
1.000000000
 40
1.000000000
 40
1.000000000
 10
192.035156350
 20
174.087209352
 30
0.000000000
 10
192.396938690
 20
174.087209352
 30
0.000000000
 10
192.669808421
 20
173.941065639
 30
0.000000000
  0
SPLINE
  5
B46
330
A02
100
AcDbEntity
  8
PFD_View
100
AcDbSpline
210
0
220
0
230
1
 70
8
 71
2
 72
6
 73
3
 74
0
 40
0.000000000
 40
0.000000000
 40
0.000000000
 40
1.000000000
 40
1.000000000
 40
1.000000000
 10
191.221043886
 20
173.822719890
 30
0.000000000
 10
191.544604024
 20
174.087209352
 30
0.000000000
 10
192.035156350
 20
174.087209352
 30
0.000000000
  0
SPLINE
  5
B47
330
A02
100
AcDbEntity
  8
PFD_View
100
AcDbSpline
210
0
220
0
230
1
 70
8
 71
2
 72
6
 73
3
 74
0
 40
0.000000000
 40
0.000000000
 40
0.000000000
 40
1.000000000
 40
1.000000000
 40
1.000000000
 10
190.733557513
 20
173.070539658
 30
0.000000000
 10
190.897688145
 20
173.558230428
 30
0.000000000
 10
191.221043886
 20
173.822719890
 30
0.000000000
  0
SPLINE
  5
B48
330
A02
100
AcDbEntity
  8
PFD_View
100
AcDbSpline
210
0
220
0
230
1
 70
8
 71
2
 72
6
 73
3
 74
0
 40
0.000000000
 40
0.000000000
 40
0.000000000
 40
1.000000000
 40
1.000000000
 40
1.000000000
 10
191.136832404
 20
171.784883771
 30
0.000000000
 10
191.136832404
 20
170.675213531
 30
0.000000000
 10
191.395803152
 20
170.307708081
 30
0.000000000
  0
SPLINE
  5
B49
330
A02
100
AcDbEntity
  8
PFD_View
100
AcDbSpline
210
0
220
0
230
1
 70
8
 71
2
 72
6
 73
3
 74
0
 40
0.000000000
 40
0.000000000
 40
0.000000000
 40
1.000000000
 40
1.000000000
 40
1.000000000
 10
191.421965943
 20
173.306617964
 30
0.000000000
 10
191.136832404
 20
172.894554011
 30
0.000000000
 10
191.136832404
 20
171.784883771
 30
0.000000000
  0
SPLINE
  5
B4A
330
A02
100
AcDbEntity
  8
PFD_View
100
AcDbSpline
210
0
220
0
230
1
 70
8
 71
2
 72
6
 73
3
 74
0
 40
0.000000000
 40
0.000000000
 40
0.000000000
 40
1.000000000
 40
1.000000000
 40
1.000000000
 10
192.029024446
 20
173.629360515
 30
0.000000000
 10
191.648846394
 20
173.629360515
 30
0.000000000
 10
191.421965943
 20
173.306617964
 30
0.000000000
  0
SPLINE
  5
B4B
330
A02
100
AcDbEntity
  8
PFD_View
100
AcDbSpline
210
0
220
0
230
1
 70
8
 71
2
 72
6
 73
3
 74
0
 40
0.000000000
 40
0.000000000
 40
0.000000000
 40
1.000000000
 40
1.000000000
 40
1.000000000
 10
192.674305151
 20
173.263490239
 30
0.000000000
 10
192.415334402
 20
173.629360515
 30
0.000000000
 10
192.029024446
 20
173.629360515
 30
0.000000000
  0
SPLINE
  5
B4C
330
A02
100
AcDbEntity
  8
PFD_View
100
AcDbSpline
210
0
220
0
230
1
 70
8
 71
2
 72
6
 73
3
 74
0
 40
0.000000000
 40
0.000000000
 40
0.000000000
 40
1.000000000
 40
1.000000000
 40
1.000000000
 10
192.933480296
 20
171.784883771
 30
0.000000000
 10
192.933480296
 20
172.897619963
 30
0.000000000
 10
192.674305151
 20
173.263490239
 30
0.000000000
  0
SPLINE
  5
B4D
330
A02
100
AcDbEntity
  8
PFD_View
100
AcDbSpline
210
0
220
0
230
1
 70
8
 71
2
 72
6
 73
3
 74
0
 40
0.000000000
 40
0.000000000
 40
0.000000000
 40
1.000000000
 40
1.000000000
 40
1.000000000
 10
192.674305151
 20
170.309343255
 30
0.000000000
 10
192.933480296
 20
170.678279483
 30
0.000000000
 10
192.933480296
 20
171.784883771
 30
0.000000000
  0
SPLINE
  5
B4E
330
A02
100
AcDbEntity
  8
PFD_View
100
AcDbSpline
210
0
220
0
230
1
 70
8
 71
2
 72
6
 73
3
 74
0
 40
0.000000000
 40
0.000000000
 40
0.000000000
 40
1.000000000
 40
1.000000000
 40
1.000000000
 10
192.035156350
 20
169.940407027
 30
0.000000000
 10
192.415334402
 20
169.940407027
 30
0.000000000
 10
192.674305151
 20
170.309343255
 30
0.000000000
  0
SPLINE
  5
B4F
330
A02
100
AcDbEntity
  8
PFD_View
100
AcDbSpline
210
0
220
0
230
1
 70
8
 71
2
 72
6
 73
3
 74
0
 40
0.000000000
 40
0.000000000
 40
0.000000000
 40
1.000000000
 40
1.000000000
 40
1.000000000
 10
191.395803152
 20
170.307708081
 30
0.000000000
 10
191.654978298
 20
169.940407027
 30
0.000000000
 10
192.035156350
 20
169.940407027
 30
0.000000000
  0
SPLINE
  5
B50
330
A02
100
AcDbEntity
  8
PFD_View
100
AcDbSpline
210
0
220
0
230
1
 70
8
 71
2
 72
6
 73
3
 74
0
 40
0.000000000
 40
0.000000000
 40
0.000000000
 40
1.000000000
 40
1.000000000
 40
1.000000000
 10
194.062363835
 20
171.783248597
 30
0.000000000
 10
194.062363835
 20
172.583053284
 30
0.000000000
 10
194.226290071
 20
173.070539658
 30
0.000000000
  0
SPLINE
  5
B51
330
A02
100
AcDbEntity
  8
PFD_View
100
AcDbSpline
210
0
220
0
230
1
 70
8
 71
2
 72
6
 73
3
 74
0
 40
0.000000000
 40
0.000000000
 40
0.000000000
 40
1.000000000
 40
1.000000000
 40
1.000000000
 10
194.506926881
 20
169.950013676
 30
0.000000000
 10
194.062363835
 20
170.512922470
 30
0.000000000
 10
194.062363835
 20
171.783248597
 30
0.000000000
  0
SPLINE
  5
B52
330
A02
100
AcDbEntity
  8
PFD_View
100
AcDbSpline
210
0
220
0
230
1
 70
8
 71
2
 72
6
 73
3
 74
0
 40
0.000000000
 40
0.000000000
 40
0.000000000
 40
1.000000000
 40
1.000000000
 40
1.000000000
 10
195.527888908
 20
169.482558190
 30
0.000000000
 10
194.877907077
 20
169.482558190
 30
0.000000000
 10
194.506926881
 20
169.950013676
 30
0.000000000
  0
SPLINE
  5
B53
330
A02
100
AcDbEntity
  8
PFD_View
100
AcDbSpline
210
0
220
0
230
1
 70
8
 71
2
 72
6
 73
3
 74
0
 40
0.000000000
 40
0.000000000
 40
0.000000000
 40
1.000000000
 40
1.000000000
 40
1.000000000
 10
196.344862927
 20
169.748478429
 30
0.000000000
 10
196.021507186
 20
169.482558190
 30
0.000000000
 10
195.527888908
 20
169.482558190
 30
0.000000000
  0
SPLINE
  5
B54
330
A02
100
AcDbEntity
  8
PFD_View
100
AcDbSpline
210
0
220
0
230
1
 70
8
 71
2
 72
6
 73
3
 74
0
 40
0.000000000
 40
0.000000000
 40
0.000000000
 40
1.000000000
 40
1.000000000
 40
1.000000000
 10
196.830918523
 20
170.502089440
 30
0.000000000
 10
196.668423065
 20
170.014603066
 30
0.000000000
 10
196.344862927
 20
169.748478429
 30
0.000000000
  0
SPLINE
  5
B55
330
A02
100
AcDbEntity
  8
PFD_View
100
AcDbSpline
210
0
220
0
230
1
 70
8
 71
2
 72
6
 73
3
 74
0
 40
0.000000000
 40
0.000000000
 40
0.000000000
 40
1.000000000
 40
1.000000000
 40
1.000000000
 10
196.993413981
 20
171.783248597
 30
0.000000000
 10
196.993413981
 20
170.989780210
 30
0.000000000
 10
196.830918523
 20
170.502089440
 30
0.000000000
  0
SPLINE
  5
B56
330
A02
100
AcDbEntity
  8
PFD_View
100
AcDbSpline
210
0
220
0
230
1
 70
8
 71
2
 72
6
 73
3
 74
0
 40
0.000000000
 40
0.000000000
 40
0.000000000
 40
1.000000000
 40
1.000000000
 40
1.000000000
 10
196.892237564
 20
172.849177921
 30
0.000000000
 10
196.993413981
 20
172.453874505
 30
0.000000000
 10
196.993413981
 20
171.783248597
 30
0.000000000
  0
SPLINE
  5
B57
330
A02
100
AcDbEntity
  8
PFD_View
100
AcDbSpline
210
0
220
0
230
1
 70
8
 71
2
 72
6
 73
3
 74
0
 40
0.000000000
 40
0.000000000
 40
0.000000000
 40
1.000000000
 40
1.000000000
 40
1.000000000
 10
196.613235928
 20
173.519599432
 30
0.000000000
 10
196.791061147
 20
173.244481336
 30
0.000000000
 10
196.892237564
 20
172.849177921
 30
0.000000000
  0
SPLINE
  5
B58
330
A02
100
AcDbEntity
  8
PFD_View
100
AcDbSpline
210
0
220
0
230
1
 70
8
 71
2
 72
6
 73
3
 74
0
 40
0.000000000
 40
0.000000000
 40
0.000000000
 40
1.000000000
 40
1.000000000
 40
1.000000000
 10
196.162540979
 20
173.941065639
 30
0.000000000
 10
196.435410710
 20
173.794921925
 30
0.000000000
 10
196.613235928
 20
173.519599432
 30
0.000000000
  0
SPLINE
  5
B59
330
A02
100
AcDbEntity
  8
PFD_View
100
AcDbSpline
210
0
220
0
230
1
 70
8
 71
2
 72
6
 73
3
 74
0
 40
0.000000000
 40
0.000000000
 40
0.000000000
 40
1.000000000
 40
1.000000000
 40
1.000000000
 10
195.527888908
 20
174.087209352
 30
0.000000000
 10
195.889671248
 20
174.087209352
 30
0.000000000
 10
196.162540979
 20
173.941065639
 30
0.000000000
  0
SPLINE
  5
B5A
330
A02
100
AcDbEntity
  8
PFD_View
100
AcDbSpline
210
0
220
0
230
1
 70
8
 71
2
 72
6
 73
3
 74
0
 40
0.000000000
 40
0.000000000
 40
0.000000000
 40
1.000000000
 40
1.000000000
 40
1.000000000
 10
194.713776444
 20
173.822719890
 30
0.000000000
 10
195.037336583
 20
174.087209352
 30
0.000000000
 10
195.527888908
 20
174.087209352
 30
0.000000000
  0
SPLINE
  5
B5B
330
A02
100
AcDbEntity
  8
PFD_View
100
AcDbSpline
210
0
220
0
230
1
 70
8
 71
2
 72
6
 73
3
 74
0
 40
0.000000000
 40
0.000000000
 40
0.000000000
 40
1.000000000
 40
1.000000000
 40
1.000000000
 10
194.226290071
 20
173.070539658
 30
0.000000000
 10
194.390420703
 20
173.558230428
 30
0.000000000
 10
194.713776444
 20
173.822719890
 30
0.000000000
  0
SPLINE
  5
B5C
330
A02
100
AcDbEntity
  8
PFD_View
100
AcDbSpline
210
0
220
0
230
1
 70
8
 71
2
 72
6
 73
3
 74
0
 40
0.000000000
 40
0.000000000
 40
0.000000000
 40
1.000000000
 40
1.000000000
 40
1.000000000
 10
194.629564962
 20
171.784883771
 30
0.000000000
 10
194.629564962
 20
170.675213531
 30
0.000000000
 10
194.888535710
 20
170.307708081
 30
0.000000000
  0
SPLINE
  5
B5D
330
A02
100
AcDbEntity
  8
PFD_View
100
AcDbSpline
210
0
220
0
230
1
 70
8
 71
2
 72
6
 73
3
 74
0
 40
0.000000000
 40
0.000000000
 40
0.000000000
 40
1.000000000
 40
1.000000000
 40
1.000000000
 10
194.914698501
 20
173.306617964
 30
0.000000000
 10
194.629564962
 20
172.894554011
 30
0.000000000
 10
194.629564962
 20
171.784883771
 30
0.000000000
  0
SPLINE
  5
B5E
330
A02
100
AcDbEntity
  8
PFD_View
100
AcDbSpline
210
0
220
0
230
1
 70
8
 71
2
 72
6
 73
3
 74
0
 40
0.000000000
 40
0.000000000
 40
0.000000000
 40
1.000000000
 40
1.000000000
 40
1.000000000
 10
195.521757004
 20
173.629360515
 30
0.000000000
 10
195.141578952
 20
173.629360515
 30
0.000000000
 10
194.914698501
 20
173.306617964
 30
0.000000000
  0
SPLINE
  5
B5F
330
A02
100
AcDbEntity
  8
PFD_View
100
AcDbSpline
210
0
220
0
230
1
 70
8
 71
2
 72
6
 73
3
 74
0
 40
0.000000000
 40
0.000000000
 40
0.000000000
 40
1.000000000
 40
1.000000000
 40
1.000000000
 10
196.167037709
 20
173.263490239
 30
0.000000000
 10
195.908066960
 20
173.629360515
 30
0.000000000
 10
195.521757004
 20
173.629360515
 30
0.000000000
  0
SPLINE
  5
B60
330
A02
100
AcDbEntity
  8
PFD_View
100
AcDbSpline
210
0
220
0
230
1
 70
8
 71
2
 72
6
 73
3
 74
0
 40
0.000000000
 40
0.000000000
 40
0.000000000
 40
1.000000000
 40
1.000000000
 40
1.000000000
 10
196.426212854
 20
171.784883771
 30
0.000000000
 10
196.426212854
 20
172.897619963
 30
0.000000000
 10
196.167037709
 20
173.263490239
 30
0.000000000
  0
SPLINE
  5
B61
330
A02
100
AcDbEntity
  8
PFD_View
100
AcDbSpline
210
0
220
0
230
1
 70
8
 71
2
 72
6
 73
3
 74
0
 40
0.000000000
 40
0.000000000
 40
0.000000000
 40
1.000000000
 40
1.000000000
 40
1.000000000
 10
196.167037709
 20
170.309343255
 30
0.000000000
 10
196.426212854
 20
170.678279483
 30
0.000000000
 10
196.426212854
 20
171.784883771
 30
0.000000000
  0
SPLINE
  5
B62
330
A02
100
AcDbEntity
  8
PFD_View
100
AcDbSpline
210
0
220
0
230
1
 70
8
 71
2
 72
6
 73
3
 74
0
 40
0.000000000
 40
0.000000000
 40
0.000000000
 40
1.000000000
 40
1.000000000
 40
1.000000000
 10
195.527888908
 20
169.940407027
 30
0.000000000
 10
195.908066960
 20
169.940407027
 30
0.000000000
 10
196.167037709
 20
170.309343255
 30
0.000000000
  0
SPLINE
  5
B63
330
A02
100
AcDbEntity
  8
PFD_View
100
AcDbSpline
210
0
220
0
230
1
 70
8
 71
2
 72
6
 73
3
 74
0
 40
0.000000000
 40
0.000000000
 40
0.000000000
 40
1.000000000
 40
1.000000000
 40
1.000000000
 10
194.888535710
 20
170.307708081
 30
0.000000000
 10
195.147710856
 20
169.940407027
 30
0.000000000
 10
195.527888908
 20
169.940407027
 30
0.000000000
  0
LINE
  5
B64
330
A02
100
AcDbEntity
  8
PFD_View
100
AcDbLine
 10
199.633811873
 20
169.561046562
 30
0.000000000
 11
199.081940507
 21
169.561046562
 31
0.000000000
  0
LINE
  5
B65
330
A02
100
AcDbEntity
  8
PFD_View
100
AcDbLine
 10
199.633811873
 20
174.087209352
 30
0.000000000
 11
199.633811873
 21
169.561046562
 31
0.000000000
  0
LINE
  5
B66
330
A02
100
AcDbEntity
  8
PFD_View
100
AcDbLine
 10
199.278161437
 20
174.087209352
 30
0.000000000
 11
199.633811873
 21
174.087209352
 31
0.000000000
  0
SPLINE
  5
B67
330
A02
100
AcDbEntity
  8
PFD_View
100
AcDbSpline
210
0
220
0
230
1
 70
8
 71
2
 72
6
 73
3
 74
0
 40
0.000000000
 40
0.000000000
 40
0.000000000
 40
1.000000000
 40
1.000000000
 40
1.000000000
 10
198.787609112
 20
173.484443182
 30
0.000000000
 10
199.134061692
 20
173.795126322
 30
0.000000000
 10
199.278161437
 20
174.087209352
 30
0.000000000
  0
SPLINE
  5
B68
330
A02
100
AcDbEntity
  8
PFD_View
100
AcDbSpline
210
0
220
0
230
1
 70
8
 71
2
 72
6
 73
3
 74
0
 40
0.000000000
 40
0.000000000
 40
0.000000000
 40
1.000000000
 40
1.000000000
 40
1.000000000
 10
197.978197774
 20
172.955668655
 30
0.000000000
 10
198.441156532
 20
173.173964440
 30
0.000000000
 10
198.787609112
 20
173.484443182
 30
0.000000000
  0
LINE
  5
B69
330
A02
100
AcDbEntity
  8
PFD_View
100
AcDbLine
 10
197.978197774
 20
172.420557826
 30
0.000000000
 11
197.978197774
 21
172.955668655
 31
0.000000000
  0
SPLINE
  5
B6A
330
A02
100
AcDbEntity
  8
PFD_View
100
AcDbSpline
210
0
220
0
230
1
 70
8
 71
2
 72
6
 73
3
 74
0
 40
0.000000000
 40
0.000000000
 40
0.000000000
 40
1.000000000
 40
1.000000000
 40
1.000000000
 10
198.559093487
 20
172.706508953
 30
0.000000000
 10
198.235737745
 20
172.515806736
 30
0.000000000
 10
197.978197774
 20
172.420557826
 30
0.000000000
  0
SPLINE
  5
B6B
330
A02
100
AcDbEntity
  8
PFD_View
100
AcDbSpline
210
0
220
0
230
1
 70
8
 71
2
 72
6
 73
3
 74
0
 40
0.000000000
 40
0.000000000
 40
0.000000000
 40
1.000000000
 40
1.000000000
 40
1.000000000
 10
199.081940507
 20
173.087913386
 30
0.000000000
 10
198.882653625
 20
172.897211169
 30
0.000000000
 10
198.559093487
 20
172.706508953
 30
0.000000000
  0
LINE
  5
B6C
330
A02
100
AcDbEntity
  8
PFD_View
100
AcDbLine
 10
199.081940507
 20
169.561046562
 30
0.000000000
 11
199.081940507
 21
173.087913386
 31
0.000000000
  0
LINE
  5
B6D
330
A02
100
AcDbEntity
  8
PFD_View
100
AcDbLine
 10
200.986509911
 20
170.908430283
 30
0.000000000
 11
200.986509911
 21
171.457848887
 31
0.000000000
  0
LINE
  5
B6E
330
A02
100
AcDbEntity
  8
PFD_View
100
AcDbLine
 10
202.681981386
 20
170.908430283
 30
0.000000000
 11
200.986509911
 21
170.908430283
 31
0.000000000
  0
LINE
  5
B6F
330
A02
100
AcDbEntity
  8
PFD_View
100
AcDbLine
 10
202.681981386
 20
171.457848887
 30
0.000000000
 11
202.681981386
 21
170.908430283
 31
0.000000000
  0
LINE
  5
B70
330
A02
100
AcDbEntity
  8
PFD_View
100
AcDbLine
 10
200.986509911
 20
171.457848887
 30
0.000000000
 11
202.681981386
 21
171.457848887
 31
0.000000000
  0
LINE
  5
B71
330
A02
100
AcDbEntity
  8
PFD_View
100
AcDbLine
 10
202.871048428
 20
169.561046562
 30
0.000000000
 11
204.597179424
 21
174.061046562
 31
0.000000000
  0
LINE
  5
B72
330
A02
100
AcDbEntity
  8
PFD_View
100
AcDbLine
 10
203.502634548
 20
169.561046562
 30
0.000000000
 11
202.871048428
 21
169.561046562
 31
0.000000000
  0
LINE
  5
B73
330
A02
100
AcDbEntity
  8
PFD_View
100
AcDbLine
 10
203.996252825
 20
170.921511678
 30
0.000000000
 11
203.502634548
 21
169.561046562
 31
0.000000000
  0
LINE
  5
B74
330
A02
100
AcDbEntity
  8
PFD_View
100
AcDbLine
 10
205.875681423
 20
170.921511678
 30
0.000000000
 11
203.996252825
 21
170.921511678
 31
0.000000000
  0
LINE
  5
B75
330
A02
100
AcDbEntity
  8
PFD_View
100
AcDbLine
 10
206.399959221
 20
169.561046562
 30
0.000000000
 11
205.875681423
 21
170.921511678
 31
0.000000000
  0
LINE
  5
B76
330
A02
100
AcDbEntity
  8
PFD_View
100
AcDbLine
 10
207.077534620
 20
169.561046562
 30
0.000000000
 11
206.399959221
 21
169.561046562
 31
0.000000000
  0
LINE
  5
B77
330
A02
100
AcDbEntity
  8
PFD_View
100
AcDbLine
 10
205.237963399
 20
174.061046562
 30
0.000000000
 11
207.077534620
 21
169.561046562
 31
0.000000000
  0
LINE
  5
B78
330
A02
100
AcDbEntity
  8
PFD_View
100
AcDbLine
 10
204.597179424
 20
174.061046562
 30
0.000000000
 11
205.237963399
 21
174.061046562
 31
0.000000000
  0
LINE
  5
B79
330
A02
100
AcDbEntity
  8
PFD_View
100
AcDbLine
 10
204.167946139
 20
171.405523306
 30
0.000000000
 11
205.691724301
 21
171.405523306
 31
0.000000000
  0
LINE
  5
B7A
330
A02
100
AcDbEntity
  8
PFD_View
100
AcDbLine
 10
204.661564417
 20
172.726131046
 30
0.000000000
 11
204.167946139
 21
171.405523306
 31
0.000000000
  0
SPLINE
  5
B7B
330
A02
100
AcDbEntity
  8
PFD_View
100
AcDbSpline
210
0
220
0
230
1
 70
8
 71
2
 72
6
 73
3
 74
0
 40
0.000000000
 40
0.000000000
 40
0.000000000
 40
1.000000000
 40
1.000000000
 40
1.000000000
 10
204.903774628
 20
173.590116329
 30
0.000000000
 10
204.817927971
 20
173.154751140
 30
0.000000000
 10
204.661564417
 20
172.726131046
 30
0.000000000
  0
SPLINE
  5
B7C
330
A02
100
AcDbEntity
  8
PFD_View
100
AcDbSpline
210
0
220
0
230
1
 70
8
 71
2
 72
6
 73
3
 74
0
 40
0.000000000
 40
0.000000000
 40
0.000000000
 40
1.000000000
 40
1.000000000
 40
1.000000000
 10
205.222633639
 20
172.652139403
 30
0.000000000
 10
205.008016997
 20
173.220566910
 30
0.000000000
 10
204.903774628
 20
173.590116329
 30
0.000000000
  0
LINE
  5
B7D
330
A02
100
AcDbEntity
  8
PFD_View
100
AcDbLine
 10
205.691724301
 20
171.405523306
 30
0.000000000
 11
205.222633639
 21
172.652139403
 31
0.000000000
  0
LINE
  5
B7E
330
A02
100
AcDbEntity
  8
PFD_View
100
AcDbLine
 10
209.405614199
 20
169.561046562
 30
0.000000000
 11
208.853742833
 21
169.561046562
 31
0.000000000
  0
LINE
  5
B7F
330
A02
100
AcDbEntity
  8
PFD_View
100
AcDbLine
 10
209.405614199
 20
174.087209352
 30
0.000000000
 11
209.405614199
 21
169.561046562
 31
0.000000000
  0
LINE
  5
B80
330
A02
100
AcDbEntity
  8
PFD_View
100
AcDbLine
 10
209.049963763
 20
174.087209352
 30
0.000000000
 11
209.405614199
 21
174.087209352
 31
0.000000000
  0
SPLINE
  5
B81
330
A02
100
AcDbEntity
  8
PFD_View
100
AcDbSpline
210
0
220
0
230
1
 70
8
 71
2
 72
6
 73
3
 74
0
 40
0.000000000
 40
0.000000000
 40
0.000000000
 40
1.000000000
 40
1.000000000
 40
1.000000000
 10
208.559411437
 20
173.484443182
 30
0.000000000
 10
208.905864017
 20
173.795126322
 30
0.000000000
 10
209.049963763
 20
174.087209352
 30
0.000000000
  0
SPLINE
  5
B82
330
A02
100
AcDbEntity
  8
PFD_View
100
AcDbSpline
210
0
220
0
230
1
 70
8
 71
2
 72
6
 73
3
 74
0
 40
0.000000000
 40
0.000000000
 40
0.000000000
 40
1.000000000
 40
1.000000000
 40
1.000000000
 10
207.750000100
 20
172.955668655
 30
0.000000000
 10
208.212958857
 20
173.173964440
 30
0.000000000
 10
208.559411437
 20
173.484443182
 30
0.000000000
  0
LINE
  5
B83
330
A02
100
AcDbEntity
  8
PFD_View
100
AcDbLine
 10
207.750000100
 20
172.420557826
 30
0.000000000
 11
207.750000100
 21
172.955668655
 31
0.000000000
  0
SPLINE
  5
B84
330
A02
100
AcDbEntity
  8
PFD_View
100
AcDbSpline
210
0
220
0
230
1
 70
8
 71
2
 72
6
 73
3
 74
0
 40
0.000000000
 40
0.000000000
 40
0.000000000
 40
1.000000000
 40
1.000000000
 40
1.000000000
 10
208.330895812
 20
172.706508953
 30
0.000000000
 10
208.007540071
 20
172.515806736
 30
0.000000000
 10
207.750000100
 20
172.420557826
 30
0.000000000
  0
SPLINE
  5
B85
330
A02
100
AcDbEntity
  8
PFD_View
100
AcDbSpline
210
0
220
0
230
1
 70
8
 71
2
 72
6
 73
3
 74
0
 40
0.000000000
 40
0.000000000
 40
0.000000000
 40
1.000000000
 40
1.000000000
 40
1.000000000
 10
208.853742833
 20
173.087913386
 30
0.000000000
 10
208.654455950
 20
172.897211169
 30
0.000000000
 10
208.330895812
 20
172.706508953
 30
0.000000000
  0
LINE
  5
B86
330
A02
100
AcDbEntity
  8
PFD_View
100
AcDbLine
 10
208.853742833
 20
169.561046562
 30
0.000000000
 11
208.853742833
 21
173.087913386
 31
0.000000000
  0
LINE
  5
B87
330
A02
100
AcDbEntity
  8
PFD_View
100
AcDbLine
 10
210.549827498
 20
169.561046562
 30
0.000000000
 11
212.275958494
 21
174.061046562
 31
0.000000000
  0
LINE
  5
B88
330
A02
100
AcDbEntity
  8
PFD_View
100
AcDbLine
 10
211.181413617
 20
169.561046562
 30
0.000000000
 11
210.549827498
 21
169.561046562
 31
0.000000000
  0
LINE
  5
B89
330
A02
100
AcDbEntity
  8
PFD_View
100
AcDbLine
 10
211.675031895
 20
170.921511678
 30
0.000000000
 11
211.181413617
 21
169.561046562
 31
0.000000000
  0
LINE
  5
B8A
330
A02
100
AcDbEntity
  8
PFD_View
100
AcDbLine
 10
213.554460492
 20
170.921511678
 30
0.000000000
 11
211.675031895
 21
170.921511678
 31
0.000000000
  0
LINE
  5
B8B
330
A02
100
AcDbEntity
  8
PFD_View
100
AcDbLine
 10
214.078738290
 20
169.561046562
 30
0.000000000
 11
213.554460492
 21
170.921511678
 31
0.000000000
  0
LINE
  5
B8C
330
A02
100
AcDbEntity
  8
PFD_View
100
AcDbLine
 10
214.756313690
 20
169.561046562
 30
0.000000000
 11
214.078738290
 21
169.561046562
 31
0.000000000
  0
LINE
  5
B8D
330
A02
100
AcDbEntity
  8
PFD_View
100
AcDbLine
 10
212.916742469
 20
174.061046562
 30
0.000000000
 11
214.756313690
 21
169.561046562
 31
0.000000000
  0
LINE
  5
B8E
330
A02
100
AcDbEntity
  8
PFD_View
100
AcDbLine
 10
212.275958494
 20
174.061046562
 30
0.000000000
 11
212.916742469
 21
174.061046562
 31
0.000000000
  0
LINE
  5
B8F
330
A02
100
AcDbEntity
  8
PFD_View
100
AcDbLine
 10
211.846725209
 20
171.405523306
 30
0.000000000
 11
213.370503370
 21
171.405523306
 31
0.000000000
  0
LINE
  5
B90
330
A02
100
AcDbEntity
  8
PFD_View
100
AcDbLine
 10
212.340343487
 20
172.726131046
 30
0.000000000
 11
211.846725209
 21
171.405523306
 31
0.000000000
  0
SPLINE
  5
B91
330
A02
100
AcDbEntity
  8
PFD_View
100
AcDbSpline
210
0
220
0
230
1
 70
8
 71
2
 72
6
 73
3
 74
0
 40
0.000000000
 40
0.000000000
 40
0.000000000
 40
1.000000000
 40
1.000000000
 40
1.000000000
 10
212.582553697
 20
173.590116329
 30
0.000000000
 10
212.496707040
 20
173.154751140
 30
0.000000000
 10
212.340343487
 20
172.726131046
 30
0.000000000
  0
SPLINE
  5
B92
330
A02
100
AcDbEntity
  8
PFD_View
100
AcDbSpline
210
0
220
0
230
1
 70
8
 71
2
 72
6
 73
3
 74
0
 40
0.000000000
 40
0.000000000
 40
0.000000000
 40
1.000000000
 40
1.000000000
 40
1.000000000
 10
212.901412709
 20
172.652139403
 30
0.000000000
 10
212.686796067
 20
173.220566910
 30
0.000000000
 10
212.582553697
 20
173.590116329
 30
0.000000000
  0
LINE
  5
B93
330
A02
100
AcDbEntity
  8
PFD_View
100
AcDbLine
 10
213.370503370
 20
171.405523306
 30
0.000000000
 11
212.901412709
 21
172.652139403
 31
0.000000000
  0
LINE
  5
B94
330
A02
100
AcDbEntity
  8
PFD_View
100
AcDbLine
 10
214.944358748
 20
170.908430283
 30
0.000000000
 11
214.944358748
 21
171.457848887
 31
0.000000000
  0
LINE
  5
B95
330
A02
100
AcDbEntity
  8
PFD_View
100
AcDbLine
 10
216.639830224
 20
170.908430283
 30
0.000000000
 11
214.944358748
 21
170.908430283
 31
0.000000000
  0
LINE
  5
B96
330
A02
100
AcDbEntity
  8
PFD_View
100
AcDbLine
 10
216.639830224
 20
171.457848887
 30
0.000000000
 11
216.639830224
 21
170.908430283
 31
0.000000000
  0
LINE
  5
B97
330
A02
100
AcDbEntity
  8
PFD_View
100
AcDbLine
 10
214.944358748
 20
171.457848887
 30
0.000000000
 11
216.639830224
 21
171.457848887
 31
0.000000000
  0
LINE
  5
B98
330
A02
100
AcDbEntity
  8
PFD_View
100
AcDbLine
 10
217.340911256
 20
169.561046562
 30
0.000000000
 11
217.340911256
 21
174.061046562
 31
0.000000000
  0
LINE
  5
B99
330
A02
100
AcDbEntity
  8
PFD_View
100
AcDbLine
 10
217.935705950
 20
169.561046562
 30
0.000000000
 11
217.340911256
 21
169.561046562
 31
0.000000000
  0
LINE
  5
B9A
330
A02
100
AcDbEntity
  8
PFD_View
100
AcDbLine
 10
217.935705950
 20
171.680232608
 30
0.000000000
 11
217.935705950
 21
169.561046562
 31
0.000000000
  0
LINE
  5
B9B
330
A02
100
AcDbEntity
  8
PFD_View
100
AcDbLine
 10
220.271961401
 20
171.680232608
 30
0.000000000
 11
217.935705950
 21
171.680232608
 31
0.000000000
  0
LINE
  5
B9C
330
A02
100
AcDbEntity
  8
PFD_View
100
AcDbLine
 10
220.271961401
 20
169.561046562
 30
0.000000000
 11
220.271961401
 21
171.680232608
 31
0.000000000
  0
LINE
  5
B9D
330
A02
100
AcDbEntity
  8
PFD_View
100
AcDbLine
 10
220.866756096
 20
169.561046562
 30
0.000000000
 11
220.271961401
 21
169.561046562
 31
0.000000000
  0
LINE
  5
B9E
330
A02
100
AcDbEntity
  8
PFD_View
100
AcDbLine
 10
220.866756096
 20
174.061046562
 30
0.000000000
 11
220.866756096
 21
169.561046562
 31
0.000000000
  0
LINE
  5
B9F
330
A02
100
AcDbEntity
  8
PFD_View
100
AcDbLine
 10
220.271961401
 20
174.061046562
 30
0.000000000
 11
220.866756096
 21
174.061046562
 31
0.000000000
  0
LINE
  5
BA0
330
A02
100
AcDbEntity
  8
PFD_View
100
AcDbLine
 10
220.271961401
 20
172.216569817
 30
0.000000000
 11
220.271961401
 21
174.061046562
 31
0.000000000
  0
LINE
  5
BA1
330
A02
100
AcDbEntity
  8
PFD_View
100
AcDbLine
 10
217.935705950
 20
172.216569817
 30
0.000000000
 11
220.271961401
 21
172.216569817
 31
0.000000000
  0
LINE
  5
BA2
330
A02
100
AcDbEntity
  8
PFD_View
100
AcDbLine
 10
217.935705950
 20
174.061046562
 30
0.000000000
 11
217.935705950
 21
172.216569817
 31
0.000000000
  0
LINE
  5
BA3
330
A02
100
AcDbEntity
  8
PFD_View
100
AcDbLine
 10
217.340911256
 20
174.061046562
 30
0.000000000
 11
217.935705950
 21
174.061046562
 31
0.000000000
  0
LINE
  5
BA4
330
A02
100
AcDbEntity
  8
PFD_View
100
AcDbLine
 10
164.500000100
 20
133.319767492
 30
0.000000000
 11
165.185751372
 21
133.383720980
 31
0.000000000
  0
SPLINE
  5
BA5
330
A02
100
AcDbEntity
  8
PFD_View
100
AcDbSpline
210
0
220
0
230
1
 70
8
 71
2
 72
6
 73
3
 74
0
 40
0.000000000
 40
0.000000000
 40
0.000000000
 40
1.000000000
 40
1.000000000
 40
1.000000000
 10
164.801530805
 20
132.334484062
 30
0.000000000
 10
164.514989199
 20
132.770167201
 30
0.000000000
 10
164.500000100
 20
133.319767492
 30
0.000000000
  0
SPLINE
  5
BA6
330
A02
100
AcDbEntity
  8
PFD_View
100
AcDbSpline
210
0
220
0
230
1
 70
8
 71
2
 72
6
 73
3
 74
0
 40
0.000000000
 40
0.000000000
 40
0.000000000
 40
1.000000000
 40
1.000000000
 40
1.000000000
 10
165.592205769
 20
131.681958626
 30
0.000000000
 10
165.088322229
 20
131.898800922
 30
0.000000000
 10
164.801530805
 20
132.334484062
 30
0.000000000
  0
SPLINE
  5
BA7
330
A02
100
AcDbEntity
  8
PFD_View
100
AcDbSpline
210
0
220
0
230
1
 70
8
 71
2
 72
6
 73
3
 74
0
 40
0.000000000
 40
0.000000000
 40
0.000000000
 40
1.000000000
 40
1.000000000
 40
1.000000000
 10
166.842046793
 20
131.465116329
 30
0.000000000
 10
166.096339126
 20
131.465116329
 30
0.000000000
 10
165.592205769
 20
131.681958626
 30
0.000000000
  0
SPLINE
  5
BA8
330
A02
100
AcDbEntity
  8
PFD_View
100
AcDbSpline
210
0
220
0
230
1
 70
8
 71
2
 72
6
 73
3
 74
0
 40
0.000000000
 40
0.000000000
 40
0.000000000
 40
1.000000000
 40
1.000000000
 40
1.000000000
 10
167.900526990
 20
131.680459716
 30
0.000000000
 10
167.430368923
 20
131.465116329
 30
0.000000000
 10
166.842046793
 20
131.465116329
 30
0.000000000
  0
SPLINE
  5
BA9
330
A02
100
AcDbEntity
  8
PFD_View
100
AcDbSpline
210
0
220
0
230
1
 70
8
 71
2
 72
6
 73
3
 74
0
 40
0.000000000
 40
0.000000000
 40
0.000000000
 40
1.000000000
 40
1.000000000
 40
1.000000000
 10
168.622002280
 20
132.283770944
 30
0.000000000
 10
168.370934875
 20
131.896052921
 30
0.000000000
 10
167.900526990
 20
131.680459716
 30
0.000000000
  0
SPLINE
  5
BAA
330
A02
100
AcDbEntity
  8
PFD_View
100
AcDbSpline
210
0
220
0
230
1
 70
8
 71
2
 72
6
 73
3
 74
0
 40
0.000000000
 40
0.000000000
 40
0.000000000
 40
1.000000000
 40
1.000000000
 40
1.000000000
 10
168.873069686
 20
133.109920108
 30
0.000000000
 10
168.873069686
 20
132.671488967
 30
0.000000000
 10
168.622002280
 20
132.283770944
 30
0.000000000
  0
SPLINE
  5
BAB
330
A02
100
AcDbEntity
  8
PFD_View
100
AcDbSpline
210
0
220
0
230
1
 70
8
 71
2
 72
6
 73
3
 74
0
 40
0.000000000
 40
0.000000000
 40
0.000000000
 40
1.000000000
 40
1.000000000
 40
1.000000000
 10
168.644485928
 20
133.891101976
 30
0.000000000
 10
168.873069686
 20
133.552098524
 30
0.000000000
 10
168.873069686
 20
133.109920108
 30
0.000000000
  0
SPLINE
  5
BAC
330
A02
100
AcDbEntity
  8
PFD_View
100
AcDbSpline
210
0
220
0
230
1
 70
8
 71
2
 72
6
 73
3
 74
0
 40
0.000000000
 40
0.000000000
 40
0.000000000
 40
1.000000000
 40
1.000000000
 40
1.000000000
 10
167.936251008
 20
134.451194636
 30
0.000000000
 10
168.415902171
 20
134.230105428
 30
0.000000000
 10
168.644485928
 20
133.891101976
 30
0.000000000
  0
SPLINE
  5
BAD
330
A02
100
AcDbEntity
  8
PFD_View
100
AcDbSpline
210
0
220
0
230
1
 70
8
 71
2
 72
6
 73
3
 74
0
 40
0.000000000
 40
0.000000000
 40
0.000000000
 40
1.000000000
 40
1.000000000
 40
1.000000000
 10
166.720135456
 20
134.801190094
 30
0.000000000
 10
167.606490834
 20
134.601085624
 30
0.000000000
 10
167.936251008
 20
134.451194636
 30
0.000000000
  0
SPLINE
  5
BAE
330
A02
100
AcDbEntity
  8
PFD_View
100
AcDbSpline
210
0
220
0
230
1
 70
8
 71
2
 72
6
 73
3
 74
0
 40
0.000000000
 40
0.000000000
 40
0.000000000
 40
1.000000000
 40
1.000000000
 40
1.000000000
 10
165.624182513
 20
135.191905937
 30
0.000000000
 10
165.834029897
 20
135.001294563
 30
0.000000000
 10
166.720135456
 20
134.801190094
 30
0.000000000
  0
SPLINE
  5
BAF
330
A02
100
AcDbEntity
  8
PFD_View
100
AcDbSpline
210
0
220
0
230
1
 70
8
 71
2
 72
6
 73
3
 74
0
 40
0.000000000
 40
0.000000000
 40
0.000000000
 40
1.000000000
 40
1.000000000
 40
1.000000000
 10
165.410587854
 20
135.678302194
 30
0.000000000
 10
165.410587854
 20
135.382767128
 30
0.000000000
 10
165.624182513
 20
135.191905937
 30
0.000000000
  0
SPLINE
  5
BB0
330
A02
100
AcDbEntity
  8
PFD_View
100
AcDbSpline
210
0
220
0
230
1
 70
8
 71
2
 72
6
 73
3
 74
0
 40
0.000000000
 40
0.000000000
 40
0.000000000
 40
1.000000000
 40
1.000000000
 40
1.000000000
 10
165.712118559
 20
136.260129047
 30
0.000000000
 10
165.410587854
 20
136.018804556
 30
0.000000000
 10
165.410587854
 20
135.678302194
 30
0.000000000
  0
SPLINE
  5
BB1
330
A02
100
AcDbEntity
  8
PFD_View
100
AcDbSpline
210
0
220
0
230
1
 70
8
 71
2
 72
6
 73
3
 74
0
 40
0.000000000
 40
0.000000000
 40
0.000000000
 40
1.000000000
 40
1.000000000
 40
1.000000000
 10
166.673419431
 20
136.501453538
 30
0.000000000
 10
166.013899083
 20
136.501453538
 30
0.000000000
 10
165.712118559
 20
136.260129047
 30
0.000000000
  0
SPLINE
  5
BB2
330
A02
100
AcDbEntity
  8
PFD_View
100
AcDbSpline
210
0
220
0
230
1
 70
8
 71
2
 72
6
 73
3
 74
0
 40
0.000000000
 40
0.000000000
 40
0.000000000
 40
1.000000000
 40
1.000000000
 40
1.000000000
 10
167.630723210
 20
136.238894490
 30
0.000000000
 10
167.306708857
 20
136.501453538
 30
0.000000000
 10
166.673419431
 20
136.501453538
 30
0.000000000
  0
SPLINE
  5
BB3
330
A02
100
AcDbEntity
  8
PFD_View
100
AcDbSpline
210
0
220
0
230
1
 70
8
 71
2
 72
6
 73
3
 74
0
 40
0.000000000
 40
0.000000000
 40
0.000000000
 40
1.000000000
 40
1.000000000
 40
1.000000000
 10
168.011196503
 20
135.462209352
 30
0.000000000
 10
167.954987382
 20
135.976335442
 30
0.000000000
 10
167.630723210
 20
136.238894490
 30
0.000000000
  0
LINE
  5
BB4
330
A02
100
AcDbEntity
  8
PFD_View
100
AcDbLine
 10
168.708189599
 20
135.510174469
 30
0.000000000
 11
168.011196503
 21
135.462209352
 31
0.000000000
  0
SPLINE
  5
BB5
330
A02
100
AcDbEntity
  8
PFD_View
100
AcDbSpline
210
0
220
0
230
1
 70
8
 71
2
 72
6
 73
3
 74
0
 40
0.000000000
 40
0.000000000
 40
0.000000000
 40
1.000000000
 40
1.000000000
 40
1.000000000
 10
168.438385819
 20
136.378542928
 30
0.000000000
 10
168.689453225
 20
135.995071816
 30
0.000000000
 10
168.708189599
 20
135.510174469
 30
0.000000000
  0
SPLINE
  5
BB6
330
A02
100
AcDbEntity
  8
PFD_View
100
AcDbSpline
210
0
220
0
230
1
 70
8
 71
2
 72
6
 73
3
 74
0
 40
0.000000000
 40
0.000000000
 40
0.000000000
 40
1.000000000
 40
1.000000000
 40
1.000000000
 10
167.720657803
 20
136.959620326
 30
0.000000000
 10
168.187318414
 20
136.762263858
 30
0.000000000
 10
168.438385819
 20
136.378542928
 30
0.000000000
  0
SPLINE
  5
BB7
330
A02
100
AcDbEntity
  8
PFD_View
100
AcDbSpline
210
0
220
0
230
1
 70
8
 71
2
 72
6
 73
3
 74
0
 40
0.000000000
 40
0.000000000
 40
0.000000000
 40
1.000000000
 40
1.000000000
 40
1.000000000
 10
166.643441234
 20
137.156976794
 30
0.000000000
 10
167.254247011
 20
137.156976794
 30
0.000000000
 10
167.720657803
 20
136.959620326
 30
0.000000000
  0
SPLINE
  5
BB8
330
A02
100
AcDbEntity
  8
PFD_View
100
AcDbSpline
210
0
220
0
230
1
 70
8
 71
2
 72
6
 73
3
 74
0
 40
0.000000000
 40
0.000000000
 40
0.000000000
 40
1.000000000
 40
1.000000000
 40
1.000000000
 10
165.635424337
 20
136.968863604
 30
0.000000000
 10
166.088844577
 20
137.156976794
 30
0.000000000
 10
166.643441234
 20
137.156976794
 30
0.000000000
  0
SPLINE
  5
BB9
330
A02
100
AcDbEntity
  8
PFD_View
100
AcDbSpline
210
0
220
0
230
1
 70
8
 71
2
 72
6
 73
3
 74
0
 40
0.000000000
 40
0.000000000
 40
0.000000000
 40
1.000000000
 40
1.000000000
 40
1.000000000
 10
164.945925790
 20
136.417764403
 30
0.000000000
 10
165.182004097
 20
136.780750413
 30
0.000000000
 10
165.635424337
 20
136.968863604
 30
0.000000000
  0
SPLINE
  5
BBA
330
A02
100
AcDbEntity
  8
PFD_View
100
AcDbSpline
210
0
220
0
230
1
 70
8
 71
2
 72
6
 73
3
 74
0
 40
0.000000000
 40
0.000000000
 40
0.000000000
 40
1.000000000
 40
1.000000000
 40
1.000000000
 10
164.709847484
 20
135.637331990
 30
0.000000000
 10
164.709847484
 20
136.054778393
 30
0.000000000
 10
164.945925790
 20
136.417764403
 30
0.000000000
  0
SPLINE
  5
BBB
330
A02
100
AcDbEntity
  8
PFD_View
100
AcDbSpline
210
0
220
0
230
1
 70
8
 71
2
 72
6
 73
3
 74
0
 40
0.000000000
 40
0.000000000
 40
0.000000000
 40
1.000000000
 40
1.000000000
 40
1.000000000
 10
164.902707222
 20
134.950831264
 30
0.000000000
 10
164.709847484
 20
135.257358335
 30
0.000000000
 10
164.709847484
 20
135.637331990
 30
0.000000000
  0
SPLINE
  5
BBC
330
A02
100
AcDbEntity
  8
PFD_View
100
AcDbSpline
210
0
220
0
230
1
 70
8
 71
2
 72
6
 73
3
 74
0
 40
0.000000000
 40
0.000000000
 40
0.000000000
 40
1.000000000
 40
1.000000000
 40
1.000000000
 10
165.489280623
 20
134.437204810
 30
0.000000000
 10
165.095816779
 20
134.644304192
 30
0.000000000
 10
164.902707222
 20
134.950831264
 30
0.000000000
  0
SPLINE
  5
BBD
330
A02
100
AcDbEntity
  8
PFD_View
100
AcDbSpline
210
0
220
0
230
1
 70
8
 71
2
 72
6
 73
3
 74
0
 40
0.000000000
 40
0.000000000
 40
0.000000000
 40
1.000000000
 40
1.000000000
 40
1.000000000
 10
166.549759366
 20
134.093954447
 30
0.000000000
 10
165.792809875
 20
134.275572361
 30
0.000000000
 10
165.489280623
 20
134.437204810
 30
0.000000000
  0
SPLINE
  5
BBE
330
A02
100
AcDbEntity
  8
PFD_View
100
AcDbSpline
210
0
220
0
230
1
 70
8
 71
2
 72
6
 73
3
 74
0
 40
0.000000000
 40
0.000000000
 40
0.000000000
 40
1.000000000
 40
1.000000000
 40
1.000000000
 10
167.527798065
 20
133.826648851
 30
0.000000000
 10
167.306708857
 20
133.912586351
 30
0.000000000
 10
166.549759366
 20
134.093954447
 30
0.000000000
  0
SPLINE
  5
BBF
330
A02
100
AcDbEntity
  8
PFD_View
100
AcDbSpline
210
0
220
0
230
1
 70
8
 71
2
 72
6
 73
3
 74
0
 40
0.000000000
 40
0.000000000
 40
0.000000000
 40
1.000000000
 40
1.000000000
 40
1.000000000
 10
168.022438327
 20
133.502884316
 30
0.000000000
 10
167.872547338
 20
133.695744054
 30
0.000000000
 10
167.527798065
 20
133.826648851
 30
0.000000000
  0
SPLINE
  5
BC0
330
A02
100
AcDbEntity
  8
PFD_View
100
AcDbSpline
210
0
220
0
230
1
 70
8
 71
2
 72
6
 73
3
 74
0
 40
0.000000000
 40
0.000000000
 40
0.000000000
 40
1.000000000
 40
1.000000000
 40
1.000000000
 10
168.172329315
 20
133.051712441
 30
0.000000000
 10
168.172329315
 20
133.310024578
 30
0.000000000
 10
168.022438327
 20
133.502884316
 30
0.000000000
  0
SPLINE
  5
BC1
330
A02
100
AcDbEntity
  8
PFD_View
100
AcDbSpline
210
0
220
0
230
1
 70
8
 71
2
 72
6
 73
3
 74
0
 40
0.000000000
 40
0.000000000
 40
0.000000000
 40
1.000000000
 40
1.000000000
 40
1.000000000
 10
168.016692506
 20
132.582054011
 30
0.000000000
 10
168.172329315
 20
132.797147579
 30
0.000000000
 10
168.172329315
 20
133.051712441
 30
0.000000000
  0
SPLINE
  5
BC2
330
A02
100
AcDbEntity
  8
PFD_View
100
AcDbSpline
210
0
220
0
230
1
 70
8
 71
2
 72
6
 73
3
 74
0
 40
0.000000000
 40
0.000000000
 40
0.000000000
 40
1.000000000
 40
1.000000000
 40
1.000000000
 10
167.542787164
 20
132.243800014
 30
0.000000000
 10
167.861305514
 20
132.367210261
 30
0.000000000
 10
168.016692506
 20
132.582054011
 30
0.000000000
  0
SPLINE
  5
BC3
330
A02
100
AcDbEntity
  8
PFD_View
100
AcDbSpline
210
0
220
0
230
1
 70
8
 71
2
 72
6
 73
3
 74
0
 40
0.000000000
 40
0.000000000
 40
0.000000000
 40
1.000000000
 40
1.000000000
 40
1.000000000
 10
166.808321321
 20
132.120639585
 30
0.000000000
 10
167.224268814
 20
132.120639585
 30
0.000000000
 10
167.542787164
 20
132.243800014
 30
0.000000000
  0
SPLINE
  5
BC4
330
A02
100
AcDbEntity
  8
PFD_View
100
AcDbSpline
210
0
220
0
230
1
 70
8
 71
2
 72
6
 73
3
 74
0
 40
0.000000000
 40
0.000000000
 40
0.000000000
 40
1.000000000
 40
1.000000000
 40
1.000000000
 10
165.965184511
 20
132.283021489
 30
0.000000000
 10
166.339911982
 20
132.120639585
 30
0.000000000
 10
166.808321321
 20
132.120639585
 30
0.000000000
  0
SPLINE
  5
BC5
330
A02
100
AcDbEntity
  8
PFD_View
100
AcDbSpline
210
0
220
0
230
1
 70
8
 71
2
 72
6
 73
3
 74
0
 40
0.000000000
 40
0.000000000
 40
0.000000000
 40
1.000000000
 40
1.000000000
 40
1.000000000
 10
165.412336583
 20
132.709211533
 30
0.000000000
 10
165.590457040
 20
132.445653211
 30
0.000000000
 10
165.965184511
 20
132.283021489
 30
0.000000000
  0
SPLINE
  5
BC6
330
A02
100
AcDbEntity
  8
PFD_View
100
AcDbSpline
210
0
220
0
230
1
 70
8
 71
2
 72
6
 73
3
 74
0
 40
0.000000000
 40
0.000000000
 40
0.000000000
 40
1.000000000
 40
1.000000000
 40
1.000000000
 10
165.185751372
 20
133.383720980
 30
0.000000000
 10
165.234465943
 20
132.972769854
 30
0.000000000
 10
165.412336583
 20
132.709211533
 30
0.000000000
  0
LINE
  5
BC7
330
A02
100
AcDbEntity
  8
PFD_View
100
AcDbLine
 10
169.515102753
 20
133.207848887
 30
0.000000000
 11
169.515102753
 21
133.879360515
 31
0.000000000
  0
LINE
  5
BC8
330
A02
100
AcDbEntity
  8
PFD_View
100
AcDbLine
 10
171.587345667
 20
133.207848887
 30
0.000000000
 11
169.515102753
 21
133.207848887
 31
0.000000000
  0
LINE
  5
BC9
330
A02
100
AcDbEntity
  8
PFD_View
100
AcDbLine
 10
171.587345667
 20
133.879360515
 30
0.000000000
 11
171.587345667
 21
133.207848887
 31
0.000000000
  0
LINE
  5
BCA
330
A02
100
AcDbEntity
  8
PFD_View
100
AcDbLine
 10
169.515102753
 20
133.879360515
 30
0.000000000
 11
171.587345667
 21
133.879360515
 31
0.000000000
  0
LINE
  5
BCB
330
A02
100
AcDbEntity
  8
PFD_View
100
AcDbLine
 10
174.688840035
 20
131.561046562
 30
0.000000000
 11
174.014330587
 21
131.561046562
 31
0.000000000
  0
LINE
  5
BCC
330
A02
100
AcDbEntity
  8
PFD_View
100
AcDbLine
 10
174.688840035
 20
137.093023306
 30
0.000000000
 11
174.688840035
 21
131.561046562
 31
0.000000000
  0
LINE
  5
BCD
330
A02
100
AcDbEntity
  8
PFD_View
100
AcDbLine
 10
174.254156168
 20
137.093023306
 30
0.000000000
 11
174.688840035
 21
137.093023306
 31
0.000000000
  0
SPLINE
  5
BCE
330
A02
100
AcDbEntity
  8
PFD_View
100
AcDbSpline
210
0
220
0
230
1
 70
8
 71
2
 72
6
 73
3
 74
0
 40
0.000000000
 40
0.000000000
 40
0.000000000
 40
1.000000000
 40
1.000000000
 40
1.000000000
 10
173.654592215
 20
136.356309098
 30
0.000000000
 10
174.078034257
 20
136.736032935
 30
0.000000000
 10
174.254156168
 20
137.093023306
 30
0.000000000
  0
SPLINE
  5
BCF
330
A02
100
AcDbEntity
  8
PFD_View
100
AcDbSpline
210
0
220
0
230
1
 70
8
 71
2
 72
6
 73
3
 74
0
 40
0.000000000
 40
0.000000000
 40
0.000000000
 40
1.000000000
 40
1.000000000
 40
1.000000000
 10
172.665311692
 20
135.710029120
 30
0.000000000
 10
173.231150173
 20
135.976835079
 30
0.000000000
 10
173.654592215
 20
136.356309098
 30
0.000000000
  0
LINE
  5
BD0
330
A02
100
AcDbEntity
  8
PFD_View
100
AcDbLine
 10
172.665311692
 20
135.056004774
 30
0.000000000
 11
172.665311692
 21
135.710029120
 31
0.000000000
  0
SPLINE
  5
BD1
330
A02
100
AcDbEntity
  8
PFD_View
100
AcDbSpline
210
0
220
0
230
1
 70
8
 71
2
 72
6
 73
3
 74
0
 40
0.000000000
 40
0.000000000
 40
0.000000000
 40
1.000000000
 40
1.000000000
 40
1.000000000
 10
173.375295340
 20
135.405500595
 30
0.000000000
 10
172.980082767
 20
135.172420108
 30
0.000000000
 10
172.665311692
 20
135.056004774
 30
0.000000000
  0
SPLINE
  5
BD2
330
A02
100
AcDbEntity
  8
PFD_View
100
AcDbSpline
210
0
220
0
230
1
 70
8
 71
2
 72
6
 73
3
 74
0
 40
0.000000000
 40
0.000000000
 40
0.000000000
 40
1.000000000
 40
1.000000000
 40
1.000000000
 10
174.014330587
 20
135.871661569
 30
0.000000000
 10
173.770757731
 20
135.638581082
 30
0.000000000
 10
173.375295340
 20
135.405500595
 30
0.000000000
  0
LINE
  5
BD3
330
A02
100
AcDbEntity
  8
PFD_View
100
AcDbLine
 10
174.014330587
 20
131.561046562
 30
0.000000000
 11
174.014330587
 21
135.871661569
 31
0.000000000
  0
SPLINE
  5
BD4
330
A02
100
AcDbEntity
  8
PFD_View
100
AcDbSpline
210
0
220
0
230
1
 70
8
 71
2
 72
6
 73
3
 74
0
 40
0.000000000
 40
0.000000000
 40
0.000000000
 40
1.000000000
 40
1.000000000
 40
1.000000000
 10
176.417083131
 20
134.277071271
 30
0.000000000
 10
176.417083131
 20
135.254610333
 30
0.000000000
 10
176.617437418
 20
135.850427012
 30
0.000000000
  0
SPLINE
  5
BD5
330
A02
100
AcDbEntity
  8
PFD_View
100
AcDbSpline
210
0
220
0
230
1
 70
8
 71
2
 72
6
 73
3
 74
0
 40
0.000000000
 40
0.000000000
 40
0.000000000
 40
1.000000000
 40
1.000000000
 40
1.000000000
 10
176.960437963
 20
132.036450813
 30
0.000000000
 10
176.417083131
 20
132.724450450
 30
0.000000000
 10
176.417083131
 20
134.277071271
 30
0.000000000
  0
SPLINE
  5
BD6
330
A02
100
AcDbEntity
  8
PFD_View
100
AcDbSpline
210
0
220
0
230
1
 70
8
 71
2
 72
6
 73
3
 74
0
 40
0.000000000
 40
0.000000000
 40
0.000000000
 40
1.000000000
 40
1.000000000
 40
1.000000000
 10
178.208280442
 20
131.465116329
 30
0.000000000
 10
177.413858203
 20
131.465116329
 30
0.000000000
 10
176.960437963
 20
132.036450813
 30
0.000000000
  0
SPLINE
  5
BD7
330
A02
100
AcDbEntity
  8
PFD_View
100
AcDbSpline
210
0
220
0
230
1
 70
8
 71
2
 72
6
 73
3
 74
0
 40
0.000000000
 40
0.000000000
 40
0.000000000
 40
1.000000000
 40
1.000000000
 40
1.000000000
 10
179.206804242
 20
131.790129956
 30
0.000000000
 10
178.811591670
 20
131.465116329
 30
0.000000000
 10
178.208280442
 20
131.465116329
 30
0.000000000
  0
SPLINE
  5
BD8
330
A02
100
AcDbEntity
  8
PFD_View
100
AcDbSpline
210
0
220
0
230
1
 70
8
 71
2
 72
6
 73
3
 74
0
 40
0.000000000
 40
0.000000000
 40
0.000000000
 40
1.000000000
 40
1.000000000
 40
1.000000000
 10
179.800872193
 20
132.711210079
 30
0.000000000
 10
179.602266633
 20
132.115393400
 30
0.000000000
 10
179.206804242
 20
131.790129956
 30
0.000000000
  0
SPLINE
  5
BD9
330
A02
100
AcDbEntity
  8
PFD_View
100
AcDbSpline
210
0
220
0
230
1
 70
8
 71
2
 72
6
 73
3
 74
0
 40
0.000000000
 40
0.000000000
 40
0.000000000
 40
1.000000000
 40
1.000000000
 40
1.000000000
 10
179.999477753
 20
134.277071271
 30
0.000000000
 10
179.999477753
 20
133.307276576
 30
0.000000000
 10
179.800872193
 20
132.711210079
 30
0.000000000
  0
SPLINE
  5
BDA
330
A02
100
AcDbEntity
  8
PFD_View
100
AcDbSpline
210
0
220
0
230
1
 70
8
 71
2
 72
6
 73
3
 74
0
 40
0.000000000
 40
0.000000000
 40
0.000000000
 40
1.000000000
 40
1.000000000
 40
1.000000000
 10
179.875817687
 20
135.579873778
 30
0.000000000
 10
179.999477753
 20
135.096725159
 30
0.000000000
 10
179.999477753
 20
134.277071271
 30
0.000000000
  0
SPLINE
  5
BDB
330
A02
100
AcDbEntity
  8
PFD_View
100
AcDbSpline
210
0
220
0
230
1
 70
8
 71
2
 72
6
 73
3
 74
0
 40
0.000000000
 40
0.000000000
 40
0.000000000
 40
1.000000000
 40
1.000000000
 40
1.000000000
 10
179.534815689
 20
136.399277848
 30
0.000000000
 10
179.752157622
 20
136.063022397
 30
0.000000000
 10
179.875817687
 20
135.579873778
 30
0.000000000
  0
SPLINE
  5
BDC
330
A02
100
AcDbEntity
  8
PFD_View
100
AcDbSpline
210
0
220
0
230
1
 70
8
 71
2
 72
6
 73
3
 74
0
 40
0.000000000
 40
0.000000000
 40
0.000000000
 40
1.000000000
 40
1.000000000
 40
1.000000000
 10
178.983966306
 20
136.914403211
 30
0.000000000
 10
179.317473756
 20
136.735783117
 30
0.000000000
 10
179.534815689
 20
136.399277848
 30
0.000000000
  0
SPLINE
  5
BDD
330
A02
100
AcDbEntity
  8
PFD_View
100
AcDbSpline
210
0
220
0
230
1
 70
8
 71
2
 72
6
 73
3
 74
0
 40
0.000000000
 40
0.000000000
 40
0.000000000
 40
1.000000000
 40
1.000000000
 40
1.000000000
 10
178.208280442
 20
137.093023306
 30
0.000000000
 10
178.650458857
 20
137.093023306
 30
0.000000000
 10
178.983966306
 20
136.914403211
 30
0.000000000
  0
SPLINE
  5
BDE
330
A02
100
AcDbEntity
  8
PFD_View
100
AcDbSpline
210
0
220
0
230
1
 70
8
 71
2
 72
6
 73
3
 74
0
 40
0.000000000
 40
0.000000000
 40
0.000000000
 40
1.000000000
 40
1.000000000
 40
1.000000000
 10
177.213254097
 20
136.769758408
 30
0.000000000
 10
177.608716488
 20
137.093023306
 30
0.000000000
 10
178.208280442
 20
137.093023306
 30
0.000000000
  0
SPLINE
  5
BDF
330
A02
100
AcDbEntity
  8
PFD_View
100
AcDbSpline
210
0
220
0
230
1
 70
8
 71
2
 72
6
 73
3
 74
0
 40
0.000000000
 40
0.000000000
 40
0.000000000
 40
1.000000000
 40
1.000000000
 40
1.000000000
 10
176.617437418
 20
135.850427012
 30
0.000000000
 10
176.818041524
 20
136.446493509
 30
0.000000000
 10
177.213254097
 20
136.769758408
 30
0.000000000
  0
SPLINE
  5
BE0
330
A02
100
AcDbEntity
  8
PFD_View
100
AcDbSpline
210
0
220
0
230
1
 70
8
 71
2
 72
6
 73
3
 74
0
 40
0.000000000
 40
0.000000000
 40
0.000000000
 40
1.000000000
 40
1.000000000
 40
1.000000000
 10
177.110328952
 20
134.279069817
 30
0.000000000
 10
177.110328952
 20
132.922806191
 30
0.000000000
 10
177.426848756
 20
132.473632863
 30
0.000000000
  0
SPLINE
  5
BE1
330
A02
100
AcDbEntity
  8
PFD_View
100
AcDbSpline
210
0
220
0
230
1
 70
8
 71
2
 72
6
 73
3
 74
0
 40
0.000000000
 40
0.000000000
 40
0.000000000
 40
1.000000000
 40
1.000000000
 40
1.000000000
 10
177.458825500
 20
136.138967165
 30
0.000000000
 10
177.110328952
 20
135.635333444
 30
0.000000000
 10
177.110328952
 20
134.279069817
 30
0.000000000
  0
SPLINE
  5
BE2
330
A02
100
AcDbEntity
  8
PFD_View
100
AcDbSpline
210
0
220
0
230
1
 70
8
 71
2
 72
6
 73
3
 74
0
 40
0.000000000
 40
0.000000000
 40
0.000000000
 40
1.000000000
 40
1.000000000
 40
1.000000000
 10
178.200785892
 20
136.533430283
 30
0.000000000
 10
177.736123828
 20
136.533430283
 30
0.000000000
 10
177.458825500
 20
136.138967165
 30
0.000000000
  0
SPLINE
  5
BE3
330
A02
100
AcDbEntity
  8
PFD_View
100
AcDbSpline
210
0
220
0
230
1
 70
8
 71
2
 72
6
 73
3
 74
0
 40
0.000000000
 40
0.000000000
 40
0.000000000
 40
1.000000000
 40
1.000000000
 40
1.000000000
 10
178.989462309
 20
136.086255501
 30
0.000000000
 10
178.672942506
 20
136.533430283
 30
0.000000000
 10
178.200785892
 20
136.533430283
 30
0.000000000
  0
SPLINE
  5
BE4
330
A02
100
AcDbEntity
  8
PFD_View
100
AcDbSpline
210
0
220
0
230
1
 70
8
 71
2
 72
6
 73
3
 74
0
 40
0.000000000
 40
0.000000000
 40
0.000000000
 40
1.000000000
 40
1.000000000
 40
1.000000000
 10
179.306231931
 20
134.279069817
 30
0.000000000
 10
179.306231931
 20
135.639080719
 30
0.000000000
 10
178.989462309
 20
136.086255501
 30
0.000000000
  0
SPLINE
  5
BE5
330
A02
100
AcDbEntity
  8
PFD_View
100
AcDbSpline
210
0
220
0
230
1
 70
8
 71
2
 72
6
 73
3
 74
0
 40
0.000000000
 40
0.000000000
 40
0.000000000
 40
1.000000000
 40
1.000000000
 40
1.000000000
 10
178.989462309
 20
132.475631409
 30
0.000000000
 10
179.306231931
 20
132.926553466
 30
0.000000000
 10
179.306231931
 20
134.279069817
 30
0.000000000
  0
SPLINE
  5
BE6
330
A02
100
AcDbEntity
  8
PFD_View
100
AcDbSpline
210
0
220
0
230
1
 70
8
 71
2
 72
6
 73
3
 74
0
 40
0.000000000
 40
0.000000000
 40
0.000000000
 40
1.000000000
 40
1.000000000
 40
1.000000000
 10
178.208280442
 20
132.024709352
 30
0.000000000
 10
178.672942506
 20
132.024709352
 30
0.000000000
 10
178.989462309
 20
132.475631409
 30
0.000000000
  0
SPLINE
  5
BE7
330
A02
100
AcDbEntity
  8
PFD_View
100
AcDbSpline
210
0
220
0
230
1
 70
8
 71
2
 72
6
 73
3
 74
0
 40
0.000000000
 40
0.000000000
 40
0.000000000
 40
1.000000000
 40
1.000000000
 40
1.000000000
 10
177.426848756
 20
132.473632863
 30
0.000000000
 10
177.743618378
 20
132.024709352
 30
0.000000000
 10
178.208280442
 20
132.024709352
 30
0.000000000
  0
LINE
  5
BE8
330
A02
100
AcDbEntity
  8
PFD_View
100
AcDbLine
 10
184.230900354
 20
132.216569817
 30
0.000000000
 11
184.230900354
 21
131.561046562
 31
0.000000000
  0
LINE
  5
BE9
330
A02
100
AcDbEntity
  8
PFD_View
100
AcDbLine
 10
181.536609838
 20
132.216569817
 30
0.000000000
 11
184.230900354
 21
132.216569817
 31
0.000000000
  0
SPLINE
  5
BEA
330
A02
100
AcDbEntity
  8
PFD_View
100
AcDbSpline
210
0
220
0
230
1
 70
8
 71
2
 72
6
 73
3
 74
0
 40
0.000000000
 40
0.000000000
 40
0.000000000
 40
1.000000000
 40
1.000000000
 40
1.000000000
 10
181.821402716
 20
132.582553647
 30
0.000000000
 10
181.649028080
 20
132.400436097
 30
0.000000000
 10
181.536609838
 20
132.216569817
 30
0.000000000
  0
SPLINE
  5
BEB
330
A02
100
AcDbEntity
  8
PFD_View
100
AcDbSpline
210
0
220
0
230
1
 70
8
 71
2
 72
6
 73
3
 74
0
 40
0.000000000
 40
0.000000000
 40
0.000000000
 40
1.000000000
 40
1.000000000
 40
1.000000000
 10
182.600835856
 20
133.275299832
 30
0.000000000
 10
181.993777353
 20
132.764671198
 30
0.000000000
 10
181.821402716
 20
132.582553647
 30
0.000000000
  0
SPLINE
  5
BEC
330
A02
100
AcDbEntity
  8
PFD_View
100
AcDbSpline
210
0
220
0
230
1
 70
8
 71
2
 72
6
 73
3
 74
0
 40
0.000000000
 40
0.000000000
 40
0.000000000
 40
1.000000000
 40
1.000000000
 40
1.000000000
 10
183.640579678
 20
134.243595617
 30
0.000000000
 10
183.327807149
 20
133.890852158
 30
0.000000000
 10
182.600835856
 20
133.275299832
 30
0.000000000
  0
SPLINE
  5
BED
330
A02
100
AcDbEntity
  8
PFD_View
100
AcDbSpline
210
0
220
0
230
1
 70
8
 71
2
 72
6
 73
3
 74
0
 40
0.000000000
 40
0.000000000
 40
0.000000000
 40
1.000000000
 40
1.000000000
 40
1.000000000
 10
184.088503915
 20
134.915606881
 30
0.000000000
 10
183.953602026
 20
134.596588894
 30
0.000000000
 10
183.640579678
 20
134.243595617
 30
0.000000000
  0
SPLINE
  5
BEE
330
A02
100
AcDbEntity
  8
PFD_View
100
AcDbSpline
210
0
220
0
230
1
 70
8
 71
2
 72
6
 73
3
 74
0
 40
0.000000000
 40
0.000000000
 40
0.000000000
 40
1.000000000
 40
1.000000000
 40
1.000000000
 10
184.223405805
 20
135.565134498
 30
0.000000000
 10
184.223405805
 20
135.234874687
 30
0.000000000
 10
184.088503915
 20
134.915606881
 30
0.000000000
  0
SPLINE
  5
BEF
330
A02
100
AcDbEntity
  8
PFD_View
100
AcDbSpline
210
0
220
0
230
1
 70
8
 71
2
 72
6
 73
3
 74
0
 40
0.000000000
 40
0.000000000
 40
0.000000000
 40
1.000000000
 40
1.000000000
 40
1.000000000
 10
183.762491016
 20
136.653842710
 30
0.000000000
 10
184.223405805
 20
136.214662114
 30
0.000000000
 10
184.223405805
 20
135.565134498
 30
0.000000000
  0
SPLINE
  5
BF0
330
A02
100
AcDbEntity
  8
PFD_View
100
AcDbSpline
210
0
220
0
230
1
 70
8
 71
2
 72
6
 73
3
 74
0
 40
0.000000000
 40
0.000000000
 40
0.000000000
 40
1.000000000
 40
1.000000000
 40
1.000000000
 10
182.510901263
 20
137.093023306
 30
0.000000000
 10
183.301576226
 20
137.093023306
 30
0.000000000
 10
183.762491016
 20
136.653842710
 30
0.000000000
  0
SPLINE
  5
BF1
330
A02
100
AcDbEntity
  8
PFD_View
100
AcDbSpline
210
0
220
0
230
1
 70
8
 71
2
 72
6
 73
3
 74
0
 40
0.000000000
 40
0.000000000
 40
0.000000000
 40
1.000000000
 40
1.000000000
 40
1.000000000
 10
181.263058785
 20
136.687818001
 30
0.000000000
 10
181.727720849
 20
137.093023306
 30
0.000000000
 10
182.510901263
 20
137.093023306
 30
0.000000000
  0
SPLINE
  5
BF2
330
A02
100
AcDbEntity
  8
PFD_View
100
AcDbSpline
210
0
220
0
230
1
 70
8
 71
2
 72
6
 73
3
 74
0
 40
0.000000000
 40
0.000000000
 40
0.000000000
 40
1.000000000
 40
1.000000000
 40
1.000000000
 10
180.727198501
 20
135.510174469
 30
0.000000000
 10
180.798396721
 20
136.282862514
 30
0.000000000
 10
181.263058785
 20
136.687818001
 30
0.000000000
  0
LINE
  5
BF3
330
A02
100
AcDbEntity
  8
PFD_View
100
AcDbLine
 10
181.420444322
 20
135.414244236
 30
0.000000000
 11
180.727198501
 21
135.510174469
 31
0.000000000
  0
SPLINE
  5
BF4
330
A02
100
AcDbEntity
  8
PFD_View
100
AcDbSpline
210
0
220
0
230
1
 70
8
 71
2
 72
6
 73
3
 74
0
 40
0.000000000
 40
0.000000000
 40
0.000000000
 40
1.000000000
 40
1.000000000
 40
1.000000000
 10
181.716479024
 20
136.236396307
 30
0.000000000
 10
181.424191597
 20
135.939612150
 30
0.000000000
 10
181.420444322
 20
135.414244236
 30
0.000000000
  0
SPLINE
  5
BF5
330
A02
100
AcDbEntity
  8
PFD_View
100
AcDbSpline
210
0
220
0
230
1
 70
8
 71
2
 72
6
 73
3
 74
0
 40
0.000000000
 40
0.000000000
 40
0.000000000
 40
1.000000000
 40
1.000000000
 40
1.000000000
 10
182.495912164
 20
136.533430283
 30
0.000000000
 10
182.008766452
 20
136.533430283
 30
0.000000000
 10
181.716479024
 20
136.236396307
 30
0.000000000
  0
SPLINE
  5
BF6
330
A02
100
AcDbEntity
  8
PFD_View
100
AcDbSpline
210
0
220
0
230
1
 70
8
 71
2
 72
6
 73
3
 74
0
 40
0.000000000
 40
0.000000000
 40
0.000000000
 40
1.000000000
 40
1.000000000
 40
1.000000000
 10
183.243368559
 20
136.258130501
 30
0.000000000
 10
182.956826953
 20
136.533430283
 30
0.000000000
 10
182.495912164
 20
136.533430283
 30
0.000000000
  0
SPLINE
  5
BF7
330
A02
100
AcDbEntity
  8
PFD_View
100
AcDbSpline
210
0
220
0
230
1
 70
8
 71
2
 72
6
 73
3
 74
0
 40
0.000000000
 40
0.000000000
 40
0.000000000
 40
1.000000000
 40
1.000000000
 40
1.000000000
 10
183.530159984
 20
135.582371961
 30
0.000000000
 10
183.530159984
 20
135.983080537
 30
0.000000000
 10
183.243368559
 20
136.258130501
 30
0.000000000
  0
SPLINE
  5
BF8
330
A02
100
AcDbEntity
  8
PFD_View
100
AcDbSpline
210
0
220
0
230
1
 70
8
 71
2
 72
6
 73
3
 74
0
 40
0.000000000
 40
0.000000000
 40
0.000000000
 40
1.000000000
 40
1.000000000
 40
1.000000000
 10
183.215388908
 20
134.771461714
 30
0.000000000
 10
183.530159984
 20
135.200399759
 30
0.000000000
 10
183.530159984
 20
135.582371961
 30
0.000000000
  0
SPLINE
  5
BF9
330
A02
100
AcDbEntity
  8
PFD_View
100
AcDbSpline
210
0
220
0
230
1
 70
8
 71
2
 72
6
 73
3
 74
0
 40
0.000000000
 40
0.000000000
 40
0.000000000
 40
1.000000000
 40
1.000000000
 40
1.000000000
 10
182.005019177
 20
133.601062913
 30
0.000000000
 10
182.900617833
 20
134.342773487
 30
0.000000000
 10
183.215388908
 20
134.771461714
 30
0.000000000
  0
SPLINE
  5
BFA
330
A02
100
AcDbEntity
  8
PFD_View
100
AcDbSpline
210
0
220
0
230
1
 70
8
 71
2
 72
6
 73
3
 74
0
 40
0.000000000
 40
0.000000000
 40
0.000000000
 40
1.000000000
 40
1.000000000
 40
1.000000000
 10
181.122411074
 20
132.763671925
 30
0.000000000
 10
181.427938872
 20
133.124409570
 30
0.000000000
 10
182.005019177
 20
133.601062913
 30
0.000000000
  0
SPLINE
  5
BFB
330
A02
100
AcDbEntity
  8
PFD_View
100
AcDbSpline
210
0
220
0
230
1
 70
8
 71
2
 72
6
 73
3
 74
0
 40
0.000000000
 40
0.000000000
 40
0.000000000
 40
1.000000000
 40
1.000000000
 40
1.000000000
 10
180.678483930
 20
132.030704992
 30
0.000000000
 10
180.817133094
 20
132.402934280
 30
0.000000000
 10
181.122411074
 20
132.763671925
 30
0.000000000
  0
SPLINE
  5
BFC
330
A02
100
AcDbEntity
  8
PFD_View
100
AcDbSpline
210
0
220
0
230
1
 70
8
 71
2
 72
6
 73
3
 74
0
 40
0.000000000
 40
0.000000000
 40
0.000000000
 40
1.000000000
 40
1.000000000
 40
1.000000000
 10
180.599791161
 20
131.561046562
 30
0.000000000
 10
180.592296612
 20
131.805368873
 30
0.000000000
 10
180.678483930
 20
132.030704992
 30
0.000000000
  0
LINE
  5
BFD
330
A02
100
AcDbEntity
  8
PFD_View
100
AcDbLine
 10
184.230900354
 20
131.561046562
 30
0.000000000
 11
180.599791161
 21
131.561046562
 31
0.000000000
  0
LINE
  5
BFE
330
A02
100
AcDbEntity
  8
PFD_View
100
AcDbLine
 10
164.155614199
 20
119.561046562
 30
0.000000000
 11
163.603742833
 21
119.561046562
 31
0.000000000
  0
LINE
  5
BFF
330
A02
100
AcDbEntity
  8
PFD_View
100
AcDbLine
 10
164.155614199
 20
124.087209352
 30
0.000000000
 11
164.155614199
 21
119.561046562
 31
0.000000000
  0
LINE
  5
C00
330
A02
100
AcDbEntity
  8
PFD_View
100
AcDbLine
 10
163.799963763
 20
124.087209352
 30
0.000000000
 11
164.155614199
 21
124.087209352
 31
0.000000000
  0
SPLINE
  5
C01
330
A02
100
AcDbEntity
  8
PFD_View
100
AcDbSpline
210
0
220
0
230
1
 70
8
 71
2
 72
6
 73
3
 74
0
 40
0.000000000
 40
0.000000000
 40
0.000000000
 40
1.000000000
 40
1.000000000
 40
1.000000000
 10
163.309411437
 20
123.484443182
 30
0.000000000
 10
163.655864017
 20
123.795126322
 30
0.000000000
 10
163.799963763
 20
124.087209352
 30
0.000000000
  0
SPLINE
  5
C02
330
A02
100
AcDbEntity
  8
PFD_View
100
AcDbSpline
210
0
220
0
230
1
 70
8
 71
2
 72
6
 73
3
 74
0
 40
0.000000000
 40
0.000000000
 40
0.000000000
 40
1.000000000
 40
1.000000000
 40
1.000000000
 10
162.500000100
 20
122.955668655
 30
0.000000000
 10
162.962958857
 20
123.173964440
 30
0.000000000
 10
163.309411437
 20
123.484443182
 30
0.000000000
  0
LINE
  5
C03
330
A02
100
AcDbEntity
  8
PFD_View
100
AcDbLine
 10
162.500000100
 20
122.420557826
 30
0.000000000
 11
162.500000100
 21
122.955668655
 31
0.000000000
  0
SPLINE
  5
C04
330
A02
100
AcDbEntity
  8
PFD_View
100
AcDbSpline
210
0
220
0
230
1
 70
8
 71
2
 72
6
 73
3
 74
0
 40
0.000000000
 40
0.000000000
 40
0.000000000
 40
1.000000000
 40
1.000000000
 40
1.000000000
 10
163.080895812
 20
122.706508953
 30
0.000000000
 10
162.757540071
 20
122.515806736
 30
0.000000000
 10
162.500000100
 20
122.420557826
 30
0.000000000
  0
SPLINE
  5
C05
330
A02
100
AcDbEntity
  8
PFD_View
100
AcDbSpline
210
0
220
0
230
1
 70
8
 71
2
 72
6
 73
3
 74
0
 40
0.000000000
 40
0.000000000
 40
0.000000000
 40
1.000000000
 40
1.000000000
 40
1.000000000
 10
163.603742833
 20
123.087913386
 30
0.000000000
 10
163.404455950
 20
122.897211169
 30
0.000000000
 10
163.080895812
 20
122.706508953
 30
0.000000000
  0
LINE
  5
C06
330
A02
100
AcDbEntity
  8
PFD_View
100
AcDbLine
 10
163.603742833
 20
119.561046562
 30
0.000000000
 11
163.603742833
 21
123.087913386
 31
0.000000000
  0
SPLINE
  5
C07
330
A02
100
AcDbEntity
  8
PFD_View
100
AcDbSpline
210
0
220
0
230
1
 70
8
 71
2
 72
6
 73
3
 74
0
 40
0.000000000
 40
0.000000000
 40
0.000000000
 40
1.000000000
 40
1.000000000
 40
1.000000000
 10
165.569631277
 20
121.783248597
 30
0.000000000
 10
165.569631277
 20
122.583053284
 30
0.000000000
 10
165.733557513
 20
123.070539658
 30
0.000000000
  0
SPLINE
  5
C08
330
A02
100
AcDbEntity
  8
PFD_View
100
AcDbSpline
210
0
220
0
230
1
 70
8
 71
2
 72
6
 73
3
 74
0
 40
0.000000000
 40
0.000000000
 40
0.000000000
 40
1.000000000
 40
1.000000000
 40
1.000000000
 10
166.014194322
 20
119.950013676
 30
0.000000000
 10
165.569631277
 20
120.512922470
 30
0.000000000
 10
165.569631277
 20
121.783248597
 30
0.000000000
  0
SPLINE
  5
C09
330
A02
100
AcDbEntity
  8
PFD_View
100
AcDbSpline
210
0
220
0
230
1
 70
8
 71
2
 72
6
 73
3
 74
0
 40
0.000000000
 40
0.000000000
 40
0.000000000
 40
1.000000000
 40
1.000000000
 40
1.000000000
 10
167.035156350
 20
119.482558190
 30
0.000000000
 10
166.385174519
 20
119.482558190
 30
0.000000000
 10
166.014194322
 20
119.950013676
 30
0.000000000
  0
SPLINE
  5
C0A
330
A02
100
AcDbEntity
  8
PFD_View
100
AcDbSpline
210
0
220
0
230
1
 70
8
 71
2
 72
6
 73
3
 74
0
 40
0.000000000
 40
0.000000000
 40
0.000000000
 40
1.000000000
 40
1.000000000
 40
1.000000000
 10
167.852130369
 20
119.748478429
 30
0.000000000
 10
167.528774628
 20
119.482558190
 30
0.000000000
 10
167.035156350
 20
119.482558190
 30
0.000000000
  0
SPLINE
  5
C0B
330
A02
100
AcDbEntity
  8
PFD_View
100
AcDbSpline
210
0
220
0
230
1
 70
8
 71
2
 72
6
 73
3
 74
0
 40
0.000000000
 40
0.000000000
 40
0.000000000
 40
1.000000000
 40
1.000000000
 40
1.000000000
 10
168.338185965
 20
120.502089440
 30
0.000000000
 10
168.175690507
 20
120.014603066
 30
0.000000000
 10
167.852130369
 20
119.748478429
 30
0.000000000
  0
SPLINE
  5
C0C
330
A02
100
AcDbEntity
  8
PFD_View
100
AcDbSpline
210
0
220
0
230
1
 70
8
 71
2
 72
6
 73
3
 74
0
 40
0.000000000
 40
0.000000000
 40
0.000000000
 40
1.000000000
 40
1.000000000
 40
1.000000000
 10
168.500681423
 20
121.783248597
 30
0.000000000
 10
168.500681423
 20
120.989780210
 30
0.000000000
 10
168.338185965
 20
120.502089440
 30
0.000000000
  0
SPLINE
  5
C0D
330
A02
100
AcDbEntity
  8
PFD_View
100
AcDbSpline
210
0
220
0
230
1
 70
8
 71
2
 72
6
 73
3
 74
0
 40
0.000000000
 40
0.000000000
 40
0.000000000
 40
1.000000000
 40
1.000000000
 40
1.000000000
 10
168.399505006
 20
122.849177921
 30
0.000000000
 10
168.500681423
 20
122.453874505
 30
0.000000000
 10
168.500681423
 20
121.783248597
 30
0.000000000
  0
SPLINE
  5
C0E
330
A02
100
AcDbEntity
  8
PFD_View
100
AcDbSpline
210
0
220
0
230
1
 70
8
 71
2
 72
6
 73
3
 74
0
 40
0.000000000
 40
0.000000000
 40
0.000000000
 40
1.000000000
 40
1.000000000
 40
1.000000000
 10
168.120503370
 20
123.519599432
 30
0.000000000
 10
168.298328588
 20
123.244481336
 30
0.000000000
 10
168.399505006
 20
122.849177921
 30
0.000000000
  0
SPLINE
  5
C0F
330
A02
100
AcDbEntity
  8
PFD_View
100
AcDbSpline
210
0
220
0
230
1
 70
8
 71
2
 72
6
 73
3
 74
0
 40
0.000000000
 40
0.000000000
 40
0.000000000
 40
1.000000000
 40
1.000000000
 40
1.000000000
 10
167.669808421
 20
123.941065639
 30
0.000000000
 10
167.942678152
 20
123.794921925
 30
0.000000000
 10
168.120503370
 20
123.519599432
 30
0.000000000
  0
SPLINE
  5
C10
330
A02
100
AcDbEntity
  8
PFD_View
100
AcDbSpline
210
0
220
0
230
1
 70
8
 71
2
 72
6
 73
3
 74
0
 40
0.000000000
 40
0.000000000
 40
0.000000000
 40
1.000000000
 40
1.000000000
 40
1.000000000
 10
167.035156350
 20
124.087209352
 30
0.000000000
 10
167.396938690
 20
124.087209352
 30
0.000000000
 10
167.669808421
 20
123.941065639
 30
0.000000000
  0
SPLINE
  5
C11
330
A02
100
AcDbEntity
  8
PFD_View
100
AcDbSpline
210
0
220
0
230
1
 70
8
 71
2
 72
6
 73
3
 74
0
 40
0.000000000
 40
0.000000000
 40
0.000000000
 40
1.000000000
 40
1.000000000
 40
1.000000000
 10
166.221043886
 20
123.822719890
 30
0.000000000
 10
166.544604024
 20
124.087209352
 30
0.000000000
 10
167.035156350
 20
124.087209352
 30
0.000000000
  0
SPLINE
  5
C12
330
A02
100
AcDbEntity
  8
PFD_View
100
AcDbSpline
210
0
220
0
230
1
 70
8
 71
2
 72
6
 73
3
 74
0
 40
0.000000000
 40
0.000000000
 40
0.000000000
 40
1.000000000
 40
1.000000000
 40
1.000000000
 10
165.733557513
 20
123.070539658
 30
0.000000000
 10
165.897688145
 20
123.558230428
 30
0.000000000
 10
166.221043886
 20
123.822719890
 30
0.000000000
  0
SPLINE
  5
C13
330
A02
100
AcDbEntity
  8
PFD_View
100
AcDbSpline
210
0
220
0
230
1
 70
8
 71
2
 72
6
 73
3
 74
0
 40
0.000000000
 40
0.000000000
 40
0.000000000
 40
1.000000000
 40
1.000000000
 40
1.000000000
 10
166.136832404
 20
121.784883771
 30
0.000000000
 10
166.136832404
 20
120.675213531
 30
0.000000000
 10
166.395803152
 20
120.307708081
 30
0.000000000
  0
SPLINE
  5
C14
330
A02
100
AcDbEntity
  8
PFD_View
100
AcDbSpline
210
0
220
0
230
1
 70
8
 71
2
 72
6
 73
3
 74
0
 40
0.000000000
 40
0.000000000
 40
0.000000000
 40
1.000000000
 40
1.000000000
 40
1.000000000
 10
166.421965943
 20
123.306617964
 30
0.000000000
 10
166.136832404
 20
122.894554011
 30
0.000000000
 10
166.136832404
 20
121.784883771
 30
0.000000000
  0
SPLINE
  5
C15
330
A02
100
AcDbEntity
  8
PFD_View
100
AcDbSpline
210
0
220
0
230
1
 70
8
 71
2
 72
6
 73
3
 74
0
 40
0.000000000
 40
0.000000000
 40
0.000000000
 40
1.000000000
 40
1.000000000
 40
1.000000000
 10
167.029024446
 20
123.629360515
 30
0.000000000
 10
166.648846394
 20
123.629360515
 30
0.000000000
 10
166.421965943
 20
123.306617964
 30
0.000000000
  0
SPLINE
  5
C16
330
A02
100
AcDbEntity
  8
PFD_View
100
AcDbSpline
210
0
220
0
230
1
 70
8
 71
2
 72
6
 73
3
 74
0
 40
0.000000000
 40
0.000000000
 40
0.000000000
 40
1.000000000
 40
1.000000000
 40
1.000000000
 10
167.674305151
 20
123.263490239
 30
0.000000000
 10
167.415334402
 20
123.629360515
 30
0.000000000
 10
167.029024446
 20
123.629360515
 30
0.000000000
  0
SPLINE
  5
C17
330
A02
100
AcDbEntity
  8
PFD_View
100
AcDbSpline
210
0
220
0
230
1
 70
8
 71
2
 72
6
 73
3
 74
0
 40
0.000000000
 40
0.000000000
 40
0.000000000
 40
1.000000000
 40
1.000000000
 40
1.000000000
 10
167.933480296
 20
121.784883771
 30
0.000000000
 10
167.933480296
 20
122.897619963
 30
0.000000000
 10
167.674305151
 20
123.263490239
 30
0.000000000
  0
SPLINE
  5
C18
330
A02
100
AcDbEntity
  8
PFD_View
100
AcDbSpline
210
0
220
0
230
1
 70
8
 71
2
 72
6
 73
3
 74
0
 40
0.000000000
 40
0.000000000
 40
0.000000000
 40
1.000000000
 40
1.000000000
 40
1.000000000
 10
167.674305151
 20
120.309343255
 30
0.000000000
 10
167.933480296
 20
120.678279483
 30
0.000000000
 10
167.933480296
 20
121.784883771
 30
0.000000000
  0
SPLINE
  5
C19
330
A02
100
AcDbEntity
  8
PFD_View
100
AcDbSpline
210
0
220
0
230
1
 70
8
 71
2
 72
6
 73
3
 74
0
 40
0.000000000
 40
0.000000000
 40
0.000000000
 40
1.000000000
 40
1.000000000
 40
1.000000000
 10
167.035156350
 20
119.940407027
 30
0.000000000
 10
167.415334402
 20
119.940407027
 30
0.000000000
 10
167.674305151
 20
120.309343255
 30
0.000000000
  0
SPLINE
  5
C1A
330
A02
100
AcDbEntity
  8
PFD_View
100
AcDbSpline
210
0
220
0
230
1
 70
8
 71
2
 72
6
 73
3
 74
0
 40
0.000000000
 40
0.000000000
 40
0.000000000
 40
1.000000000
 40
1.000000000
 40
1.000000000
 10
166.395803152
 20
120.307708081
 30
0.000000000
 10
166.654978298
 20
119.940407027
 30
0.000000000
 10
167.035156350
 20
119.940407027
 30
0.000000000
  0
SPLINE
  5
C1B
330
A02
100
AcDbEntity
  8
PFD_View
100
AcDbSpline
210
0
220
0
230
1
 70
8
 71
2
 72
6
 73
3
 74
0
 40
0.000000000
 40
0.000000000
 40
0.000000000
 40
1.000000000
 40
1.000000000
 40
1.000000000
 10
169.062363835
 20
121.783248597
 30
0.000000000
 10
169.062363835
 20
122.583053284
 30
0.000000000
 10
169.226290071
 20
123.070539658
 30
0.000000000
  0
SPLINE
  5
C1C
330
A02
100
AcDbEntity
  8
PFD_View
100
AcDbSpline
210
0
220
0
230
1
 70
8
 71
2
 72
6
 73
3
 74
0
 40
0.000000000
 40
0.000000000
 40
0.000000000
 40
1.000000000
 40
1.000000000
 40
1.000000000
 10
169.506926881
 20
119.950013676
 30
0.000000000
 10
169.062363835
 20
120.512922470
 30
0.000000000
 10
169.062363835
 20
121.783248597
 30
0.000000000
  0
SPLINE
  5
C1D
330
A02
100
AcDbEntity
  8
PFD_View
100
AcDbSpline
210
0
220
0
230
1
 70
8
 71
2
 72
6
 73
3
 74
0
 40
0.000000000
 40
0.000000000
 40
0.000000000
 40
1.000000000
 40
1.000000000
 40
1.000000000
 10
170.527888908
 20
119.482558190
 30
0.000000000
 10
169.877907077
 20
119.482558190
 30
0.000000000
 10
169.506926881
 20
119.950013676
 30
0.000000000
  0
SPLINE
  5
C1E
330
A02
100
AcDbEntity
  8
PFD_View
100
AcDbSpline
210
0
220
0
230
1
 70
8
 71
2
 72
6
 73
3
 74
0
 40
0.000000000
 40
0.000000000
 40
0.000000000
 40
1.000000000
 40
1.000000000
 40
1.000000000
 10
171.344862927
 20
119.748478429
 30
0.000000000
 10
171.021507186
 20
119.482558190
 30
0.000000000
 10
170.527888908
 20
119.482558190
 30
0.000000000
  0
SPLINE
  5
C1F
330
A02
100
AcDbEntity
  8
PFD_View
100
AcDbSpline
210
0
220
0
230
1
 70
8
 71
2
 72
6
 73
3
 74
0
 40
0.000000000
 40
0.000000000
 40
0.000000000
 40
1.000000000
 40
1.000000000
 40
1.000000000
 10
171.830918523
 20
120.502089440
 30
0.000000000
 10
171.668423065
 20
120.014603066
 30
0.000000000
 10
171.344862927
 20
119.748478429
 30
0.000000000
  0
SPLINE
  5
C20
330
A02
100
AcDbEntity
  8
PFD_View
100
AcDbSpline
210
0
220
0
230
1
 70
8
 71
2
 72
6
 73
3
 74
0
 40
0.000000000
 40
0.000000000
 40
0.000000000
 40
1.000000000
 40
1.000000000
 40
1.000000000
 10
171.993413981
 20
121.783248597
 30
0.000000000
 10
171.993413981
 20
120.989780210
 30
0.000000000
 10
171.830918523
 20
120.502089440
 30
0.000000000
  0
SPLINE
  5
C21
330
A02
100
AcDbEntity
  8
PFD_View
100
AcDbSpline
210
0
220
0
230
1
 70
8
 71
2
 72
6
 73
3
 74
0
 40
0.000000000
 40
0.000000000
 40
0.000000000
 40
1.000000000
 40
1.000000000
 40
1.000000000
 10
171.892237564
 20
122.849177921
 30
0.000000000
 10
171.993413981
 20
122.453874505
 30
0.000000000
 10
171.993413981
 20
121.783248597
 30
0.000000000
  0
SPLINE
  5
C22
330
A02
100
AcDbEntity
  8
PFD_View
100
AcDbSpline
210
0
220
0
230
1
 70
8
 71
2
 72
6
 73
3
 74
0
 40
0.000000000
 40
0.000000000
 40
0.000000000
 40
1.000000000
 40
1.000000000
 40
1.000000000
 10
171.613235928
 20
123.519599432
 30
0.000000000
 10
171.791061147
 20
123.244481336
 30
0.000000000
 10
171.892237564
 20
122.849177921
 30
0.000000000
  0
SPLINE
  5
C23
330
A02
100
AcDbEntity
  8
PFD_View
100
AcDbSpline
210
0
220
0
230
1
 70
8
 71
2
 72
6
 73
3
 74
0
 40
0.000000000
 40
0.000000000
 40
0.000000000
 40
1.000000000
 40
1.000000000
 40
1.000000000
 10
171.162540979
 20
123.941065639
 30
0.000000000
 10
171.435410710
 20
123.794921925
 30
0.000000000
 10
171.613235928
 20
123.519599432
 30
0.000000000
  0
SPLINE
  5
C24
330
A02
100
AcDbEntity
  8
PFD_View
100
AcDbSpline
210
0
220
0
230
1
 70
8
 71
2
 72
6
 73
3
 74
0
 40
0.000000000
 40
0.000000000
 40
0.000000000
 40
1.000000000
 40
1.000000000
 40
1.000000000
 10
170.527888908
 20
124.087209352
 30
0.000000000
 10
170.889671248
 20
124.087209352
 30
0.000000000
 10
171.162540979
 20
123.941065639
 30
0.000000000
  0
SPLINE
  5
C25
330
A02
100
AcDbEntity
  8
PFD_View
100
AcDbSpline
210
0
220
0
230
1
 70
8
 71
2
 72
6
 73
3
 74
0
 40
0.000000000
 40
0.000000000
 40
0.000000000
 40
1.000000000
 40
1.000000000
 40
1.000000000
 10
169.713776444
 20
123.822719890
 30
0.000000000
 10
170.037336583
 20
124.087209352
 30
0.000000000
 10
170.527888908
 20
124.087209352
 30
0.000000000
  0
SPLINE
  5
C26
330
A02
100
AcDbEntity
  8
PFD_View
100
AcDbSpline
210
0
220
0
230
1
 70
8
 71
2
 72
6
 73
3
 74
0
 40
0.000000000
 40
0.000000000
 40
0.000000000
 40
1.000000000
 40
1.000000000
 40
1.000000000
 10
169.226290071
 20
123.070539658
 30
0.000000000
 10
169.390420703
 20
123.558230428
 30
0.000000000
 10
169.713776444
 20
123.822719890
 30
0.000000000
  0
SPLINE
  5
C27
330
A02
100
AcDbEntity
  8
PFD_View
100
AcDbSpline
210
0
220
0
230
1
 70
8
 71
2
 72
6
 73
3
 74
0
 40
0.000000000
 40
0.000000000
 40
0.000000000
 40
1.000000000
 40
1.000000000
 40
1.000000000
 10
169.629564962
 20
121.784883771
 30
0.000000000
 10
169.629564962
 20
120.675213531
 30
0.000000000
 10
169.888535710
 20
120.307708081
 30
0.000000000
  0
SPLINE
  5
C28
330
A02
100
AcDbEntity
  8
PFD_View
100
AcDbSpline
210
0
220
0
230
1
 70
8
 71
2
 72
6
 73
3
 74
0
 40
0.000000000
 40
0.000000000
 40
0.000000000
 40
1.000000000
 40
1.000000000
 40
1.000000000
 10
169.914698501
 20
123.306617964
 30
0.000000000
 10
169.629564962
 20
122.894554011
 30
0.000000000
 10
169.629564962
 20
121.784883771
 30
0.000000000
  0
SPLINE
  5
C29
330
A02
100
AcDbEntity
  8
PFD_View
100
AcDbSpline
210
0
220
0
230
1
 70
8
 71
2
 72
6
 73
3
 74
0
 40
0.000000000
 40
0.000000000
 40
0.000000000
 40
1.000000000
 40
1.000000000
 40
1.000000000
 10
170.521757004
 20
123.629360515
 30
0.000000000
 10
170.141578952
 20
123.629360515
 30
0.000000000
 10
169.914698501
 20
123.306617964
 30
0.000000000
  0
SPLINE
  5
C2A
330
A02
100
AcDbEntity
  8
PFD_View
100
AcDbSpline
210
0
220
0
230
1
 70
8
 71
2
 72
6
 73
3
 74
0
 40
0.000000000
 40
0.000000000
 40
0.000000000
 40
1.000000000
 40
1.000000000
 40
1.000000000
 10
171.167037709
 20
123.263490239
 30
0.000000000
 10
170.908066960
 20
123.629360515
 30
0.000000000
 10
170.521757004
 20
123.629360515
 30
0.000000000
  0
SPLINE
  5
C2B
330
A02
100
AcDbEntity
  8
PFD_View
100
AcDbSpline
210
0
220
0
230
1
 70
8
 71
2
 72
6
 73
3
 74
0
 40
0.000000000
 40
0.000000000
 40
0.000000000
 40
1.000000000
 40
1.000000000
 40
1.000000000
 10
171.426212854
 20
121.784883771
 30
0.000000000
 10
171.426212854
 20
122.897619963
 30
0.000000000
 10
171.167037709
 20
123.263490239
 30
0.000000000
  0
SPLINE
  5
C2C
330
A02
100
AcDbEntity
  8
PFD_View
100
AcDbSpline
210
0
220
0
230
1
 70
8
 71
2
 72
6
 73
3
 74
0
 40
0.000000000
 40
0.000000000
 40
0.000000000
 40
1.000000000
 40
1.000000000
 40
1.000000000
 10
171.167037709
 20
120.309343255
 30
0.000000000
 10
171.426212854
 20
120.678279483
 30
0.000000000
 10
171.426212854
 20
121.784883771
 30
0.000000000
  0
SPLINE
  5
C2D
330
A02
100
AcDbEntity
  8
PFD_View
100
AcDbSpline
210
0
220
0
230
1
 70
8
 71
2
 72
6
 73
3
 74
0
 40
0.000000000
 40
0.000000000
 40
0.000000000
 40
1.000000000
 40
1.000000000
 40
1.000000000
 10
170.527888908
 20
119.940407027
 30
0.000000000
 10
170.908066960
 20
119.940407027
 30
0.000000000
 10
171.167037709
 20
120.309343255
 30
0.000000000
  0
SPLINE
  5
C2E
330
A02
100
AcDbEntity
  8
PFD_View
100
AcDbSpline
210
0
220
0
230
1
 70
8
 71
2
 72
6
 73
3
 74
0
 40
0.000000000
 40
0.000000000
 40
0.000000000
 40
1.000000000
 40
1.000000000
 40
1.000000000
 10
169.888535710
 20
120.307708081
 30
0.000000000
 10
170.147710856
 20
119.940407027
 30
0.000000000
 10
170.527888908
 20
119.940407027
 30
0.000000000
  0
LINE
  5
C2F
330
A02
100
AcDbEntity
  8
PFD_View
100
AcDbLine
 10
175.455487019
 20
120.097383771
 30
0.000000000
 11
175.455487019
 21
119.561046562
 31
0.000000000
  0
LINE
  5
C30
330
A02
100
AcDbEntity
  8
PFD_View
100
AcDbLine
 10
173.251067506
 20
120.097383771
 30
0.000000000
 11
175.455487019
 21
120.097383771
 31
0.000000000
  0
SPLINE
  5
C31
330
A02
100
AcDbEntity
  8
PFD_View
100
AcDbSpline
210
0
220
0
230
1
 70
8
 71
2
 72
6
 73
3
 74
0
 40
0.000000000
 40
0.000000000
 40
0.000000000
 40
1.000000000
 40
1.000000000
 40
1.000000000
 10
173.484079860
 20
120.396825086
 30
0.000000000
 10
173.343046067
 20
120.247819817
 30
0.000000000
 10
173.251067506
 20
120.097383771
 30
0.000000000
  0
SPLINE
  5
C32
330
A02
100
AcDbEntity
  8
PFD_View
100
AcDbSpline
210
0
220
0
230
1
 70
8
 71
2
 72
6
 73
3
 74
0
 40
0.000000000
 40
0.000000000
 40
0.000000000
 40
1.000000000
 40
1.000000000
 40
1.000000000
 10
174.121797883
 20
120.963617419
 30
0.000000000
 10
173.625113654
 20
120.545830355
 30
0.000000000
 10
173.484079860
 20
120.396825086
 30
0.000000000
  0
SPLINE
  5
C33
330
A02
100
AcDbEntity
  8
PFD_View
100
AcDbSpline
210
0
220
0
230
1
 70
8
 71
2
 72
6
 73
3
 74
0
 40
0.000000000
 40
0.000000000
 40
0.000000000
 40
1.000000000
 40
1.000000000
 40
1.000000000
 10
174.972497375
 20
121.755859425
 30
0.000000000
 10
174.716592578
 20
121.467251140
 30
0.000000000
 10
174.121797883
 20
120.963617419
 30
0.000000000
  0
SPLINE
  5
C34
330
A02
100
AcDbEntity
  8
PFD_View
100
AcDbSpline
210
0
220
0
230
1
 70
8
 71
2
 72
6
 73
3
 74
0
 40
0.000000000
 40
0.000000000
 40
0.000000000
 40
1.000000000
 40
1.000000000
 40
1.000000000
 10
175.338980841
 20
122.305686823
 30
0.000000000
 10
175.228606568
 20
122.044672107
 30
0.000000000
 10
174.972497375
 20
121.755859425
 30
0.000000000
  0
SPLINE
  5
C35
330
A02
100
AcDbEntity
  8
PFD_View
100
AcDbSpline
210
0
220
0
230
1
 70
8
 71
2
 72
6
 73
3
 74
0
 40
0.000000000
 40
0.000000000
 40
0.000000000
 40
1.000000000
 40
1.000000000
 40
1.000000000
 10
175.449355115
 20
122.837118509
 30
0.000000000
 10
175.449355115
 20
122.566905937
 30
0.000000000
 10
175.338980841
 20
122.305686823
 30
0.000000000
  0
SPLINE
  5
C36
330
A02
100
AcDbEntity
  8
PFD_View
100
AcDbSpline
210
0
220
0
230
1
 70
8
 71
2
 72
6
 73
3
 74
0
 40
0.000000000
 40
0.000000000
 40
0.000000000
 40
1.000000000
 40
1.000000000
 40
1.000000000
 10
175.072243014
 20
123.727879774
 30
0.000000000
 10
175.449355115
 20
123.368550195
 30
0.000000000
 10
175.449355115
 20
122.837118509
 30
0.000000000
  0
SPLINE
  5
C37
330
A02
100
AcDbEntity
  8
PFD_View
100
AcDbSpline
210
0
220
0
230
1
 70
8
 71
2
 72
6
 73
3
 74
0
 40
0.000000000
 40
0.000000000
 40
0.000000000
 40
1.000000000
 40
1.000000000
 40
1.000000000
 10
174.048215035
 20
124.087209352
 30
0.000000000
 10
174.695130914
 20
124.087209352
 30
0.000000000
 10
175.072243014
 20
123.727879774
 30
0.000000000
  0
SPLINE
  5
C38
330
A02
100
AcDbEntity
  8
PFD_View
100
AcDbSpline
210
0
220
0
230
1
 70
8
 71
2
 72
6
 73
3
 74
0
 40
0.000000000
 40
0.000000000
 40
0.000000000
 40
1.000000000
 40
1.000000000
 40
1.000000000
 10
173.027253007
 20
123.755677739
 30
0.000000000
 10
173.407431059
 20
124.087209352
 30
0.000000000
 10
174.048215035
 20
124.087209352
 30
0.000000000
  0
SPLINE
  5
C39
330
A02
100
AcDbEntity
  8
PFD_View
100
AcDbSpline
210
0
220
0
230
1
 70
8
 71
2
 72
6
 73
3
 74
0
 40
0.000000000
 40
0.000000000
 40
0.000000000
 40
1.000000000
 40
1.000000000
 40
1.000000000
 10
172.588821866
 20
122.792151213
 30
0.000000000
 10
172.647074955
 20
123.424350522
 30
0.000000000
 10
173.027253007
 20
123.755677739
 30
0.000000000
  0
LINE
  5
C3A
330
A02
100
AcDbEntity
  8
PFD_View
100
AcDbLine
 10
173.156022992
 20
122.713662841
 30
0.000000000
 11
172.588821866
 21
122.792151213
 31
0.000000000
  0
SPLINE
  5
C3B
330
A02
100
AcDbEntity
  8
PFD_View
100
AcDbSpline
210
0
220
0
230
1
 70
8
 71
2
 72
6
 73
3
 74
0
 40
0.000000000
 40
0.000000000
 40
0.000000000
 40
1.000000000
 40
1.000000000
 40
1.000000000
 10
173.398233203
 20
123.386332717
 30
0.000000000
 10
173.159088944
 20
123.143509316
 30
0.000000000
 10
173.156022992
 20
122.713662841
 30
0.000000000
  0
SPLINE
  5
C3C
330
A02
100
AcDbEntity
  8
PFD_View
100
AcDbSpline
210
0
220
0
230
1
 70
8
 71
2
 72
6
 73
3
 74
0
 40
0.000000000
 40
0.000000000
 40
0.000000000
 40
1.000000000
 40
1.000000000
 40
1.000000000
 10
174.035951226
 20
123.629360515
 30
0.000000000
 10
173.637377462
 20
123.629360515
 30
0.000000000
 10
173.398233203
 20
123.386332717
 30
0.000000000
  0
SPLINE
  5
C3D
330
A02
100
AcDbEntity
  8
PFD_View
100
AcDbSpline
210
0
220
0
230
1
 70
8
 71
2
 72
6
 73
3
 74
0
 40
0.000000000
 40
0.000000000
 40
0.000000000
 40
1.000000000
 40
1.000000000
 40
1.000000000
 10
174.647506459
 20
123.404115239
 30
0.000000000
 10
174.413063327
 20
123.629360515
 30
0.000000000
 10
174.035951226
 20
123.629360515
 30
0.000000000
  0
SPLINE
  5
C3E
330
A02
100
AcDbEntity
  8
PFD_View
100
AcDbSpline
210
0
220
0
230
1
 70
8
 71
2
 72
6
 73
3
 74
0
 40
0.000000000
 40
0.000000000
 40
0.000000000
 40
1.000000000
 40
1.000000000
 40
1.000000000
 10
174.882153988
 20
122.851221889
 30
0.000000000
 10
174.882153988
 20
123.179074360
 30
0.000000000
 10
174.647506459
 20
123.404115239
 30
0.000000000
  0
SPLINE
  5
C3F
330
A02
100
AcDbEntity
  8
PFD_View
100
AcDbSpline
210
0
220
0
230
1
 70
8
 71
2
 72
6
 73
3
 74
0
 40
0.000000000
 40
0.000000000
 40
0.000000000
 40
1.000000000
 40
1.000000000
 40
1.000000000
 10
174.624614017
 20
122.187749868
 30
0.000000000
 10
174.882153988
 20
122.538699178
 30
0.000000000
 10
174.882153988
 20
122.851221889
 30
0.000000000
  0
SPLINE
  5
C40
330
A02
100
AcDbEntity
  8
PFD_View
100
AcDbSpline
210
0
220
0
230
1
 70
8
 71
2
 72
6
 73
3
 74
0
 40
0.000000000
 40
0.000000000
 40
0.000000000
 40
1.000000000
 40
1.000000000
 40
1.000000000
 10
173.634311510
 20
121.230150849
 30
0.000000000
 10
174.367074046
 20
121.837004956
 30
0.000000000
 10
174.624614017
 20
122.187749868
 30
0.000000000
  0
SPLINE
  5
C41
330
A02
100
AcDbEntity
  8
PFD_View
100
AcDbSpline
210
0
220
0
230
1
 70
8
 71
2
 72
6
 73
3
 74
0
 40
0.000000000
 40
0.000000000
 40
0.000000000
 40
1.000000000
 40
1.000000000
 40
1.000000000
 10
172.912177607
 20
120.545012768
 30
0.000000000
 10
173.162154897
 20
120.840161751
 30
0.000000000
 10
173.634311510
 20
121.230150849
 30
0.000000000
  0
SPLINE
  5
C42
330
A02
100
AcDbEntity
  8
PFD_View
100
AcDbSpline
210
0
220
0
230
1
 70
8
 71
2
 72
6
 73
3
 74
0
 40
0.000000000
 40
0.000000000
 40
0.000000000
 40
1.000000000
 40
1.000000000
 40
1.000000000
 10
172.548964490
 20
119.945312550
 30
0.000000000
 10
172.662404715
 20
120.249863785
 30
0.000000000
 10
172.912177607
 20
120.545012768
 30
0.000000000
  0
SPLINE
  5
C43
330
A02
100
AcDbEntity
  8
PFD_View
100
AcDbSpline
210
0
220
0
230
1
 70
8
 71
2
 72
6
 73
3
 74
0
 40
0.000000000
 40
0.000000000
 40
0.000000000
 40
1.000000000
 40
1.000000000
 40
1.000000000
 10
172.484579497
 20
119.561046562
 30
0.000000000
 10
172.478447593
 20
119.760946634
 30
0.000000000
 10
172.548964490
 20
119.945312550
 30
0.000000000
  0
LINE
  5
C44
330
A02
100
AcDbEntity
  8
PFD_View
100
AcDbLine
 10
175.455487019
 20
119.561046562
 30
0.000000000
 11
172.484579497
 21
119.561046562
 31
0.000000000
  0
LINE
  5
C45
330
A02
100
AcDbEntity
  8
PFD_View
100
AcDbLine
 10
175.986509911
 20
120.908430283
 30
0.000000000
 11
175.986509911
 21
121.457848887
 31
0.000000000
  0
LINE
  5
C46
330
A02
100
AcDbEntity
  8
PFD_View
100
AcDbLine
 10
177.681981386
 20
120.908430283
 30
0.000000000
 11
175.986509911
 21
120.908430283
 31
0.000000000
  0
LINE
  5
C47
330
A02
100
AcDbEntity
  8
PFD_View
100
AcDbLine
 10
177.681981386
 20
121.457848887
 30
0.000000000
 11
177.681981386
 21
120.908430283
 31
0.000000000
  0
LINE
  5
C48
330
A02
100
AcDbEntity
  8
PFD_View
100
AcDbLine
 10
175.986509911
 20
121.457848887
 30
0.000000000
 11
177.681981386
 21
121.457848887
 31
0.000000000
  0
LINE
  5
C49
330
A02
100
AcDbEntity
  8
PFD_View
100
AcDbLine
 10
177.871048428
 20
119.561046562
 30
0.000000000
 11
179.597179424
 21
124.061046562
 31
0.000000000
  0
LINE
  5
C4A
330
A02
100
AcDbEntity
  8
PFD_View
100
AcDbLine
 10
178.502634548
 20
119.561046562
 30
0.000000000
 11
177.871048428
 21
119.561046562
 31
0.000000000
  0
LINE
  5
C4B
330
A02
100
AcDbEntity
  8
PFD_View
100
AcDbLine
 10
178.996252825
 20
120.921511678
 30
0.000000000
 11
178.502634548
 21
119.561046562
 31
0.000000000
  0
LINE
  5
C4C
330
A02
100
AcDbEntity
  8
PFD_View
100
AcDbLine
 10
180.875681423
 20
120.921511678
 30
0.000000000
 11
178.996252825
 21
120.921511678
 31
0.000000000
  0
LINE
  5
C4D
330
A02
100
AcDbEntity
  8
PFD_View
100
AcDbLine
 10
181.399959221
 20
119.561046562
 30
0.000000000
 11
180.875681423
 21
120.921511678
 31
0.000000000
  0
LINE
  5
C4E
330
A02
100
AcDbEntity
  8
PFD_View
100
AcDbLine
 10
182.077534620
 20
119.561046562
 30
0.000000000
 11
181.399959221
 21
119.561046562
 31
0.000000000
  0
LINE
  5
C4F
330
A02
100
AcDbEntity
  8
PFD_View
100
AcDbLine
 10
180.237963399
 20
124.061046562
 30
0.000000000
 11
182.077534620
 21
119.561046562
 31
0.000000000
  0
LINE
  5
C50
330
A02
100
AcDbEntity
  8
PFD_View
100
AcDbLine
 10
179.597179424
 20
124.061046562
 30
0.000000000
 11
180.237963399
 21
124.061046562
 31
0.000000000
  0
LINE
  5
C51
330
A02
100
AcDbEntity
  8
PFD_View
100
AcDbLine
 10
179.167946139
 20
121.405523306
 30
0.000000000
 11
180.691724301
 21
121.405523306
 31
0.000000000
  0
LINE
  5
C52
330
A02
100
AcDbEntity
  8
PFD_View
100
AcDbLine
 10
179.661564417
 20
122.726131046
 30
0.000000000
 11
179.167946139
 21
121.405523306
 31
0.000000000
  0
SPLINE
  5
C53
330
A02
100
AcDbEntity
  8
PFD_View
100
AcDbSpline
210
0
220
0
230
1
 70
8
 71
2
 72
6
 73
3
 74
0
 40
0.000000000
 40
0.000000000
 40
0.000000000
 40
1.000000000
 40
1.000000000
 40
1.000000000
 10
179.903774628
 20
123.590116329
 30
0.000000000
 10
179.817927971
 20
123.154751140
 30
0.000000000
 10
179.661564417
 20
122.726131046
 30
0.000000000
  0
SPLINE
  5
C54
330
A02
100
AcDbEntity
  8
PFD_View
100
AcDbSpline
210
0
220
0
230
1
 70
8
 71
2
 72
6
 73
3
 74
0
 40
0.000000000
 40
0.000000000
 40
0.000000000
 40
1.000000000
 40
1.000000000
 40
1.000000000
 10
180.222633639
 20
122.652139403
 30
0.000000000
 10
180.008016997
 20
123.220566910
 30
0.000000000
 10
179.903774628
 20
123.590116329
 30
0.000000000
  0
LINE
  5
C55
330
A02
100
AcDbEntity
  8
PFD_View
100
AcDbLine
 10
180.691724301
 20
121.405523306
 30
0.000000000
 11
180.222633639
 21
122.652139403
 31
0.000000000
  0
LINE
  5
C56
330
A02
100
AcDbEntity
  8
PFD_View
100
AcDbLine
 10
184.405614199
 20
119.561046562
 30
0.000000000
 11
183.853742833
 21
119.561046562
 31
0.000000000
  0
LINE
  5
C57
330
A02
100
AcDbEntity
  8
PFD_View
100
AcDbLine
 10
184.405614199
 20
124.087209352
 30
0.000000000
 11
184.405614199
 21
119.561046562
 31
0.000000000
  0
LINE
  5
C58
330
A02
100
AcDbEntity
  8
PFD_View
100
AcDbLine
 10
184.049963763
 20
124.087209352
 30
0.000000000
 11
184.405614199
 21
124.087209352
 31
0.000000000
  0
SPLINE
  5
C59
330
A02
100
AcDbEntity
  8
PFD_View
100
AcDbSpline
210
0
220
0
230
1
 70
8
 71
2
 72
6
 73
3
 74
0
 40
0.000000000
 40
0.000000000
 40
0.000000000
 40
1.000000000
 40
1.000000000
 40
1.000000000
 10
183.559411437
 20
123.484443182
 30
0.000000000
 10
183.905864017
 20
123.795126322
 30
0.000000000
 10
184.049963763
 20
124.087209352
 30
0.000000000
  0
SPLINE
  5
C5A
330
A02
100
AcDbEntity
  8
PFD_View
100
AcDbSpline
210
0
220
0
230
1
 70
8
 71
2
 72
6
 73
3
 74
0
 40
0.000000000
 40
0.000000000
 40
0.000000000
 40
1.000000000
 40
1.000000000
 40
1.000000000
 10
182.750000100
 20
122.955668655
 30
0.000000000
 10
183.212958857
 20
123.173964440
 30
0.000000000
 10
183.559411437
 20
123.484443182
 30
0.000000000
  0
LINE
  5
C5B
330
A02
100
AcDbEntity
  8
PFD_View
100
AcDbLine
 10
182.750000100
 20
122.420557826
 30
0.000000000
 11
182.750000100
 21
122.955668655
 31
0.000000000
  0
SPLINE
  5
C5C
330
A02
100
AcDbEntity
  8
PFD_View
100
AcDbSpline
210
0
220
0
230
1
 70
8
 71
2
 72
6
 73
3
 74
0
 40
0.000000000
 40
0.000000000
 40
0.000000000
 40
1.000000000
 40
1.000000000
 40
1.000000000
 10
183.330895812
 20
122.706508953
 30
0.000000000
 10
183.007540071
 20
122.515806736
 30
0.000000000
 10
182.750000100
 20
122.420557826
 30
0.000000000
  0
SPLINE
  5
C5D
330
A02
100
AcDbEntity
  8
PFD_View
100
AcDbSpline
210
0
220
0
230
1
 70
8
 71
2
 72
6
 73
3
 74
0
 40
0.000000000
 40
0.000000000
 40
0.000000000
 40
1.000000000
 40
1.000000000
 40
1.000000000
 10
183.853742833
 20
123.087913386
 30
0.000000000
 10
183.654455950
 20
122.897211169
 30
0.000000000
 10
183.330895812
 20
122.706508953
 30
0.000000000
  0
LINE
  5
C5E
330
A02
100
AcDbEntity
  8
PFD_View
100
AcDbLine
 10
183.853742833
 20
119.561046562
 30
0.000000000
 11
183.853742833
 21
123.087913386
 31
0.000000000
  0
LINE
  5
C5F
330
A02
100
AcDbEntity
  8
PFD_View
100
AcDbLine
 10
185.549827498
 20
119.561046562
 30
0.000000000
 11
187.275958494
 21
124.061046562
 31
0.000000000
  0
LINE
  5
C60
330
A02
100
AcDbEntity
  8
PFD_View
100
AcDbLine
 10
186.181413617
 20
119.561046562
 30
0.000000000
 11
185.549827498
 21
119.561046562
 31
0.000000000
  0
LINE
  5
C61
330
A02
100
AcDbEntity
  8
PFD_View
100
AcDbLine
 10
186.675031895
 20
120.921511678
 30
0.000000000
 11
186.181413617
 21
119.561046562
 31
0.000000000
  0
LINE
  5
C62
330
A02
100
AcDbEntity
  8
PFD_View
100
AcDbLine
 10
188.554460492
 20
120.921511678
 30
0.000000000
 11
186.675031895
 21
120.921511678
 31
0.000000000
  0
LINE
  5
C63
330
A02
100
AcDbEntity
  8
PFD_View
100
AcDbLine
 10
189.078738290
 20
119.561046562
 30
0.000000000
 11
188.554460492
 21
120.921511678
 31
0.000000000
  0
LINE
  5
C64
330
A02
100
AcDbEntity
  8
PFD_View
100
AcDbLine
 10
189.756313690
 20
119.561046562
 30
0.000000000
 11
189.078738290
 21
119.561046562
 31
0.000000000
  0
LINE
  5
C65
330
A02
100
AcDbEntity
  8
PFD_View
100
AcDbLine
 10
187.916742469
 20
124.061046562
 30
0.000000000
 11
189.756313690
 21
119.561046562
 31
0.000000000
  0
LINE
  5
C66
330
A02
100
AcDbEntity
  8
PFD_View
100
AcDbLine
 10
187.275958494
 20
124.061046562
 30
0.000000000
 11
187.916742469
 21
124.061046562
 31
0.000000000
  0
LINE
  5
C67
330
A02
100
AcDbEntity
  8
PFD_View
100
AcDbLine
 10
186.846725209
 20
121.405523306
 30
0.000000000
 11
188.370503370
 21
121.405523306
 31
0.000000000
  0
LINE
  5
C68
330
A02
100
AcDbEntity
  8
PFD_View
100
AcDbLine
 10
187.340343487
 20
122.726131046
 30
0.000000000
 11
186.846725209
 21
121.405523306
 31
0.000000000
  0
SPLINE
  5
C69
330
A02
100
AcDbEntity
  8
PFD_View
100
AcDbSpline
210
0
220
0
230
1
 70
8
 71
2
 72
6
 73
3
 74
0
 40
0.000000000
 40
0.000000000
 40
0.000000000
 40
1.000000000
 40
1.000000000
 40
1.000000000
 10
187.582553697
 20
123.590116329
 30
0.000000000
 10
187.496707040
 20
123.154751140
 30
0.000000000
 10
187.340343487
 20
122.726131046
 30
0.000000000
  0
SPLINE
  5
C6A
330
A02
100
AcDbEntity
  8
PFD_View
100
AcDbSpline
210
0
220
0
230
1
 70
8
 71
2
 72
6
 73
3
 74
0
 40
0.000000000
 40
0.000000000
 40
0.000000000
 40
1.000000000
 40
1.000000000
 40
1.000000000
 10
187.901412709
 20
122.652139403
 30
0.000000000
 10
187.686796067
 20
123.220566910
 30
0.000000000
 10
187.582553697
 20
123.590116329
 30
0.000000000
  0
LINE
  5
C6B
330
A02
100
AcDbEntity
  8
PFD_View
100
AcDbLine
 10
188.370503370
 20
121.405523306
 30
0.000000000
 11
187.901412709
 21
122.652139403
 31
0.000000000
  0
LINE
  5
C6C
330
A02
100
AcDbEntity
  8
PFD_View
100
AcDbLine
 10
189.944358748
 20
120.908430283
 30
0.000000000
 11
189.944358748
 21
121.457848887
 31
0.000000000
  0
LINE
  5
C6D
330
A02
100
AcDbEntity
  8
PFD_View
100
AcDbLine
 10
191.639830224
 20
120.908430283
 30
0.000000000
 11
189.944358748
 21
120.908430283
 31
0.000000000
  0
LINE
  5
C6E
330
A02
100
AcDbEntity
  8
PFD_View
100
AcDbLine
 10
191.639830224
 20
121.457848887
 30
0.000000000
 11
191.639830224
 21
120.908430283
 31
0.000000000
  0
LINE
  5
C6F
330
A02
100
AcDbEntity
  8
PFD_View
100
AcDbLine
 10
189.944358748
 20
121.457848887
 30
0.000000000
 11
191.639830224
 21
121.457848887
 31
0.000000000
  0
LINE
  5
C70
330
A02
100
AcDbEntity
  8
PFD_View
100
AcDbLine
 10
192.340911256
 20
119.561046562
 30
0.000000000
 11
192.340911256
 21
124.061046562
 31
0.000000000
  0
LINE
  5
C71
330
A02
100
AcDbEntity
  8
PFD_View
100
AcDbLine
 10
192.935705950
 20
119.561046562
 30
0.000000000
 11
192.340911256
 21
119.561046562
 31
0.000000000
  0
LINE
  5
C72
330
A02
100
AcDbEntity
  8
PFD_View
100
AcDbLine
 10
192.935705950
 20
121.680232608
 30
0.000000000
 11
192.935705950
 21
119.561046562
 31
0.000000000
  0
LINE
  5
C73
330
A02
100
AcDbEntity
  8
PFD_View
100
AcDbLine
 10
195.271961401
 20
121.680232608
 30
0.000000000
 11
192.935705950
 21
121.680232608
 31
0.000000000
  0
LINE
  5
C74
330
A02
100
AcDbEntity
  8
PFD_View
100
AcDbLine
 10
195.271961401
 20
119.561046562
 30
0.000000000
 11
195.271961401
 21
121.680232608
 31
0.000000000
  0
LINE
  5
C75
330
A02
100
AcDbEntity
  8
PFD_View
100
AcDbLine
 10
195.866756096
 20
119.561046562
 30
0.000000000
 11
195.271961401
 21
119.561046562
 31
0.000000000
  0
LINE
  5
C76
330
A02
100
AcDbEntity
  8
PFD_View
100
AcDbLine
 10
195.866756096
 20
124.061046562
 30
0.000000000
 11
195.866756096
 21
119.561046562
 31
0.000000000
  0
LINE
  5
C77
330
A02
100
AcDbEntity
  8
PFD_View
100
AcDbLine
 10
195.271961401
 20
124.061046562
 30
0.000000000
 11
195.866756096
 21
124.061046562
 31
0.000000000
  0
LINE
  5
C78
330
A02
100
AcDbEntity
  8
PFD_View
100
AcDbLine
 10
195.271961401
 20
122.216569817
 30
0.000000000
 11
195.271961401
 21
124.061046562
 31
0.000000000
  0
LINE
  5
C79
330
A02
100
AcDbEntity
  8
PFD_View
100
AcDbLine
 10
192.935705950
 20
122.216569817
 30
0.000000000
 11
195.271961401
 21
122.216569817
 31
0.000000000
  0
LINE
  5
C7A
330
A02
100
AcDbEntity
  8
PFD_View
100
AcDbLine
 10
192.935705950
 20
124.061046562
 30
0.000000000
 11
192.935705950
 21
122.216569817
 31
0.000000000
  0
LINE
  5
C7B
330
A02
100
AcDbEntity
  8
PFD_View
100
AcDbLine
 10
192.340911256
 20
124.061046562
 30
0.000000000
 11
192.935705950
 21
124.061046562
 31
0.000000000
  0
CIRCLE
  5
C7C
330
A02
100
AcDbEntity
  8
PFD_View
100
AcDbCircle
 10
97.500000000
 20
177.561046562
 30
0.000000000
 40
15.000000000
  0
LINE
  5
C7D
330
A02
100
AcDbEntity
  8
PFD_View
100
AcDbLine
 10
97.500000000
 20
192.561046562
 30
0.000000000
 11
97.500000000
 21
207.561046562
 31
0.000000000
  0
LINE
  5
C7E
330
A02
100
AcDbEntity
  8
PFD_View
100
AcDbLine
 10
112.500000000
 20
177.561046562
 30
0.000000000
 11
127.500000000
 21
177.561046562
 31
0.000000000
  0
LINE
  5
C7F
330
A02
100
AcDbEntity
  8
PFD_View
100
AcDbLine
 10
277.500000000
 20
147.561046562
 30
0.000000000
 11
317.500000000
 21
147.561046562
 31
0.000000000
  0
LINE
  5
C80
330
A02
100
AcDbEntity
  8
PFD_View
100
AcDbLine
 10
317.500000000
 20
147.561046562
 30
0.000000000
 11
317.500000000
 21
207.561046562
 31
0.000000000
  0
LINE
  5
C81
330
A02
100
AcDbEntity
  8
PFD_View
100
AcDbLine
 10
317.500000000
 20
207.561046562
 30
0.000000000
 11
277.500000000
 21
207.561046562
 31
0.000000000
  0
LINE
  5
C82
330
A02
100
AcDbEntity
  8
PFD_View
100
AcDbLine
 10
277.500000000
 20
207.561046562
 30
0.000000000
 11
277.500000000
 21
147.561046562
 31
0.000000000
  0
LINE
  5
C83
330
A02
100
AcDbEntity
  8
PFD_View
100
AcDbLine
 10
189.500000000
 20
129.561046562
 30
0.000000000
 11
182.540000000
 21
117.561046562
 31
0.000000000
  0
LINE
  5
C84
330
A02
100
AcDbEntity
  8
PFD_View
100
AcDbLine
 10
182.540000000
 20
117.561046562
 30
0.000000000
 11
196.460000000
 21
117.561046562
 31
0.000000000
  0
LINE
  5
C85
330
A02
100
AcDbEntity
  8
PFD_View
100
AcDbLine
 10
196.460000000
 20
117.561046562
 30
0.000000000
 11
189.500000000
 21
129.561046562
 31
0.000000000
  0
LINE
  5
C86
330
A02
100
AcDbEntity
  8
PFD_View
100
AcDbLine
 10
189.500000000
 20
129.561046562
 30
0.000000000
 11
182.540000000
 21
117.561046562
 31
0.000000000
  0
LINE
  5
C87
330
A02
100
AcDbEntity
  8
PFD_View
100
AcDbLine
 10
182.540000000
 20
117.561046562
 30
0.000000000
 11
196.460000000
 21
117.561046562
 31
0.000000000
  0
LINE
  5
C88
330
A02
100
AcDbEntity
  8
PFD_View
100
AcDbLine
 10
196.460000000
 20
117.561046562
 30
0.000000000
 11
189.500000000
 21
129.561046562
 31
0.000000000
  0
LINE
  5
C89
330
A02
100
AcDbEntity
  8
PFD_View
100
AcDbLine
 10
197.500000000
 20
111.561046562
 30
0.000000000
 11
197.500000000
 21
143.561046562
 31
0.000000000
  0
LINE
  5
C8A
330
A02
100
AcDbEntity
  8
PFD_View
100
AcDbLine
 10
97.500000000
 20
177.561046562
 30
0.000000000
 11
297.500000000
 21
177.561046562
 31
0.000000000
  0
LINE
  5
C8B
330
A02
100
AcDbEntity
  8
PFD_View
100
AcDbLine
 10
297.500000000
 20
177.561046562
 30
0.000000000
 11
291.500000000
 21
179.961046562
 31
0.000000000
  0
LINE
  5
C8C
330
A02
100
AcDbEntity
  8
PFD_View
100
AcDbLine
 10
297.500000000
 20
177.561046562
 30
0.000000000
 11
291.500000000
 21
175.161046562
 31
0.000000000
  0
LINE
  5
C8D
330
A02
100
AcDbEntity
  8
PFD_View
100
AcDbLine
 10
97.500000000
 20
177.561046562
 30
0.000000000
 11
147.500000000
 21
177.561046562
 31
0.000000000
  0
LINE
  5
C8E
330
A02
100
AcDbEntity
  8
PFD_View
100
AcDbLine
 10
147.500000000
 20
177.561046562
 30
0.000000000
 11
147.500000000
 21
127.561046562
 31
0.000000000
  0
LINE
  5
C8F
330
A02
100
AcDbEntity
  8
PFD_View
100
AcDbLine
 10
147.500000000
 20
127.561046562
 30
0.000000000
 11
197.500000000
 21
127.561046562
 31
0.000000000
  0
LINE
  5
C90
330
A02
100
AcDbEntity
  8
PFD_View
100
AcDbLine
 10
197.500000000
 20
127.561046562
 30
0.000000000
 11
191.500000000
 21
129.961046562
 31
0.000000000
  0
LINE
  5
C91
330
A02
100
AcDbEntity
  8
PFD_View
100
AcDbLine
 10
197.500000000
 20
127.561046562
 30
0.000000000
 11
191.500000000
 21
125.161046562
 31
0.000000000
  0
ENDSEC
  0
SECTION
  2
OBJECTS
  0
DICTIONARY
  5
F000
330
0
100
AcDbDictionary
  3
ACAD_GROUP
350
F001
  0
DICTIONARY
  5
F001
330
F000
100
AcDbDictionary
  0
ENDSEC
  0
EOF